{
DisplayStrings = (
"/pa-deva/halant-deva/ra-deva",
"/pa-deva/halant-deva/ra-deva"
);
classes = (
{
automatic = 1;
code = "k-deva kh-deva g-deva gh-deva ng-deva c-deva ch-deva j-deva jh-deva ny-deva tt-deva tth-deva dd-deva ddh-deva nn-deva t-deva th-deva d-deva dh-deva n-deva nnn-deva p-deva ph-deva b-deva bh-deva m-deva y-deva rr-deva l-deva ll-deva lll-deva v-deva sh-deva ss-deva s-deva h-deva q-deva khh-deva ghh-deva z-deva f-deva sh-deva.loclMAR jh-deva.loclNEP sh-deva.ss02";
name = DevaHalfforms;
},
{
automatic = 1;
code = "iMatra-deva iMatra-deva.00 iMatra-deva.01 iMatra-deva.02 iMatra-deva.03 iMatra-deva.04 iMatra-deva.05 iMatra-deva.06 iMatra-deva.07 iMatra-deva.08 iMatra-deva.09 iMatra-deva.10 iMatra-deva.11 iMatra-deva.12 iMatra-deva.13 iMatra-deva.14 iMatra-deva.15 iMatra-deva.16";
name = DevaIMatras;
},
{
automatic = 1;
code = "iMatra_reph-deva iMatra_reph-deva.00 iMatra_reph-deva.01 iMatra_reph-deva.02 iMatra_reph-deva.03 iMatra_reph-deva.04 iMatra_reph-deva.05 iMatra_reph-deva.06 iMatra_reph-deva.07 iMatra_reph-deva.08 iMatra_reph-deva.09 iMatra_reph-deva.10 iMatra_reph-deva.11 iMatra_reph-deva.12 iMatra_reph-deva.13 iMatra_reph-deva.14 iMatra_reph-deva.15 iMatra_reph-deva.16";
name = DevaIMatraRephs;
},
{
automatic = 1;
code = "iMatra_reph_anusvara-deva iMatra_reph_anusvara-deva.00 iMatra_reph_anusvara-deva.01 iMatra_reph_anusvara-deva.02 iMatra_reph_anusvara-deva.03 iMatra_reph_anusvara-deva.04 iMatra_reph_anusvara-deva.05 iMatra_reph_anusvara-deva.06 iMatra_reph_anusvara-deva.07 iMatra_reph_anusvara-deva.08 iMatra_reph_anusvara-deva.09 iMatra_reph_anusvara-deva.10 iMatra_reph_anusvara-deva.11 iMatra_reph_anusvara-deva.12 iMatra_reph_anusvara-deva.13 iMatra_reph_anusvara-deva.14 iMatra_reph_anusvara-deva.15 iMatra_reph_anusvara-deva.16";
name = DevaIMatraRephAnusvaras;
},
{
automatic = 1;

glyphs = (
{
glyphname = A;
lastChange = "2015-07-10 20:22:03 +0000";
layers = (
{
layerId = UUID0;
name = Regular;
paths = (
{
closed = 1;
nodes = (
"280 0 LINE",
"280 60 LINE",
"186 79 LINE",
"225 190 LINE",
"485 190 LINE",
"523 79 LINE",
"430 60 LINE",
"430 0 LINE",
"720 0 LINE",
"720 60 LINE",
"637 79 LINE",
"415 700 LINE",
"315 695 LINE",
"87 79 LINE",
"5 60 LINE",
"5 0 LINE"
);
},
{
closed = 1;
nodes = (
"357 571 LINE",
"458 270 LINE",
"252 270 LINE"
);
}
);
width = 725;
},
{
layerId = "26DC72AF-247A-4505-B175-40140B6BEEEF";
name = Bold;
paths = (
{
closed = 1;
nodes = (
"307 0 LINE",
"307 85 LINE",
"229 113 LINE",
"254 185 LINE",
"476 185 LINE",
"500 112 LINE",
"425 85 LINE",
"425 0 LINE",
"743 0 LINE",
"743 85 LINE",
"673 113 LINE",
"458 705 LINE",
"298 702 LINE",
"78 113 LINE",
"5 85 LINE",
"5 0 LINE"
);
},
{
closed = 1;
nodes = (
"368 529 LINE",
"443 292 LINE",
"289 292 LINE"
);
}
);
width = 748;
}
);
leftKerningGroup = A;
rightKerningGroup = A;
unicode = 0041;
},
{
glyphname = Abreve;
lastChange = "2015-07-10 21:26:15 +0000";
layers = (
{
background = {
paths = (
{
closed = 1;
nodes = (
"5 0 LINE",
"280 0 LINE",
"280 60 LINE",
"186 79 LINE",
"225 190 LINE",
"485 190 LINE",
"523 79 LINE",
"430 60 LINE",
"430 0 LINE",
"720 0 LINE",
"720 60 LINE",
"637 79 LINE",
"415 700 LINE",
"315 695 LINE",
"87 79 LINE",
"5 60 LINE"
);
},
{
closed = 1;
nodes = (
"357 571 LINE",
"458 270 LINE",
"252 270 LINE"
);
},
{
closed = 1;
nodes = (
"445 905 LINE",
"445 905 OFFCURVE",
"440 835 OFFCURVE",
"365 835 CURVE SMOOTH",
"295 835 OFFCURVE",
"285 910 OFFCURVE",
"285 910 CURVE",
"225 905 LINE",
"225 820 OFFCURVE",
"290 760 OFFCURVE",
"360 760 CURVE SMOOTH",
"440 760 OFFCURVE",
"505 820 OFFCURVE",
"505 910 CURVE"
);
}
);
};
components = (
{
disableAlignment = 1;
name = A;
},
{
disableAlignment = 1;
name = breve;
transform = "{1, 0, 0, 1, 145, 145}";
}
);
layerId = UUID0;
name = Regular;
width = 725;
},
{
components = (
{
name = A;
},
{
name = breve;
transform = "{1, 0, 0, 1, 169, 167}";
}
);
guideLines = (
{
position = "{602, 938}";
}
);
layerId = "26DC72AF-247A-4505-B175-40140B6BEEEF";
name = Bold;
width = 748;
}
);
leftKerningGroup = A;
leftMetricsKey = A;
rightKerningGroup = A;
rightMetricsKey = A;
unicode = 0102;
},
{
glyphname = Acircumflex;
lastChange = "2015-07-10 21:26:37 +0000";
layers = (
{
components = (
{
name = A;
}
);
layerId = UUID0;
name = Regular;
paths = (
{
closed = 1;
nodes = (
"330 915 LINE",
"185 795 LINE",
"225 750 LINE",
"362 843 LINE",
"495 750 LINE",
"535 795 LINE",
"390 920 LINE"
);
}
);
width = 726;
},
{
components = (
{
name = A;
}
);
layerId = "26DC72AF-247A-4505-B175-40140B6BEEEF";
name = Bold;
paths = (
{
closed = 1;
nodes = (
"333 939 LINE",
"180 808 LINE",
"228 742 LINE",
"385 840 LINE",
"536 742 LINE",
"584 808 LINE",
"422 947 LINE"
);
}
);
width = 758;
}
);
leftKerningGroup = A;
rightKerningGroup = A;
unicode = 00C2;
},
{
glyphname = Adieresis;
lastChange = "2015-07-10 21:26:51 +0000";
layers = (
{
background = {
paths = (
{
closed = 1;
nodes = (
"315 695 LINE",
"87 79 LINE",
"5 60 LINE",
"5 0 LINE",
"280 0 LINE",
"280 60 LINE",
"186 79 LINE",
"225 190 LINE",
"485 190 LINE",
"523 79 LINE",
"430 60 LINE",
"430 0 LINE",
"720 0 LINE",
"720 60 LINE",
"637 79 LINE",
"415 700 LINE"
);
},
{
closed = 1;
nodes = (
"458 270 LINE",
"252 270 LINE",
"357 571 LINE"
);
},
{
closed = 1;
nodes = (
"240 885 OFFCURVE",
"215 863 OFFCURVE",
"215 825 CURVE SMOOTH",
"215 787 OFFCURVE",
"236 765 OFFCURVE",
"270 765 CURVE SMOOTH",
"300 765 OFFCURVE",
"325 787 OFFCURVE",
"325 825 CURVE SMOOTH",
"325 863 OFFCURVE",
"304 885 OFFCURVE",
"270 885 CURVE SMOOTH"
);
},
{
closed = 1;
nodes = (
"445 885 OFFCURVE",
"420 863 OFFCURVE",
"420 825 CURVE SMOOTH",
"420 787 OFFCURVE",
"441 765 OFFCURVE",
"475 765 CURVE SMOOTH",
"505 765 OFFCURVE",
"530 787 OFFCURVE",
"530 825 CURVE SMOOTH",
"530 863 OFFCURVE",
"509 885 OFFCURVE",
"475 885 CURVE SMOOTH"
);
}
);
};
components = (
{
name = A;
},
{
name = dieresis;
transform = "{1, 0, 0, 1, 115, 125}";
}
);
layerId = UUID0;
name = Regular;
width = 725;
},
{
components = (
{
name = A;
},
{
name = dieresis;
transform = "{1, 0, 0, 1, 136, 135}";
}
);
layerId = "26DC72AF-247A-4505-B175-40140B6BEEEF";
name = Bold;
width = 748;
}
);
leftKerningGroup = A;
rightKerningGroup = A;
unicode = 00C4;
},
{
glyphname = Amacron;
lastChange = "2015-07-10 21:27:09 +0000";
layers = (
{
background = {
paths = (
{
closed = 1;
nodes = (
"315 695 LINE",
"87 79 LINE",
"5 60 LINE",
"5 0 LINE",
"280 0 LINE",
"280 60 LINE",
"186 79 LINE",
"225 190 LINE",
"485 190 LINE",
"523 79 LINE",
"430 60 LINE",
"430 0 LINE",
"720 0 LINE",
"720 60 LINE",
"637 79 LINE",
"415 700 LINE"
);
},
{
closed = 1;
nodes = (
"458 270 LINE",
"252 270 LINE",
"357 571 LINE"
);
},
{
closed = 1;
nodes = (
"235 865 LINE",
"235 790 LINE",
"505 790 LINE",
"505 865 LINE"
);
}
);
};
components = (
{
name = A;
},
{
name = macron;
transform = "{1, 0, 0, 1, 230, 131}";
}
);
layerId = UUID0;
name = Regular;
width = 725;
},
{
components = (
{
name = A;
},
{
name = macron;
transform = "{1, 0, 0, 1, 243, 160}";
}
);
layerId = "26DC72AF-247A-4505-B175-40140B6BEEEF";
name = Bold;
width = 748;
}
);
leftKerningGroup = A;
rightKerningGroup = A;
unicode = 0100;
},
{
glyphname = Aogonek;
lastChange = "2015-07-10 21:27:30 +0000";
layers = (
{
layerId = UUID0;
name = Regular;
paths = (
{
closed = 1;
nodes = (
"610 -220 OFFCURVE",
"650 -200 OFFCURVE",
"650 -200 CURVE",
"640 -153 LINE",
"640 -153 OFFCURVE",
"615 -160 OFFCURVE",
"595 -160 CURVE SMOOTH",
"570 -160 OFFCURVE",
"550 -145 OFFCURVE",
"550 -115 CURVE SMOOTH",
"550 -57 OFFCURVE",
"650 -15 OFFCURVE",
"720 0 CURVE",
"720 59 LINE",
"638 75 LINE",
"415 700 LINE",
"315 695 LINE",
"87 79 LINE",
"5 60 LINE",
"5 0 LINE",
"280 0 LINE",
"280 60 LINE",
"186 79 LINE",
"225 190 LINE",
"485 190 LINE",
"523 79 LINE",
"430 60 LINE",
"430 0 LINE",
"580 0 LINE",
"550 -13 OFFCURVE",
"470 -55 OFFCURVE",
"470 -125 CURVE SMOOTH",
"470 -185 OFFCURVE",
"515 -220 OFFCURVE",
"570 -220 CURVE SMOOTH"
);
},
{
closed = 1;
nodes = (
"357 571 LINE",
"458 270 LINE",
"252 270 LINE"
);
}
);
width = 725;
},
{
layerId = "26DC72AF-247A-4505-B175-40140B6BEEEF";
name = Bold;
paths = (
{
closed = 1;
nodes = (
"640 -235 OFFCURVE",
"687 -210 OFFCURVE",
"687 -210 CURVE",
"670 -140 LINE",
"670 -140 OFFCURVE",
"644 -146 OFFCURVE",
"627 -146 CURVE SMOOTH",
"606 -146 OFFCURVE",
"590 -134 OFFCURVE",
"590 -110 CURVE SMOOTH",
"590 -51 OFFCURVE",
"743 0 OFFCURVE",
"743 0 CURVE",
"743 85 LINE",
"673 113 LINE",
"458 705 LINE",
"298 702 LINE",
"78 113 LINE",
"5 85 LINE",
"5 0 LINE",
"307 0 LINE",
"307 85 LINE",
"229 113 LINE",
"254 185 LINE",
"476 185 LINE",
"500 112 LINE",
"425 85 LINE",
"425 0 LINE",
"603 0 LINE",
"575 -12 OFFCURVE",
"475 -59 OFFCURVE",
"475 -135 CURVE SMOOTH",
"475 -203 OFFCURVE",
"525 -235 OFFCURVE",
"585 -235 CURVE SMOOTH"
);
},
{
closed = 1;
nodes = (
"368 529 LINE",
"443 292 LINE",
"289 292 LINE"
);
}
);
width = 758;
}
);
leftKerningGroup = A;
leftMetricsKey = A;
rightKerningGroup = A;
unicode = 0104;
},
{
glyphname = Aring;
lastChange = "2015-07-10 21:28:23 +0000";
layers = (
{
background = {
paths = (
{
closed = 1;
nodes = (
"308 910 OFFCURVE",
"250 866 OFFCURVE",
"250 795 CURVE SMOOTH",
"250 745 OFFCURVE",
"278 711 OFFCURVE",
"315 695 CURVE",
"87 79 LINE",
"5 60 LINE",
"5 0 LINE",
"280 0 LINE",
"280 60 LINE",
"186 79 LINE",
"225 190 LINE",
"485 190 LINE",
"523 79 LINE",
"430 60 LINE",
"430 0 LINE",
"720 0 LINE",
"720 60 LINE",
"637 79 LINE",
"416 697 LINE",
"452 714 OFFCURVE",
"480 750 OFFCURVE",
"480 800 CURVE SMOOTH",
"480 871 OFFCURVE",
"422 910 OFFCURVE",
"365 910 CURVE SMOOTH"
);
},
{
closed = 1;
nodes = (
"458 270 LINE",
"252 270 LINE",
"357 571 LINE"
);
},
{
closed = 1;
nodes = (
"400 860 OFFCURVE",
"420 838 OFFCURVE",
"420 798 CURVE SMOOTH",
"420 758 OFFCURVE",
"396 735 OFFCURVE",
"365 735 CURVE SMOOTH",
"330 735 OFFCURVE",
"310 757 OFFCURVE",
"310 797 CURVE SMOOTH",
"310 837 OFFCURVE",
"334 860 OFFCURVE",
"365 860 CURVE SMOOTH"
);
}
);
};
components = (
{
name = A;
},
{
name = ring;
transform = "{1, 0, 0, 1, 170, 89}";
}
);
layerId = UUID0;
name = Regular;
width = 725;
},
{
components = (
{
name = A;
},
{
name = ring;
transform = "{1, 0, 0, 1, 178, 78}";
}
);
layerId = "26DC72AF-247A-4505-B175-40140B6BEEEF";
name = Bold;
width = 748;
}
);
leftKerningGroup = A;
rightKerningGroup = A;
unicode = 00C5;
},
{
glyphname = Atilde;
lastChange = "2015-07-10 21:29:10 +0000";
layers = (
{
background = {
paths = (
{
closed = 1;
nodes = (
"315 695 LINE",
"87 79 LINE",
"5 60 LINE",
"5 0 LINE",
"280 0 LINE",
"280 60 LINE",
"186 79 LINE",
"225 190 LINE",
"485 190 LINE",
"523 79 LINE",
"430 60 LINE",
"430 0 LINE",
"720 0 LINE",
"720 60 LINE",
"637 79 LINE",
"415 700 LINE"
);
},
{
closed = 1;
nodes = (
"458 270 LINE",
"252 270 LINE",
"357 571 LINE"
);
}
);
};
components = (
{
name = A;
}
);
layerId = UUID0;
name = Regular;
paths = (
{
closed = 1;
nodes = (
"553 766 OFFCURVE",
"588 856 OFFCURVE",
"588 856 CURVE",
"553 886 LINE",
"553 886 OFFCURVE",
"528 844 OFFCURVE",
"488 844 CURVE SMOOTH",
"428 844 OFFCURVE",
"383 890 OFFCURVE",
"313 890 CURVE SMOOTH",
"243 890 OFFCURVE",
"203 796 OFFCURVE",
"203 796 CURVE",
"238 766 LINE",
"238 766 OFFCURVE",
"268 810 OFFCURVE",
"308 810 CURVE SMOOTH",
"368 810 OFFCURVE",
"413 766 OFFCURVE",
"483 766 CURVE SMOOTH"
);
}
);
width = 725;
},
{
components = (
{
name = A;
}
);
guideLines = (
{
position = "{611, 926}";
}
);
layerId = "26DC72AF-247A-4505-B175-40140B6BEEEF";
name = Bold;
paths = (
{
closed = 1;
nodes = (
"551 776 OFFCURVE",
"603 880 OFFCURVE",
"603 880 CURVE",
"548 922 LINE",
"548 922 OFFCURVE",
"518 880 OFFCURVE",
"479 880 CURVE SMOOTH",
"419 880 OFFCURVE",
"375 926 OFFCURVE",
"305 926 CURVE SMOOTH",
"222 926 OFFCURVE",
"180 816 OFFCURVE",
"180 816 CURVE",
"228 777 LINE",
"228 777 OFFCURVE",
"258 815 OFFCURVE",
"300 815 CURVE SMOOTH",
"360 815 OFFCURVE",
"398 776 OFFCURVE",
"468 776 CURVE SMOOTH"
);
}
);
width = 758;
}
);
leftKerningGroup = A;
rightKerningGroup = A;
unicode = 00C3;
},
{
glyphname = AE;
lastChange = "2015-07-10 21:29:21 +0000";
layers = (
{
layerId = UUID0;
name = Regular;
paths = (
{
closed = 1;
nodes = (
"275 0 LINE",
"275 60 LINE",
"197 77 LINE",
"260 205 LINE",
"480 205 LINE",
"480 80 LINE",
"390 60 LINE",
"390 0 LINE",
"899 0 LINE",
"899 180 LINE",
"834 180 LINE",
"814 80 LINE",
"585 80 LINE",
"585 325 LINE",
"814 325 LINE",
"814 405 LINE",
"585 405 LINE",
"585 620 LINE",
"799 620 LINE",
"824 530 LINE",
"889 530 LINE",
"889 700 LINE",
"412 700 LINE",
"286 695 LINE",
"286 640 LINE",
"371 620 LINE",
"94 80 LINE",
"5 60 LINE",
"5 0 LINE"
);
},
{
closed = 1;
nodes = (
"465 620 LINE",
"480 620 LINE",
"480 285 LINE",
"300 285 LINE"
);
}
);
width = 959;
},
{
layerId = "26DC72AF-247A-4505-B175-40140B6BEEEF";
name = Bold;
paths = (
{
closed = 1;
nodes = (
"303 0 LINE",
"303 85 LINE",
"242 111 LINE",
"281 192 LINE",
"474 192 LINE",
"474 115 LINE",
"400 85 LINE",
"400 0 LINE",
"921 0 LINE",
"921 202 LINE",
"829 202 LINE",
"806 120 LINE",
"629 120 LINE",
"629 310 LINE",
"831 310 LINE",
"831 420 LINE",
"629 420 LINE",
"629 585 LINE",
"791 585 LINE",
"816 510 LINE",
"909 510 LINE",
"909 705 LINE",
"424 705 LINE",
"233 700 LINE",
"233 615 LINE",
"318 585 LINE",
"89 115 LINE",
"5 85 LINE",
"5 0 LINE"
);
},
{
closed = 1;
nodes = (
"460 585 LINE",
"474 585 LINE",
"474 300 LINE",
"328 300 LINE"
);
}
);
width = 971;
}
);
leftKerningGroup = A;
rightKerningGroup = E;
unicode = 00C6;
},
{
glyphname = B;
lastChange = "2015-07-10 20:21:37 +0000";
layers = (
{
layerId = UUID0;
name = Regular;
paths = (
{
closed = 1;
nodes = (
"325 0 LINE SMOOTH",
"490 0 OFFCURVE",
"580 60 OFFCURVE",
"580 200 CURVE SMOOTH",
"580 280 OFFCURVE",
"530 339 OFFCURVE",
"425 363 CURVE",
"509 384 OFFCURVE",
"555 435 OFFCURVE",
"555 525 CURVE SMOOTH",
"555 645 OFFCURVE",
"465 700 OFFCURVE",
"340 700 CURVE SMOOTH",
"225 700 LINE",
"40 695 LINE",
"40 640 LINE",
"125 620 LINE",
"125 80 LINE",
"40 60 LINE",
"40 0 LINE"
);
},
{
closed = 1;
nodes = (
"225 325 LINE",
"300 325 LINE",
"410 325 OFFCURVE",
"475 295 OFFCURVE",
"475 195 CURVE SMOOTH",
"475 120 OFFCURVE",
"425 80 OFFCURVE",
"330 80 CURVE SMOOTH",
"225 80 LINE"
);
},
{
closed = 1;
nodes = (
"225 620 LINE",
"335 620 LINE",
"400 620 OFFCURVE",
"450 585 OFFCURVE",
"450 515 CURVE SMOOTH",
"450 435 OFFCURVE",
"390 400 OFFCURVE",
"300 400 CURVE SMOOTH",
"225 400 LINE"
);
}
);
width = 630;
},
{
layerId = "26DC72AF-247A-4505-B175-40140B6BEEEF";
name = Bold;
paths = (
{
closed = 1;
nodes = (
"353 0 LINE SMOOTH",
"515 0 OFFCURVE",
"613 60 OFFCURVE",
"613 207 CURVE SMOOTH",
"613 284 OFFCURVE",
"564 340 OFFCURVE",
"470 367 CURVE",
"549 392 OFFCURVE",
"590 445 OFFCURVE",
"590 532 CURVE SMOOTH",
"590 650 OFFCURVE",
"500 705 OFFCURVE",
"370 705 CURVE SMOOTH",
"265 705 LINE",
"35 700 LINE",
"35 615 LINE",
"110 585 LINE",
"110 115 LINE",
"35 85 LINE",
"35 0 LINE"
);
},
{
closed = 1;
nodes = (
"265 312 LINE",
"323 312 LINE",
"413 312 OFFCURVE",
"455 280 OFFCURVE",
"455 207 CURVE SMOOTH",
"455 152 OFFCURVE",
"418 120 OFFCURVE",
"348 120 CURVE SMOOTH",
"265 120 LINE"
);
},
{
closed = 1;
nodes = (
"265 585 LINE",
"350 585 LINE SMOOTH",
"398 585 OFFCURVE",
"435 562 OFFCURVE",
"435 510 CURVE SMOOTH",
"435 448 OFFCURVE",
"396 417 OFFCURVE",
"323 417 CURVE SMOOTH",
"265 417 LINE"
);
}
);
width = 658;
}
);
rightKerningGroup = B;
unicode = 0042;
},
{
glyphname = C;
lastChange = "2015-07-10 20:21:37 +0000";
layers = (
{
layerId = UUID0;
name = Regular;
paths = (
{
closed = 1;
nodes = (
"530 -10 OFFCURVE",
"630 95 OFFCURVE",
"630 95 CURVE",
"590 160 LINE",
"590 160 OFFCURVE",
"495 80 OFFCURVE",
"390 80 CURVE SMOOTH",
"265 80 OFFCURVE",
"175 160 OFFCURVE",
"175 340 CURVE SMOOTH",
"175 525 OFFCURVE",
"250 625 OFFCURVE",
"385 625 CURVE SMOOTH",
"460 625 OFFCURVE",
"513 605 OFFCURVE",
"513 605 CURVE",
"540 490 LINE",
"615 490 LINE",
"620 660 LINE",
"620 660 OFFCURVE",
"505 710 OFFCURVE",
"395 710 CURVE SMOOTH",
"190 710 OFFCURVE",
"60 565 OFFCURVE",
"60 335 CURVE SMOOTH",
"60 110 OFFCURVE",
"180 -10 OFFCURVE",
"380 -10 CURVE SMOOTH"
);
}
);
width = 665;
},
{
layerId = "26DC72AF-247A-4505-B175-40140B6BEEEF";
name = Bold;
paths = (
{
closed = 1;
nodes = (
"532 -12 OFFCURVE",
"637 97 OFFCURVE",
"637 97 CURVE",
"582 187 LINE",
"582 187 OFFCURVE",
"492 117 OFFCURVE",
"392 117 CURVE SMOOTH",
"287 117 OFFCURVE",
"222 185 OFFCURVE",
"222 347 CURVE SMOOTH",
"222 514 OFFCURVE",
"282 592 OFFCURVE",
"387 592 CURVE SMOOTH",
"452 592 OFFCURVE",
"499 576 OFFCURVE",
"499 576 CURVE",
"522 480 LINE",
"620 480 LINE",
"625 670 LINE",
"625 670 OFFCURVE",
"513 717 OFFCURVE",
"392 717 CURVE SMOOTH",
"187 717 OFFCURVE",
"55 577 OFFCURVE",
"55 342 CURVE SMOOTH",
"55 110 OFFCURVE",
"172 -12 OFFCURVE",
"375 -12 CURVE SMOOTH"
);
}
);
width = 667;
}
);
leftKerningGroup = O;
rightKerningGroup = C;
unicode = 0043;
},
{
glyphname = Ccedilla;
lastChange = "2015-07-10 21:29:28 +0000";
layers = (
{
layerId = UUID0;
name = Regular;
paths = (
{
closed = 1;
nodes = (
"460 -220 OFFCURVE",
"510 -185 OFFCURVE",
"510 -133 CURVE SMOOTH",
"510 -82 OFFCURVE",
"476 -53 OFFCURVE",
"425 -44 CURVE",
"425 -7 LINE",
"549 11 OFFCURVE",
"630 95 OFFCURVE",
"630 95 CURVE",
"590 160 LINE",
"590 160 OFFCURVE",
"495 80 OFFCURVE",
"390 80 CURVE SMOOTH",
"265 80 OFFCURVE",
"175 160 OFFCURVE",
"175 340 CURVE SMOOTH",
"175 525 OFFCURVE",
"250 625 OFFCURVE",
"385 625 CURVE SMOOTH",
"460 625 OFFCURVE",
"513 605 OFFCURVE",
"513 605 CURVE",
"540 491 LINE",
"615 491 LINE",
"620 660 LINE",
"620 660 OFFCURVE",
"505 710 OFFCURVE",
"395 710 CURVE SMOOTH",
"190 710 OFFCURVE",
"60 565 OFFCURVE",
"60 335 CURVE SMOOTH",
"60 117 OFFCURVE",
"172 -1 OFFCURVE",
"360 -9 CURVE",
"360 -80 LINE",
"410 -80 OFFCURVE",
"440 -100 OFFCURVE",
"440 -130 CURVE SMOOTH",
"440 -155 OFFCURVE",
"420 -170 OFFCURVE",
"395 -170 CURVE SMOOTH",
"355 -170 OFFCURVE",
"309 -147 OFFCURVE",
"309 -147 CURVE",
"283 -189 LINE",
"283 -189 OFFCURVE",
"335 -220 OFFCURVE",
"400 -220 CURVE SMOOTH"
);
}
);
width = 665;
},
{
layerId = "26DC72AF-247A-4505-B175-40140B6BEEEF";
name = Bold;
paths = (
{
closed = 1;
nodes = (
"459 -234 OFFCURVE",
"513 -193 OFFCURVE",
"513 -134 CURVE SMOOTH",
"513 -84 OFFCURVE",
"479 -54 OFFCURVE",
"428 -44 CURVE",
"428 -8 LINE",
"555 12 OFFCURVE",
"637 97 OFFCURVE",
"637 97 CURVE",
"582 187 LINE",
"582 187 OFFCURVE",
"492 117 OFFCURVE",
"392 117 CURVE SMOOTH",
"287 117 OFFCURVE",
"222 185 OFFCURVE",
"222 347 CURVE SMOOTH",
"222 514 OFFCURVE",
"282 592 OFFCURVE",
"387 592 CURVE SMOOTH",
"452 592 OFFCURVE",
"499 576 OFFCURVE",
"499 576 CURVE",
"522 480 LINE",
"620 480 LINE",
"625 670 LINE",
"625 670 OFFCURVE",
"513 717 OFFCURVE",
"392 717 CURVE SMOOTH",
"187 717 OFFCURVE",
"55 577 OFFCURVE",
"55 342 CURVE SMOOTH",
"55 123 OFFCURVE",
"159 2 OFFCURVE",
"340 -10 CURVE",
"340 -87 LINE",
"389 -87 OFFCURVE",
"422 -101 OFFCURVE",
"422 -130 CURVE SMOOTH",
"422 -152 OFFCURVE",
"404 -167 OFFCURVE",
"376 -167 CURVE SMOOTH",
"336 -167 OFFCURVE",
"294 -144 OFFCURVE",
"294 -144 CURVE",
"262 -200 LINE",
"262 -200 OFFCURVE",
"319 -234 OFFCURVE",
"387 -234 CURVE SMOOTH"
);
}
);
width = 667;
}
);
leftKerningGroup = O;
rightKerningGroup = C;
unicode = 00C7;
},
{
glyphname = Ccircumflex;
lastChange = "2015-07-10 21:29:43 +0000";
layers = (
{
background = {
paths = (
{
closed = 1;
nodes = (
"190 710 OFFCURVE",
"60 565 OFFCURVE",
"60 335 CURVE SMOOTH",
"60 110 OFFCURVE",
"180 -10 OFFCURVE",
"380 -10 CURVE SMOOTH",
"530 -10 OFFCURVE",
"630 95 OFFCURVE",
"630 95 CURVE",
"590 160 LINE",
"590 160 OFFCURVE",
"495 80 OFFCURVE",
"390 80 CURVE SMOOTH",
"265 80 OFFCURVE",
"175 160 OFFCURVE",
"175 340 CURVE SMOOTH",
"175 525 OFFCURVE",
"250 625 OFFCURVE",
"385 625 CURVE SMOOTH",
"460 625 OFFCURVE",
"513 605 OFFCURVE",
"513 605 CURVE",
"540 491 LINE",
"615 491 LINE",
"620 660 LINE",
"620 660 OFFCURVE",
"505 710 OFFCURVE",
"395 710 CURVE SMOOTH"
);
},
{
closed = 1;
nodes = (
"350 915 LINE",
"205 795 LINE",
"245 750 LINE",
"382 843 LINE",
"515 750 LINE",
"555 795 LINE",
"410 920 LINE"
);
}
);
};
components = (
{
name = C;
},
{
name = circumflex;
transform = "{1, 0, 0, 1, 120, 101}";
}
);
layerId = UUID0;
name = Regular;
width = 665;
},
{
components = (
{
name = C;
},
{
name = circumflex;
transform = "{1, 0, 0, 1, 95, 107}";
}
);
layerId = "26DC72AF-247A-4505-B175-40140B6BEEEF";
name = Bold;
width = 667;
}
);
leftKerningGroup = O;
rightKerningGroup = C;
unicode = 0108;
},
{
glyphname = Cdotaccent;
lastChange = "2015-07-10 21:30:03 +0000";
layers = (
{
background = {
paths = (
{
closed = 1;
nodes = (
"190 710 OFFCURVE",
"60 565 OFFCURVE",
"60 335 CURVE SMOOTH",
"60 110 OFFCURVE",
"180 -10 OFFCURVE",
"380 -10 CURVE SMOOTH",
"530 -10 OFFCURVE",
"630 95 OFFCURVE",
"630 95 CURVE",
"590 160 LINE",
"590 160 OFFCURVE",
"495 80 OFFCURVE",
"390 80 CURVE SMOOTH",
"265 80 OFFCURVE",
"175 160 OFFCURVE",
"175 340 CURVE SMOOTH",
"175 525 OFFCURVE",
"250 625 OFFCURVE",
"385 625 CURVE SMOOTH",
"460 625 OFFCURVE",
"513 605 OFFCURVE",
"513 605 CURVE",
"540 491 LINE",
"615 491 LINE",
"620 660 LINE",
"620 660 OFFCURVE",
"505 710 OFFCURVE",
"395 710 CURVE SMOOTH"
);
},
{
closed = 1;
nodes = (
"355 885 OFFCURVE",
"330 863 OFFCURVE",
"330 825 CURVE SMOOTH",
"330 787 OFFCURVE",
"351 765 OFFCURVE",
"385 765 CURVE SMOOTH",
"415 765 OFFCURVE",
"440 787 OFFCURVE",
"440 825 CURVE SMOOTH",
"440 863 OFFCURVE",
"419 885 OFFCURVE",
"385 885 CURVE SMOOTH"
);
}
);
};
components = (
{
name = C;
},
{
name = dotaccent;
transform = "{1, 0, 0, 1, 240, 124}";
}
);
guideLines = (
{
position = "{515, 765}";
}
);
layerId = UUID0;
name = Regular;
width = 665;
},
{
components = (
{
name = C;
},
{
name = dotaccent;
transform = "{1, 0, 0, 1, 225, 0}";
}
);
guideLines = (
{
position = "{537, 769}";
}
);
layerId = "26DC72AF-247A-4505-B175-40140B6BEEEF";
name = Bold;
width = 667;
}
);
leftKerningGroup = O;
rightKerningGroup = C;
unicode = 010A;
},
{
glyphname = D;
lastChange = "2015-07-10 20:21:37 +0000";
layers = (
{
layerId = UUID0;
name = Regular;
paths = (
{
closed = 1;
nodes = (
"345 0 LINE SMOOTH",
"545 0 OFFCURVE",
"675 140 OFFCURVE",
"675 360 CURVE SMOOTH",
"675 580 OFFCURVE",
"555 700 OFFCURVE",
"360 700 CURVE SMOOTH",
"235 700 LINE",
"45 695 LINE",
"45 640 LINE",
"130 620 LINE",
"130 80 LINE",
"45 60 LINE",
"45 0 LINE"
);
},
{
closed = 1;
nodes = (
"235 620 LINE",
"355 620 LINE SMOOTH",
"480 620 OFFCURVE",
"560 540 OFFCURVE",
"560 355 CURVE SMOOTH",
"560 165 OFFCURVE",
"475 80 OFFCURVE",
"350 80 CURVE SMOOTH",
"235 80 LINE"
);
}
);
width = 730;
},
{
layerId = "26DC72AF-247A-4505-B175-40140B6BEEEF";
name = Bold;
paths = (
{
closed = 1;
nodes = (
"350 0 LINE SMOOTH",
"553 0 OFFCURVE",
"683 137 OFFCURVE",
"683 362 CURVE SMOOTH",
"683 587 OFFCURVE",
"565 705 OFFCURVE",
"365 705 CURVE SMOOTH",
"270 705 LINE",
"40 700 LINE",
"40 615 LINE",
"115 585 LINE",
"115 115 LINE",
"40 85 LINE",
"40 0 LINE"
);
},
{
closed = 1;
nodes = (
"270 585 LINE",
"360 585 LINE SMOOTH",
"458 585 OFFCURVE",
"515 525 OFFCURVE",
"515 357 CURVE SMOOTH",
"515 177 OFFCURVE",
"450 120 OFFCURVE",
"353 120 CURVE SMOOTH",
"270 120 LINE"
);
}
);
width = 733;
}
);
leftKerningGroup = H;
rightKerningGroup = O;
unicode = 0044;
},
{
glyphname = Eth;
lastChange = "2015-07-10 21:30:15 +0000";
layers = (
{
layerId = UUID0;
name = Regular;
paths = (
{
closed = 1;
nodes = (
"348 0 LINE SMOOTH",
"548 0 OFFCURVE",
"678 140 OFFCURVE",
"678 360 CURVE SMOOTH",
"678 580 OFFCURVE",
"558 700 OFFCURVE",
"363 700 CURVE SMOOTH",
"235 700 LINE",
"45 695 LINE",
"45 640 LINE",
"130 620 LINE",
"130 409 LINE",
"45 409 LINE",
"45 330 LINE",
"130 330 LINE",
"130 80 LINE",
"45 60 LINE",
"45 0 LINE"
);
},
{
closed = 1;
nodes = (
"234 330 LINE",
"390 330 LINE",
"390 409 LINE",
"234 409 LINE",
"234 620 LINE",
"358 620 LINE",
"483 620 OFFCURVE",
"563 540 OFFCURVE",
"563 355 CURVE SMOOTH",
"563 165 OFFCURVE",
"478 80 OFFCURVE",
"353 80 CURVE SMOOTH",
"234 80 LINE"
);
}
);
width = 738;
},
{
layerId = "26DC72AF-247A-4505-B175-40140B6BEEEF";
name = Bold;
paths = (
{
closed = 1;
nodes = (
"354 0 LINE SMOOTH",
"556 0 OFFCURVE",
"686 137 OFFCURVE",
"686 362 CURVE SMOOTH",
"686 587 OFFCURVE",
"569 705 OFFCURVE",
"369 705 CURVE SMOOTH",
"270 705 LINE",
"40 700 LINE",
"40 615 LINE",
"115 585 LINE",
"115 422 LINE",
"47 422 LINE",
"47 312 LINE",
"115 312 LINE",
"115 115 LINE",
"40 85 LINE",
"40 0 LINE"
);
},
{
closed = 1;
nodes = (
"269 312 LINE",
"390 312 LINE",
"390 422 LINE",
"269 422 LINE",
"269 585 LINE",
"364 585 LINE SMOOTH",
"461 585 OFFCURVE",
"519 525 OFFCURVE",
"519 357 CURVE SMOOTH",
"519 177 OFFCURVE",
"454 120 OFFCURVE",
"356 120 CURVE SMOOTH",
"269 120 LINE"
);
}
);
width = 741;
}
);
leftKerningGroup = H;
rightKerningGroup = O;
unicode = 00D0;
},
{
glyphname = Dcroat;
lastChange = "2015-07-10 21:35:07 +0000";
layers = (
{
layerId = UUID0;
name = Regular;
paths = (
{
closed = 1;
nodes = (
"348 0 LINE SMOOTH",
"548 0 OFFCURVE",
"678 140 OFFCURVE",
"678 360 CURVE SMOOTH",
"678 580 OFFCURVE",
"558 700 OFFCURVE",
"363 700 CURVE SMOOTH",
"235 700 LINE",
"45 695 LINE",
"45 640 LINE",
"130 620 LINE",
"130 410 LINE",
"45 410 LINE",
"45 330 LINE",
"130 330 LINE",
"130 80 LINE",
"45 60 LINE",
"45 0 LINE"
);
},
{
closed = 1;
nodes = (
"234 330 LINE",
"390 330 LINE",
"390 410 LINE",
"234 410 LINE",
"234 620 LINE",
"358 620 LINE SMOOTH",
"483 620 OFFCURVE",
"563 540 OFFCURVE",
"563 355 CURVE SMOOTH",
"563 165 OFFCURVE",
"478 80 OFFCURVE",
"353 80 CURVE SMOOTH",
"234 80 LINE"
);
}
);
width = 738;
},
{
guideLines = (
{
angle = 90;
position = "{57, 484}";
}
);
layerId = "26DC72AF-247A-4505-B175-40140B6BEEEF";
name = Bold;
paths = (
{
closed = 1;
nodes = (
"354 0 LINE SMOOTH",
"556 0 OFFCURVE",
"686 137 OFFCURVE",
"686 362 CURVE SMOOTH",
"686 587 OFFCURVE",
"569 705 OFFCURVE",
"369 705 CURVE SMOOTH",
"270 705 LINE",
"40 700 LINE",
"40 615 LINE",
"115 585 LINE",
"115 422 LINE",
"47 422 LINE",
"47 312 LINE",
"115 312 LINE",
"115 115 LINE",
"40 85 LINE",
"40 0 LINE"
);
},
{
closed = 1;
nodes = (
"269 312 LINE",
"390 312 LINE",
"390 422 LINE",
"269 422 LINE",
"269 585 LINE",
"364 585 LINE SMOOTH",
"461 585 OFFCURVE",
"519 525 OFFCURVE",
"519 357 CURVE SMOOTH",
"519 177 OFFCURVE",
"454 120 OFFCURVE",
"356 120 CURVE SMOOTH",
"269 120 LINE"
);
}
);
width = 741;
}
);
leftKerningGroup = H;
rightKerningGroup = O;
unicode = 0110;
},
{
glyphname = E;
lastChange = "2015-07-10 20:21:37 +0000";
layers = (
{
guideLines = (
{
position = "{188, 80}";
}
);
layerId = UUID0;
name = Regular;
paths = (
{
closed = 1;
nodes = (
"555 0 LINE",
"555 180 LINE",
"490 180 LINE",
"470 80 LINE",
"240 80 LINE",
"240 325 LINE",
"470 325 LINE",
"470 405 LINE",
"240 405 LINE",
"240 620 LINE",
"455 620 LINE",
"480 530 LINE",
"545 530 LINE",
"545 700 LINE",
"240 700 LINE",
"50 695 LINE",
"50 640 LINE",
"135 620 LINE",
"135 80 LINE",
"50 60 LINE",
"50 0 LINE"
);
}
);
width = 615;
},
{
layerId = "26DC72AF-247A-4505-B175-40140B6BEEEF";
name = Bold;
paths = (
{
closed = 1;
nodes = (
"567 0 LINE",
"567 202 LINE",
"477 202 LINE",
"454 120 LINE",
"275 120 LINE",
"275 310 LINE",
"477 310 LINE",
"477 420 LINE",
"275 420 LINE",
"275 585 LINE",
"440 585 LINE",
"465 512 LINE",
"555 512 LINE",
"555 705 LINE",
"275 705 LINE",
"45 700 LINE",
"45 615 LINE",
"120 585 LINE",
"120 115 LINE",
"45 85 LINE",
"45 0 LINE"
);
}
);
width = 622;
}
);
leftKerningGroup = E;
rightKerningGroup = E;
unicode = 0045;
},
{
glyphname = Ebreve;
lastChange = "2015-07-10 17:16:23 +0000";
layers = (
{
background = {
paths = (
{
closed = 1;
nodes = (
"455 620 LINE",
"480 530 LINE",
"545 530 LINE",
"545 700 LINE",
"240 700 LINE",
"50 695 LINE",
"50 640 LINE",
"135 620 LINE",
"135 80 LINE",
"50 60 LINE",
"50 0 LINE",
"555 0 LINE",
"555 180 LINE",
"490 180 LINE",
"470 80 LINE",
"240 80 LINE",
"240 325 LINE",
"470 325 LINE",
"470 405 LINE",
"240 405 LINE",
"240 620 LINE"
);
},
{
closed = 1;
nodes = (
"410 905 LINE",
"410 905 OFFCURVE",
"405 835 OFFCURVE",
"330 835 CURVE SMOOTH",
"260 835 OFFCURVE",
"250 910 OFFCURVE",
"250 910 CURVE",
"190 905 LINE",
"190 820 OFFCURVE",
"255 760 OFFCURVE",
"325 760 CURVE SMOOTH",
"405 760 OFFCURVE",
"470 820 OFFCURVE",
"470 910 CURVE"
);
}
);
};
components = (
{
disableAlignment = 1;
name = E;
},
{
disableAlignment = 1;
name = breve;
transform = "{1, 0, 0, 1, 110, 145}";
}
);
guideLines = (
{
position = "{279, 760}";
}
);
layerId = UUID0;
name = Regular;
width = 615;
},
{
components = (
{
name = E;
},
{
name = breve;
transform = "{1, 0, 0, 1, 105, 167}";
}
);
guideLines = (
{
position = "{192, 763}";
}
);
layerId = "26DC72AF-247A-4505-B175-40140B6BEEEF";
name = Bold;
width = 622;
}
);
leftKerningGroup = E;
rightKerningGroup = E;
unicode = 0114;
},
{
glyphname = Ecircumflex;
lastChange = "2015-07-10 21:35:21 +0000";
layers = (
{
background = {
paths = (
{
closed = 1;
nodes = (
"240 700 LINE",
"50 695 LINE",
"50 640 LINE",
"135 620 LINE",
"135 80 LINE",
"50 60 LINE",
"50 0 LINE",
"555 0 LINE",
"555 180 LINE",
"490 180 LINE",
"470 80 LINE",
"240 80 LINE",
"240 325 LINE",
"470 325 LINE",
"470 405 LINE",
"240 405 LINE",
"240 620 LINE",
"455 620 LINE",
"480 530 LINE",
"545 530 LINE",
"545 700 LINE"
);
},
{
closed = 1;
nodes = (
"280 915 LINE",
"135 795 LINE",
"175 750 LINE",
"312 843 LINE",
"445 750 LINE",
"485 795 LINE",
"340 920 LINE"
);
}
);
};
components = (
{
name = E;
},
{
name = circumflex;
transform = "{1, 0, 0, 1, 50, 100}";
}
);
layerId = UUID0;
name = Regular;
width = 615;
},
{
components = (
{
name = E;
},
{
name = circumflex;
transform = "{1, 0, 0, 1, 57, 107}";
}
);
layerId = "26DC72AF-247A-4505-B175-40140B6BEEEF";
name = Bold;
width = 622;
}
);
leftKerningGroup = E;
rightKerningGroup = E;
unicode = 00CA;
},
{
glyphname = Edotaccent;
lastChange = "2015-07-10 21:35:36 +0000";
layers = (
{
background = {
paths = (
{
closed = 1;
nodes = (
"240 700 LINE",
"50 695 LINE",
"50 640 LINE",
"135 620 LINE",
"135 80 LINE",
"50 60 LINE",
"50 0 LINE",
"555 0 LINE",
"555 180 LINE",
"490 180 LINE",
"470 80 LINE",
"240 80 LINE",
"240 325 LINE",
"470 325 LINE",
"470 405 LINE",
"240 405 LINE",
"240 620 LINE",
"455 620 LINE",
"480 530 LINE",
"545 530 LINE",
"545 700 LINE"
);
},
{
closed = 1;
nodes = (
"285 885 OFFCURVE",
"260 863 OFFCURVE",
"260 825 CURVE SMOOTH",
"260 787 OFFCURVE",
"281 765 OFFCURVE",
"315 765 CURVE SMOOTH",
"345 765 OFFCURVE",
"370 787 OFFCURVE",
"370 825 CURVE SMOOTH",
"370 863 OFFCURVE",
"349 885 OFFCURVE",
"315 885 CURVE SMOOTH"
);
}
);
};
components = (
{
name = E;
},
{
name = dotaccent;
transform = "{1, 0, 0, 1, 170, 125}";
}
);
layerId = UUID0;
name = Regular;
width = 615;
},
{
components = (
{
name = E;
},
{
name = dotaccent;
transform = "{1, 0, 0, 1, 164, 0}";
}
);
layerId = "26DC72AF-247A-4505-B175-40140B6BEEEF";
name = Bold;
width = 622;
}
);
leftKerningGroup = E;
rightKerningGroup = E;
unicode = 0116;
},
{
glyphname = Emacron;
lastChange = "2015-07-10 21:35:57 +0000";
layers = (
{
background = {
paths = (
{
closed = 1;
nodes = (
"240 700 LINE",
"50 695 LINE",
"50 640 LINE",
"135 620 LINE",
"135 80 LINE",
"50 60 LINE",
"50 0 LINE",
"555 0 LINE",
"555 180 LINE",
"490 180 LINE",
"470 80 LINE",
"240 80 LINE",
"240 325 LINE",
"470 325 LINE",
"470 405 LINE",
"240 405 LINE",
"240 620 LINE",
"455 620 LINE",
"480 530 LINE",
"545 530 LINE",
"545 700 LINE"
);
},
{
closed = 1;
nodes = (
"200 865 LINE",
"200 790 LINE",
"470 790 LINE",
"470 865 LINE"
);
}
);
};
components = (
{
name = E;
},
{
name = macron;
transform = "{1, 0, 0, 1, 195, 130}";
}
);
layerId = UUID0;
name = Regular;
width = 615;
},
{
components = (
{
name = E;
},
{
name = macron;
transform = "{1, 0, 0, 1, 173, 160}";
}
);
layerId = "26DC72AF-247A-4505-B175-40140B6BEEEF";
name = Bold;
width = 622;
}
);
leftKerningGroup = E;
rightKerningGroup = E;
unicode = 0112;
},
{
glyphname = Eogonek;
lastChange = "2015-07-10 21:36:26 +0000";
layers = (
{
layerId = UUID0;
name = Regular;
paths = (
{
closed = 1;
nodes = (
"510 -220 OFFCURVE",
"550 -200 OFFCURVE",
"550 -200 CURVE",
"540 -153 LINE",
"540 -153 OFFCURVE",
"515 -160 OFFCURVE",
"495 -160 CURVE SMOOTH",
"470 -160 OFFCURVE",
"450 -145 OFFCURVE",
"450 -115 CURVE SMOOTH",
"450 -55 OFFCURVE",
"555 0 OFFCURVE",
"555 0 CURVE",
"555 180 LINE",
"490 180 LINE",
"470 80 LINE",
"240 80 LINE",
"240 325 LINE",
"470 325 LINE",
"470 405 LINE",
"240 405 LINE",
"240 620 LINE",
"455 620 LINE",
"480 530 LINE",
"545 530 LINE",
"545 700 LINE",
"240 700 LINE",
"50 695 LINE",
"50 640 LINE",
"135 620 LINE",
"135 80 LINE",
"50 60 LINE",
"50 0 LINE",
"465 0 LINE",
"465 0 OFFCURVE",
"370 -45 OFFCURVE",
"370 -125 CURVE SMOOTH",
"370 -185 OFFCURVE",
"415 -220 OFFCURVE",
"470 -220 CURVE SMOOTH"
);
}
);
width = 615;
},
{
layerId = "26DC72AF-247A-4505-B175-40140B6BEEEF";
name = Bold;
paths = (
{
closed = 1;
nodes = (
"511 -235 OFFCURVE",
"558 -210 OFFCURVE",
"558 -210 CURVE",
"541 -140 LINE",
"541 -140 OFFCURVE",
"514 -146 OFFCURVE",
"498 -146 CURVE SMOOTH",
"477 -146 OFFCURVE",
"461 -134 OFFCURVE",
"461 -110 CURVE SMOOTH",
"461 -61 OFFCURVE",
"567 0 OFFCURVE",
"567 0 CURVE",
"567 202 LINE",
"477 202 LINE",
"454 120 LINE",
"275 120 LINE",
"275 310 LINE",
"477 310 LINE",
"477 420 LINE",
"275 420 LINE",
"275 585 LINE",
"440 585 LINE",
"465 512 LINE",
"555 512 LINE",
"555 705 LINE",
"275 705 LINE",
"45 700 LINE",
"45 615 LINE",
"120 585 LINE",
"120 115 LINE",
"45 85 LINE",
"45 0 LINE",
"447 0 LINE",
"447 0 OFFCURVE",
"346 -49 OFFCURVE",
"346 -135 CURVE SMOOTH",
"346 -203 OFFCURVE",
"396 -235 OFFCURVE",
"456 -235 CURVE SMOOTH"
);
}
);
width = 622;
}
);
leftKerningGroup = E;
rightKerningGroup = E;
unicode = 0118;
},
{
glyphname = F;
lastChange = "2015-07-10 20:21:37 +0000";
layers = (
{
layerId = UUID0;
name = Regular;
paths = (
{
closed = 1;
nodes = (
"330 0 LINE",
"330 60 LINE",
"230 80 LINE",
"230 315 LINE",
"460 315 LINE",
"460 395 LINE",
"230 395 LINE",
"230 620 LINE",
"445 620 LINE",
"470 535 LINE",
"535 535 LINE",
"535 700 LINE",
"230 700 LINE",
"40 695 LINE",
"40 640 LINE",
"125 620 LINE",
"125 80 LINE",
"40 60 LINE",
"40 0 LINE"
);
}
);
width = 570;
},
{
layerId = "26DC72AF-247A-4505-B175-40140B6BEEEF";
name = Bold;
paths = (
{
closed = 1;
nodes = (
"367 0 LINE",
"367 85 LINE",
"275 115 LINE",
"275 300 LINE",
"482 300 LINE",
"482 410 LINE",
"275 410 LINE",
"275 585 LINE",
"437 585 LINE",
"462 515 LINE",
"555 515 LINE",
"555 705 LINE",
"275 705 LINE",
"45 700 LINE",
"45 615 LINE",
"120 585 LINE",
"120 115 LINE",
"45 85 LINE",
"45 0 LINE"
);
}
);
width = 580;
}
);
leftKerningGroup = H;
rightKerningGroup = F;
unicode = 0046;
},
{
glyphname = G;
lastChange = "2015-07-10 20:21:37 +0000";
layers = (
{
layerId = UUID0;
name = Regular;
paths = (
{
closed = 1;
nodes = (
"529 -10 OFFCURVE",
"635 50 OFFCURVE",
"635 50 CURVE",
"635 264 LINE",
"710 284 LINE",
"710 344 LINE",
"450 339 LINE",
"450 284 LINE",
"535 264 LINE",
"535 100 LINE",
"535 100 OFFCURVE",
"465 75 OFFCURVE",
"395 75 CURVE SMOOTH",
"265 75 OFFCURVE",
"175 160 OFFCURVE",
"175 340 CURVE SMOOTH",
"175 525 OFFCURVE",
"250 625 OFFCURVE",
"385 625 CURVE SMOOTH",
"460 625 OFFCURVE",
"520 605 OFFCURVE",
"520 605 CURVE",
"550 495 LINE",
"615 495 LINE",
"620 660 LINE",
"620 660 OFFCURVE",
"505 710 OFFCURVE",
"395 710 CURVE SMOOTH",
"190 710 OFFCURVE",
"60 565 OFFCURVE",
"60 335 CURVE SMOOTH",
"60 110 OFFCURVE",
"180 -10 OFFCURVE",
"380 -10 CURVE SMOOTH"
);
}
);
width = 750;
},
{
layerId = "26DC72AF-247A-4505-B175-40140B6BEEEF";
name = Bold;
paths = (
{
closed = 1;
nodes = (
"544 -12 OFFCURVE",
"647 55 OFFCURVE",
"647 55 CURVE",
"647 259 LINE",
"715 282 LINE",
"715 369 LINE",
"427 364 LINE",
"427 282 LINE",
"502 259 LINE",
"502 133 LINE",
"502 133 OFFCURVE",
"444 115 OFFCURVE",
"392 115 CURVE SMOOTH",
"285 115 OFFCURVE",
"222 185 OFFCURVE",
"222 347 CURVE SMOOTH",
"222 514 OFFCURVE",
"282 592 OFFCURVE",
"389 592 CURVE SMOOTH",
"455 592 OFFCURVE",
"502 576 OFFCURVE",
"502 576 CURVE",
"527 490 LINE",
"620 490 LINE",
"625 670 LINE",
"625 670 OFFCURVE",
"513 717 OFFCURVE",
"392 717 CURVE SMOOTH",
"187 717 OFFCURVE",
"55 577 OFFCURVE",
"55 342 CURVE SMOOTH",
"55 110 OFFCURVE",
"172 -12 OFFCURVE",
"375 -12 CURVE SMOOTH"
);
}
);
width = 750;
}
);
leftKerningGroup = O;
rightKerningGroup = G;
unicode = 0047;
},
{
glyphname = Gbreve;
lastChange = "2015-07-10 17:16:23 +0000";
layers = (
{
background = {
paths = (
{
closed = 1;
nodes = (
"635 264 LINE",
"710 284 LINE",
"710 344 LINE",
"450 339 LINE",
"450 284 LINE",
"535 264 LINE",
"535 100 LINE",
"535 100 OFFCURVE",
"465 75 OFFCURVE",
"395 75 CURVE SMOOTH",
"265 75 OFFCURVE",
"175 160 OFFCURVE",
"175 340 CURVE SMOOTH",
"175 525 OFFCURVE",
"250 625 OFFCURVE",
"385 625 CURVE SMOOTH",
"460 625 OFFCURVE",
"520 605 OFFCURVE",
"520 605 CURVE",
"550 495 LINE",
"615 495 LINE",
"620 660 LINE",
"620 660 OFFCURVE",
"505 710 OFFCURVE",
"395 710 CURVE SMOOTH",
"190 710 OFFCURVE",
"60 565 OFFCURVE",
"60 335 CURVE SMOOTH",
"60 110 OFFCURVE",
"180 -10 OFFCURVE",
"380 -10 CURVE SMOOTH",
"529 -10 OFFCURVE",
"635 50 OFFCURVE",
"635 50 CURVE"
);
},
{
closed = 1;
nodes = (
"460 905 LINE",
"460 905 OFFCURVE",
"455 835 OFFCURVE",
"380 835 CURVE SMOOTH",
"310 835 OFFCURVE",
"300 910 OFFCURVE",
"300 910 CURVE",
"240 905 LINE",
"240 820 OFFCURVE",
"305 760 OFFCURVE",
"375 760 CURVE SMOOTH",
"455 760 OFFCURVE",
"520 820 OFFCURVE",
"520 910 CURVE"
);
}
);
};
components = (
{
disableAlignment = 1;
name = G;
},
{
disableAlignment = 1;
name = breve;
transform = "{1, 0, 0, 1, 160, 145}";
}
);
layerId = UUID0;
name = Regular;
width = 750;
},
{
components = (
{
name = G;
},
{
name = breve;
transform = "{1, 0, 0, 1, 168, 167}";
}
);
layerId = "26DC72AF-247A-4505-B175-40140B6BEEEF";
name = Bold;
width = 750;
}
);
leftKerningGroup = O;
rightKerningGroup = G;
unicode = 011E;
},
{
glyphname = Gcircumflex;
lastChange = "2015-07-10 21:36:40 +0000";
layers = (
{
background = {
paths = (
{
closed = 1;
nodes = (
"190 710 OFFCURVE",
"60 565 OFFCURVE",
"60 335 CURVE SMOOTH",
"60 110 OFFCURVE",
"180 -10 OFFCURVE",
"380 -10 CURVE SMOOTH",
"529 -10 OFFCURVE",
"635 50 OFFCURVE",
"635 50 CURVE",
"635 264 LINE",
"710 284 LINE",
"710 344 LINE",
"450 339 LINE",
"450 284 LINE",
"535 264 LINE",
"535 100 LINE",
"535 100 OFFCURVE",
"465 75 OFFCURVE",
"395 75 CURVE SMOOTH",
"265 75 OFFCURVE",
"175 160 OFFCURVE",
"175 340 CURVE SMOOTH",
"175 525 OFFCURVE",
"250 625 OFFCURVE",
"385 625 CURVE SMOOTH",
"460 625 OFFCURVE",
"520 605 OFFCURVE",
"520 605 CURVE",
"550 495 LINE",
"615 495 LINE",
"620 660 LINE",
"620 660 OFFCURVE",
"505 710 OFFCURVE",
"395 710 CURVE SMOOTH"
);
},
{
closed = 1;
nodes = (
"345 915 LINE",
"200 795 LINE",
"240 750 LINE",
"377 843 LINE",
"510 750 LINE",
"550 795 LINE",
"405 920 LINE"
);
}
);
};
components = (
{
name = G;
},
{
name = circumflex;
transform = "{1, 0, 0, 1, 115, 100}";
}
);
layerId = UUID0;
name = Regular;
width = 750;
},
{
components = (
{
name = G;
},
{
name = circumflex;
transform = "{1, 0, 0, 1, 103, 107}";
}
);
layerId = "26DC72AF-247A-4505-B175-40140B6BEEEF";
name = Bold;
width = 750;
}
);
leftKerningGroup = O;
rightKerningGroup = G;
unicode = 011C;
},
{
glyphname = Gdotaccent;
lastChange = "2015-07-10 21:37:07 +0000";
layers = (
{
background = {
paths = (
{
closed = 1;
nodes = (
"190 710 OFFCURVE",
"60 565 OFFCURVE",
"60 335 CURVE SMOOTH",
"60 110 OFFCURVE",
"180 -10 OFFCURVE",
"380 -10 CURVE SMOOTH",
"529 -10 OFFCURVE",
"635 50 OFFCURVE",
"635 50 CURVE",
"635 264 LINE",
"710 284 LINE",
"710 344 LINE",
"450 339 LINE",
"450 284 LINE",
"535 264 LINE",
"535 100 LINE",
"535 100 OFFCURVE",
"465 75 OFFCURVE",
"395 75 CURVE SMOOTH",
"265 75 OFFCURVE",
"175 160 OFFCURVE",
"175 340 CURVE SMOOTH",
"175 525 OFFCURVE",
"250 625 OFFCURVE",
"385 625 CURVE SMOOTH",
"460 625 OFFCURVE",
"520 605 OFFCURVE",
"520 605 CURVE",
"550 495 LINE",
"615 495 LINE",
"620 660 LINE",
"620 660 OFFCURVE",
"505 710 OFFCURVE",
"395 710 CURVE SMOOTH"
);
},
{
closed = 1;
nodes = (
"340 885 OFFCURVE",
"315 863 OFFCURVE",
"315 825 CURVE SMOOTH",
"315 787 OFFCURVE",
"336 765 OFFCURVE",
"370 765 CURVE SMOOTH",
"400 765 OFFCURVE",
"425 787 OFFCURVE",
"425 825 CURVE SMOOTH",
"425 863 OFFCURVE",
"404 885 OFFCURVE",
"370 885 CURVE SMOOTH"
);
}
);
};
components = (
{
name = G;
},
{
name = dotaccent;
transform = "{1, 0, 0, 1, 225, 125}";
}
);
layerId = UUID0;
name = Regular;
width = 750;
},
{
components = (
{
name = G;
},
{
name = dotaccent;
transform = "{1, 0, 0, 1, 234, 0}";
}
);
layerId = "26DC72AF-247A-4505-B175-40140B6BEEEF";
name = Bold;
width = 750;
}
);
leftKerningGroup = O;
rightKerningGroup = G;
unicode = 0120;
},
{
glyphname = H;
lastChange = "2015-07-10 20:21:37 +0000";
layers = (
{
layerId = UUID0;
name = Regular;
paths = (
{
closed = 1;
nodes = (
"325 0 LINE",
"325 60 LINE",
"230 80 LINE",
"230 320 LINE",
"565 320 LINE",
"565 80 LINE",
"470 60 LINE",
"470 0 LINE",
"755 0 LINE",
"755 60 LINE",
"670 80 LINE",
"670 620 LINE",
"755 640 LINE",
"755 700 LINE",
"470 695 LINE",
"470 640 LINE",
"565 620 LINE",
"565 400 LINE",
"230 400 LINE",
"230 620 LINE",
"325 640 LINE",
"325 700 LINE",
"40 695 LINE",
"40 640 LINE",
"125 620 LINE",
"125 80 LINE",
"40 60 LINE",
"40 0 LINE"
);
}
);
width = 795;
},
{
layerId = "26DC72AF-247A-4505-B175-40140B6BEEEF";
name = Bold;
paths = (
{
closed = 1;
nodes = (
"345 0 LINE",
"345 85 LINE",
"265 115 LINE",
"265 305 LINE",
"527 305 LINE",
"527 115 LINE",
"447 85 LINE",
"447 0 LINE",
"757 0 LINE",
"757 85 LINE",
"682 115 LINE",
"682 585 LINE",
"757 615 LINE",
"757 705 LINE",
"447 700 LINE",
"447 615 LINE",
"527 585 LINE",
"527 425 LINE",
"265 425 LINE",
"265 585 LINE",
"345 615 LINE",
"345 705 LINE",
"35 700 LINE",
"35 615 LINE",
"110 585 LINE",
"110 115 LINE",
"35 85 LINE",
"35 0 LINE"
);
}
);
width = 792;
}
);
unicode = 0048;
},
{
glyphname = Hbar;
lastChange = "2015-07-10 21:37:19 +0000";
layers = (
{
layerId = UUID0;
name = Regular;
paths = (
{
closed = 1;
nodes = (
"330 0 LINE",
"330 60 LINE",
"235 80 LINE",
"235 320 LINE",
"570 320 LINE",
"570 80 LINE",
"475 60 LINE",
"475 0 LINE",
"760 0 LINE",
"760 60 LINE",
"675 80 LINE",
"675 485 LINE",
"760 485 LINE",
"760 560 LINE",
"675 560 LINE",
"675 620 LINE",
"760 640 LINE",
"760 700 LINE",
"475 695 LINE",
"475 640 LINE",
"570 620 LINE",
"570 560 LINE",
"235 560 LINE",
"235 620 LINE",
"330 640 LINE",
"330 700 LINE",
"45 695 LINE",
"45 640 LINE",
"130 620 LINE",
"130 560 LINE",
"45 560 LINE",
"45 485 LINE",
"130 485 LINE",
"130 80 LINE",
"45 60 LINE",
"45 0 LINE"
);
},
{
closed = 1;
nodes = (
"235 485 LINE",
"570 485 LINE",
"570 400 LINE",
"235 400 LINE"
);
}
);
width = 805;
},
{
guideLines = (
{
angle = 90;
position = "{35, 570}";
},
{
angle = 90;
position = "{757, 658}";
}
);
layerId = "26DC72AF-247A-4505-B175-40140B6BEEEF";
name = Bold;
paths = (
{
closed = 1;
nodes = (
"342 0 LINE",
"342 85 LINE",
"265 115 LINE",
"265 295 LINE",
"527 295 LINE",
"527 115 LINE",
"450 85 LINE",
"450 0 LINE",
"757 0 LINE",
"757 85 LINE",
"682 115 LINE",
"682 465 LINE",
"757 465 LINE",
"757 555 LINE",
"682 555 LINE",
"682 585 LINE",
"757 615 LINE",
"757 705 LINE",
"450 700 LINE",
"450 617 LINE",
"527 587 LINE",
"527 555 LINE",
"265 555 LINE",
"265 587 LINE",
"342 617 LINE",
"342 705 LINE",
"35 700 LINE",
"35 615 LINE",
"110 585 LINE",
"110 555 LINE",
"35 555 LINE",
"35 465 LINE",
"110 465 LINE",
"110 115 LINE",
"35 85 LINE",
"35 0 LINE"
);
},
{
closed = 1;
nodes = (
"265 465 LINE",
"527 465 LINE",
"527 412 LINE",
"265 412 LINE"
);
}
);
width = 792;
}
);
leftKerningGroup = H;
rightKerningGroup = H;
unicode = 0126;
},
{
glyphname = Hcircumflex;
lastChange = "2015-07-10 21:37:32 +0000";
layers = (
{
background = {
paths = (
{
closed = 1;
nodes = (
"470 695 LINE",
"470 640 LINE",
"565 620 LINE",
"565 400 LINE",
"230 400 LINE",
"230 620 LINE",
"325 640 LINE",
"325 700 LINE",
"40 695 LINE",
"40 640 LINE",
"125 620 LINE",
"125 80 LINE",
"40 60 LINE",
"40 0 LINE",
"325 0 LINE",
"325 60 LINE",
"230 80 LINE",
"230 320 LINE",
"565 320 LINE",
"565 80 LINE",
"470 60 LINE",
"470 0 LINE",
"755 0 LINE",
"755 60 LINE",
"670 80 LINE",
"670 620 LINE",
"755 640 LINE",
"755 700 LINE"
);
},
{
closed = 1;
nodes = (
"367 915 LINE",
"222 795 LINE",
"262 750 LINE",
"399 843 LINE",
"532 750 LINE",
"572 795 LINE",
"427 920 LINE"
);
}
);
};
components = (
{
name = H;
},
{
name = circumflex;
transform = "{1, 0, 0, 1, 137, 100}";
}
);
layerId = UUID0;
name = Regular;
width = 795;
},
{
components = (
{
name = H;
},
{
name = circumflex;
transform = "{1, 0, 0, 1, 131, 107}";
}
);
layerId = "26DC72AF-247A-4505-B175-40140B6BEEEF";
name = Bold;
width = 792;
}
);
leftKerningGroup = H;
rightKerningGroup = H;
unicode = 0124;
},
{
glyphname = I;
lastChange = "2015-07-10 20:21:37 +0000";
layers = (
{
layerId = UUID0;
name = Regular;
paths = (
{
closed = 1;
nodes = (
"320 0 LINE",
"320 60 LINE",
"235 80 LINE",
"235 620 LINE",
"320 640 LINE",
"320 700 LINE",
"45 695 LINE",
"45 640 LINE",
"130 620 LINE",
"130 80 LINE",
"45 60 LINE",
"45 0 LINE"
);
}
);
width = 365;
},
{
layerId = "26DC72AF-247A-4505-B175-40140B6BEEEF";
name = Bold;
paths = (
{
closed = 1;
nodes = (
"345 0 LINE",
"345 85 LINE",
"270 115 LINE",
"270 585 LINE",
"345 615 LINE",
"345 705 LINE",
"40 700 LINE",
"40 615 LINE",
"115 585 LINE",
"115 115 LINE",
"40 85 LINE",
"40 0 LINE"
);
}
);
width = 385;
}
);
leftKerningGroup = I;
rightKerningGroup = I;
unicode = 0049;
},
{
glyphname = IJ;
lastChange = "2015-07-10 21:38:09 +0000";
layers = (
{
background = {
paths = (
{
closed = 1;
nodes = (
"389 695 LINE",
"389 640 LINE",
"474 620 LINE",
"474 25 LINE SMOOTH",
"474 -35 OFFCURVE",
"449 -70 OFFCURVE",
"384 -70 CURVE SMOOTH",
"334 -70 LINE",
"325 -145 LINE",
"325 -145 OFFCURVE",
"364 -150 OFFCURVE",
"389 -150 CURVE SMOOTH",
"509 -150 OFFCURVE",
"579 -75 OFFCURVE",
"579 45 CURVE SMOOTH",
"579 620 LINE",
"664 640 LINE",
"664 700 LINE"
);
},
{
closed = 1;
nodes = (
"45 695 LINE",
"45 640 LINE",
"130 620 LINE",
"130 80 LINE",
"45 60 LINE",
"45 0 LINE",
"320 0 LINE",
"320 60 LINE",
"235 80 LINE",
"235 620 LINE",
"320 640 LINE",
"320 700 LINE"
);
}
);
};
components = (
{
name = I;
},
{
disableAlignment = 1;
name = J;
transform = "{1, 0, 0, 1, 345, 0}";
}
);
layerId = UUID0;
name = Regular;
width = 704;
},
{
components = (
{
name = I;
},
{
disableAlignment = 1;
name = J;
transform = "{1, 0, 0, 1, 375, 0}";
}
);
layerId = "26DC72AF-247A-4505-B175-40140B6BEEEF";
name = Bold;
width = 759;
}
);
leftMetricsKey = I;
rightKerningGroup = J;
rightMetricsKey = J;
unicode = 0132;
},
{
glyphname = Ibreve;
lastChange = "2015-07-10 21:38:23 +0000";
layers = (
{
background = {
paths = (
{
closed = 1;
nodes = (
"315 60 LINE",
"230 80 LINE",
"230 620 LINE",
"315 640 LINE",
"315 700 LINE",
"40 695 LINE",
"40 640 LINE",
"125 620 LINE",
"125 80 LINE",
"40 60 LINE",
"40 0 LINE",
"315 0 LINE"
);
},
{
closed = 1;
nodes = (
"260 905 LINE",
"260 905 OFFCURVE",
"255 835 OFFCURVE",
"180 835 CURVE SMOOTH",
"110 835 OFFCURVE",
"100 910 OFFCURVE",
"100 910 CURVE",
"40 905 LINE",
"40 820 OFFCURVE",
"105 760 OFFCURVE",
"175 760 CURVE SMOOTH",
"255 760 OFFCURVE",
"320 820 OFFCURVE",
"320 910 CURVE"
);
}
);
};
components = (
{
disableAlignment = 1;
name = I;
transform = "{1, 0, 0, 1, -5, 0}";
},
{
disableAlignment = 1;
name = breve;
transform = "{1, 0, 0, 1, -40, 145}";
}
);
layerId = UUID0;
name = Regular;
width = 355;
},
{
components = (
{
name = I;
},
{
name = breve;
transform = "{1, 0, 0, 1, -27, 167}";
}
);
layerId = "26DC72AF-247A-4505-B175-40140B6BEEEF";
name = Bold;
width = 385;
}
);
leftKerningGroup = I;
rightKerningGroup = I;
unicode = 012C;
},
{
glyphname = Icircumflex;
lastChange = "2015-07-10 21:39:24 +0000";
layers = (
{
components = (
{
name = I;
transform = "{1, 0, 0, 1, 9, 0}";
}
);
layerId = UUID0;
name = Regular;
paths = (
{
closed = 1;
nodes = (
"190 843 LINE",
"316 750 LINE",
"356 795 LINE",
"218 920 LINE",
"158 915 LINE",
"20 795 LINE",
"60 750 LINE"
);
}
);
width = 376;
},
{
components = (
{
name = I;
}
);
layerId = "26DC72AF-247A-4505-B175-40140B6BEEEF";
name = Bold;
paths = (
{
closed = 1;
nodes = (
"190 840 LINE",
"333 746 LINE",
"381 808 LINE",
"227 947 LINE",
"138 939 LINE",
"-8 808 LINE",
"40 746 LINE"
);
}
);
width = 385;
}
);
leftKerningGroup = I;
rightKerningGroup = I;
unicode = 00CE;
},
{
glyphname = Idieresis;
lastChange = "2015-07-10 21:39:48 +0000";
layers = (
{
components = (
{
name = I;
transform = "{1, 0, 0, 1, -5, 0}";
}
);
layerId = UUID0;
name = Regular;
paths = (
{
closed = 1;
nodes = (
"310 765 OFFCURVE",
"335 787 OFFCURVE",
"335 825 CURVE SMOOTH",
"335 863 OFFCURVE",
"314 885 OFFCURVE",
"280 885 CURVE SMOOTH",
"250 885 OFFCURVE",
"225 863 OFFCURVE",
"225 825 CURVE SMOOTH",
"225 787 OFFCURVE",
"246 765 OFFCURVE",
"280 765 CURVE SMOOTH"
);
},
{
closed = 1;
nodes = (
"105 765 OFFCURVE",
"130 787 OFFCURVE",
"130 825 CURVE SMOOTH",
"130 863 OFFCURVE",
"109 885 OFFCURVE",
"75 885 CURVE SMOOTH",
"45 885 OFFCURVE",
"20 863 OFFCURVE",
"20 825 CURVE SMOOTH",
"20 787 OFFCURVE",
"41 765 OFFCURVE",
"75 765 CURVE SMOOTH"
);
}
);
width = 355;
},
{
components = (
{
name = I;
transform = "{1, 0, 0, 1, 14, 0}";
}
);
layerId = "26DC72AF-247A-4505-B175-40140B6BEEEF";
name = Bold;
paths = (
{
closed = 1;
nodes = (
"345 769 OFFCURVE",
"380 797 OFFCURVE",
"380 847 CURVE SMOOTH",
"380 896 OFFCURVE",
"356 925 OFFCURVE",
"308 925 CURVE SMOOTH",
"270 925 OFFCURVE",
"234 896 OFFCURVE",
"234 847 CURVE SMOOTH",
"234 797 OFFCURVE",
"259 769 OFFCURVE",
"306 769 CURVE SMOOTH"
);
},
{
closed = 1;
nodes = (
"137 769 OFFCURVE",
"172 797 OFFCURVE",
"172 847 CURVE SMOOTH",
"172 896 OFFCURVE",
"147 925 OFFCURVE",
"100 925 CURVE SMOOTH",
"61 925 OFFCURVE",
"26 896 OFFCURVE",
"26 847 CURVE SMOOTH",
"26 797 OFFCURVE",
"51 769 OFFCURVE",
"98 769 CURVE SMOOTH"
);
}
);
width = 404;
}
);
leftKerningGroup = I;
rightKerningGroup = I;
unicode = 00CF;
},
{
glyphname = Idotaccent;
lastChange = "2015-07-10 21:40:17 +0000";
layers = (
{
background = {
paths = (
{
closed = 1;
nodes = (
"44 695 LINE",
"44 640 LINE",
"129 620 LINE",
"129 80 LINE",
"44 60 LINE",
"44 0 LINE",
"319 0 LINE",
"319 60 LINE",
"234 80 LINE",
"234 620 LINE",
"319 640 LINE",
"319 700 LINE"
);
},
{
closed = 1;
nodes = (
"152 885 OFFCURVE",
"127 863 OFFCURVE",
"127 825 CURVE SMOOTH",
"127 787 OFFCURVE",
"148 765 OFFCURVE",
"182 765 CURVE SMOOTH",
"212 765 OFFCURVE",
"237 787 OFFCURVE",
"237 825 CURVE SMOOTH",
"237 863 OFFCURVE",
"216 885 OFFCURVE",
"182 885 CURVE SMOOTH"
);
}
);
};
components = (
{
disableAlignment = 1;
name = I;
},
{
name = dotaccent;
transform = "{1, 0, 0, 1, 37, 125}";
}
);
layerId = UUID0;
name = Regular;
width = 365;
},
{
components = (
{
name = I;
},
{
name = dotaccent;
transform = "{1, 0, 0, 1, 40, 0}";
}
);
layerId = "26DC72AF-247A-4505-B175-40140B6BEEEF";
name = Bold;
width = 385;
}
);
leftKerningGroup = I;
leftMetricsKey = I;
rightKerningGroup = I;
rightMetricsKey = I;
unicode = 0130;
},
{
glyphname = Imacron;
lastChange = "2015-07-10 21:41:21 +0000";
layers = (
{
background = {
paths = (
{
closed = 1;
nodes = (
"45 695 LINE",
"45 640 LINE",
"130 620 LINE",
"130 80 LINE",
"45 60 LINE",
"45 0 LINE",
"320 0 LINE",
"320 60 LINE",
"235 80 LINE",
"235 620 LINE",
"320 640 LINE",
"320 700 LINE"
);
},
{
closed = 1;
nodes = (
"50 865 LINE",
"50 790 LINE",
"320 790 LINE",
"320 865 LINE"
);
}
);
};
components = (
{
disableAlignment = 1;
name = I;
},
{
name = macron;
transform = "{1, 0, 0, 1, 45, 130}";
}
);
layerId = UUID0;
name = Regular;
width = 365;
},
{
components = (
{
name = I;
},
{
name = macron;
transform = "{1, 0, 0, 1, 38, 160}";
}
);
layerId = "26DC72AF-247A-4505-B175-40140B6BEEEF";
name = Bold;
width = 385;
}
);
leftKerningGroup = I;
leftMetricsKey = I;
rightKerningGroup = I;
rightMetricsKey = I;
unicode = 012A;
},
{
glyphname = Iogonek;
lastChange = "2015-07-10 21:41:41 +0000";
layers = (
{
layerId = UUID0;
name = Regular;
paths = (
{
closed = 1;
nodes = (
"225 -220 OFFCURVE",
"265 -200 OFFCURVE",
"265 -200 CURVE",
"255 -153 LINE",
"255 -153 OFFCURVE",
"230 -160 OFFCURVE",
"210 -160 CURVE SMOOTH",
"185 -160 OFFCURVE",
"165 -145 OFFCURVE",
"165 -115 CURVE SMOOTH",
"165 -62 OFFCURVE",
"255 -20 OFFCURVE",
"320 0 CURVE",
"320 60 LINE",
"235 80 LINE",
"235 620 LINE",
"320 640 LINE",
"320 700 LINE",
"45 695 LINE",
"45 640 LINE",
"130 620 LINE",
"130 80 LINE",
"45 60 LINE",
"45 0 LINE",
"197 0 LINE",
"167 -13 OFFCURVE",
"85 -55 OFFCURVE",
"85 -125 CURVE SMOOTH",
"85 -185 OFFCURVE",
"130 -220 OFFCURVE",
"185 -220 CURVE SMOOTH"
);
}
);
width = 360;
},
{
layerId = "26DC72AF-247A-4505-B175-40140B6BEEEF";
name = Bold;
paths = (
{
closed = 1;
nodes = (
"249 -235 OFFCURVE",
"296 -210 OFFCURVE",
"296 -210 CURVE",
"279 -140 LINE",
"279 -140 OFFCURVE",
"253 -146 OFFCURVE",
"236 -146 CURVE SMOOTH",
"215 -146 OFFCURVE",
"199 -134 OFFCURVE",
"199 -110 CURVE SMOOTH",
"199 -66 OFFCURVE",
"292 -23 OFFCURVE",
"345 0 CURVE",
"345 85 LINE",
"270 115 LINE",
"270 585 LINE",
"345 615 LINE",
"345 705 LINE",
"40 700 LINE",
"40 615 LINE",
"115 585 LINE",
"115 115 LINE",
"40 85 LINE",
"40 0 LINE",
"200 0 LINE",
"174 -12 OFFCURVE",
"84 -59 OFFCURVE",
"84 -135 CURVE SMOOTH",
"84 -203 OFFCURVE",
"134 -235 OFFCURVE",
"194 -235 CURVE SMOOTH"
);
}
);
width = 375;
}
);
leftKerningGroup = I;
leftMetricsKey = I;
rightKerningGroup = I;
unicode = 012E;
},
{
glyphname = Itilde;
lastChange = "2015-07-10 21:42:15 +0000";
layers = (
{
background = {
paths = (
{
closed = 1;
nodes = (
"39 695 LINE",
"39 640 LINE",
"124 620 LINE",
"124 80 LINE",
"39 60 LINE",
"39 0 LINE",
"314 0 LINE",
"314 60 LINE",
"229 80 LINE",
"229 620 LINE",
"314 640 LINE",
"314 700 LINE"
);
}
);
};
components = (
{
name = I;
transform = "{1, 0, 0, 1, -6, 0}";
}
);
layerId = UUID0;
name = Regular;
paths = (
{
closed = 1;
nodes = (
"318 766 OFFCURVE",
"355 856 OFFCURVE",
"355 856 CURVE",
"321 886 LINE",
"321 886 OFFCURVE",
"293 844 OFFCURVE",
"257 844 CURVE SMOOTH",
"204 844 OFFCURVE",
"165 890 OFFCURVE",
"100 890 CURVE SMOOTH",
"32 890 OFFCURVE",
"-10 796 OFFCURVE",
"-10 796 CURVE",
"24 766 LINE",
"24 766 OFFCURVE",
"55 810 OFFCURVE",
"93 810 CURVE SMOOTH",
"146 810 OFFCURVE",
"185 766 OFFCURVE",
"250 766 CURVE SMOOTH"
);
}
);
width = 355;
},
{
components = (
{
name = I;
}
);
layerId = "26DC72AF-247A-4505-B175-40140B6BEEEF";
name = Bold;
paths = (
{
closed = 1;
nodes = (
"348 776 OFFCURVE",
"400 880 OFFCURVE",
"400 880 CURVE",
"345 922 LINE",
"345 922 OFFCURVE",
"315 880 OFFCURVE",
"276 880 CURVE SMOOTH",
"216 880 OFFCURVE",
"172 926 OFFCURVE",
"102 926 CURVE SMOOTH",
"19 926 OFFCURVE",
"-23 816 OFFCURVE",
"-23 816 CURVE",
"25 777 LINE",
"25 777 OFFCURVE",
"55 815 OFFCURVE",
"97 815 CURVE SMOOTH",
"157 815 OFFCURVE",
"195 776 OFFCURVE",
"265 776 CURVE SMOOTH"
);
}
);
width = 375;
}
);
leftKerningGroup = I;
rightKerningGroup = I;
unicode = 0128;
},
{
glyphname = J;
lastChange = "2015-07-10 20:21:37 +0000";
layers = (
{
layerId = UUID0;
name = Regular;
paths = (
{
closed = 1;
nodes = (
"164 -150 OFFCURVE",
"234 -75 OFFCURVE",
"234 45 CURVE SMOOTH",
"234 620 LINE",
"319 640 LINE",
"319 700 LINE",
"44 695 LINE",
"44 640 LINE",
"129 620 LINE",
"129 25 LINE SMOOTH",
"129 -35 OFFCURVE",
"104 -70 OFFCURVE",
"39 -70 CURVE SMOOTH",
"-11 -70 LINE",
"-20 -145 LINE",
"-20 -145 OFFCURVE",
"19 -150 OFFCURVE",
"44 -150 CURVE SMOOTH"
);
}
);
width = 359;
},
{
layerId = "26DC72AF-247A-4505-B175-40140B6BEEEF";
name = Bold;
paths = (
{
closed = 1;
nodes = (
"222 -160 OFFCURVE",
"274 -68 OFFCURVE",
"274 106 CURVE SMOOTH",
"274 585 LINE",
"349 615 LINE",
"349 705 LINE",
"44 700 LINE",
"44 615 LINE",
"119 585 LINE",
"119 46 LINE SMOOTH",
"119 -17 OFFCURVE",
"91 -50 OFFCURVE",
"31 -50 CURVE SMOOTH",
"-17 -50 LINE",
"-30 -153 LINE",
"-30 -153 OFFCURVE",
"14 -160 OFFCURVE",
"46 -160 CURVE SMOOTH"
);
}
);
width = 384;
}
);
leftKerningGroup = J;
rightKerningGroup = J;
unicode = 004A;
},
{
glyphname = Jcircumflex;
lastChange = "2015-07-10 21:42:54 +0000";
layers = (
{
background = {
paths = (
{
closed = 1;
nodes = (
"44 695 LINE",
"44 640 LINE",
"129 620 LINE",
"129 25 LINE SMOOTH",
"129 -35 OFFCURVE",
"104 -70 OFFCURVE",
"39 -70 CURVE SMOOTH",
"-11 -70 LINE",
"-20 -145 LINE",
"-20 -145 OFFCURVE",
"19 -150 OFFCURVE",
"44 -150 CURVE SMOOTH",
"164 -150 OFFCURVE",
"234 -75 OFFCURVE",
"234 45 CURVE SMOOTH",
"234 620 LINE",
"319 640 LINE",
"319 700 LINE"
);
},
{
closed = 1;
nodes = (
"150 915 LINE",
"12 795 LINE",
"52 750 LINE",
"182 843 LINE",
"308 750 LINE",
"348 795 LINE",
"210 920 LINE"
);
}
);
};
components = (
{
name = J;
}
);
layerId = UUID0;
name = Regular;
paths = (
{
closed = 1;
nodes = (
"150 915 LINE",
"12 795 LINE",
"52 750 LINE",
"182 843 LINE",
"308 750 LINE",
"348 795 LINE",
"210 920 LINE"
);
}
);
width = 359;
},
{
components = (
{
name = J;
}
);
layerId = "26DC72AF-247A-4505-B175-40140B6BEEEF";
name = Bold;
paths = (
{
closed = 1;
nodes = (
"195 840 LINE",
"336 746 LINE",
"384 808 LINE",
"232 947 LINE",
"143 939 LINE",
"0 808 LINE",
"48 746 LINE"
);
}
);
width = 384;
}
);
leftKerningGroup = J;
rightKerningGroup = J;
unicode = 0134;
},
{
glyphname = K;
lastChange = "2015-07-10 20:21:37 +0000";
layers = (
{
layerId = UUID0;
name = Regular;
paths = (
{
closed = 1;
nodes = (
"330 0 LINE",
"330 60 LINE",
"235 80 LINE",
"235 320 LINE",
"333 320 LINE",
"505 80 LINE",
"420 60 LINE",
"420 0 LINE",
"705 0 LINE",
"705 60 LINE",
"620 80 LINE",
"414 367 LINE",
"566 620 LINE",
"665 640 LINE",
"665 700 LINE",
"500 695 LINE",
"327 400 LINE",
"235 400 LINE",
"235 620 LINE",
"330 640 LINE",
"330 700 LINE",
"45 695 LINE",
"45 640 LINE",
"130 620 LINE",
"130 80 LINE",
"45 60 LINE",
"45 0 LINE"
);
}
);
width = 690;
},
{
layerId = "26DC72AF-247A-4505-B175-40140B6BEEEF";
name = Bold;
paths = (
{
closed = 1;
nodes = (
"340 0 LINE",
"340 85 LINE",
"265 115 LINE",
"265 305 LINE",
"338 305 LINE",
"475 115 LINE",
"415 85 LINE",
"415 0 LINE",
"720 0 LINE",
"720 85 LINE",
"645 115 LINE",
"459 371 LINE",
"590 589 LINE",
"685 617 LINE",
"685 705 LINE",
"500 700 LINE",
"333 415 LINE",
"265 415 LINE",
"265 587 LINE",
"340 617 LINE",
"340 705 LINE",
"35 700 LINE",
"35 617 LINE",
"110 587 LINE",
"110 115 LINE",
"35 85 LINE",
"35 0 LINE"
);
}
);
width = 720;
}
);
rightKerningGroup = K;
unicode = 004B;
},
{
glyphname = L;
lastChange = "2015-07-10 20:21:37 +0000";
layers = (
{
layerId = UUID0;
name = Regular;
paths = (
{
closed = 1;
nodes = (
"520 0 LINE",
"520 195 LINE",
"450 195 LINE",
"430 80 LINE",
"225 80 LINE",
"225 620 LINE",
"310 640 LINE",
"310 700 LINE",
"35 695 LINE",
"35 640 LINE",
"120 620 LINE",
"120 80 LINE",
"35 60 LINE",
"35 0 LINE"
);
}
);
width = 530;
},
{
layerId = "26DC72AF-247A-4505-B175-40140B6BEEEF";
name = Bold;
paths = (
{
closed = 1;
nodes = (
"530 0 LINE",
"530 230 LINE",
"435 230 LINE",
"413 120 LINE",
"260 120 LINE",
"260 585 LINE",
"335 615 LINE",
"335 705 LINE",
"30 700 LINE",
"30 615 LINE",
"105 585 LINE",
"105 115 LINE",
"30 85 LINE",
"30 0 LINE"
);
}
);
width = 540;
}
);
leftKerningGroup = H;
rightKerningGroup = L;
unicode = 004C;
},
{
glyphname = Lcaron;
lastChange = "2015-07-10 21:43:10 +0000";
layers = (
{
components = (
{
disableAlignment = 1;
name = L;
}
);
layerId = UUID0;
name = Regular;
paths = (
{
closed = 1;
nodes = (
"407 695 LINE",
"410 635 OFFCURVE",
"396 574 OFFCURVE",
"365 485 CURVE",
"425 465 LINE",
"472 561 OFFCURVE",
"505 640 OFFCURVE",
"505 700 CURVE"
);
}
);
width = 530;
},
{
components = (
{
name = L;
}
);
layerId = "26DC72AF-247A-4505-B175-40140B6BEEEF";
name = Bold;
paths = (
{
closed = 1;
nodes = (
"404 700 LINE",
"407 626 OFFCURVE",
"399 546 OFFCURVE",
"371 448 CURVE",
"451 420 LINE",
"503 524 OFFCURVE",
"534 630 OFFCURVE",
"535 705 CURVE"
);
}
);
width = 545;
}
);
leftKerningGroup = H;
unicode = 013D;
},
{
glyphname = Ldot;
lastChange = "2015-07-10 21:43:29 +0000";
layers = (
{
background = {
paths = (
{
closed = 1;
nodes = (
"35 695 LINE",
"35 640 LINE",
"120 620 LINE",
"120 80 LINE",
"35 60 LINE",
"35 0 LINE",
"520 0 LINE",
"520 195 LINE",
"450 195 LINE",
"430 80 LINE",
"225 80 LINE",
"225 620 LINE",
"310 640 LINE",
"310 700 LINE"
);
},
{
closed = 1;
nodes = (
"335 432 OFFCURVE",
"305 407 OFFCURVE",
"305 360 CURVE SMOOTH",
"305 313 OFFCURVE",
"330 288 OFFCURVE",
"372 288 CURVE SMOOTH",
"409 288 OFFCURVE",
"439 313 OFFCURVE",
"439 360 CURVE SMOOTH",
"439 407 OFFCURVE",
"414 432 OFFCURVE",
"372 432 CURVE SMOOTH"
);
}
);
};
components = (
{
name = L;
},
{
name = periodcentered;
transform = "{1, 0, 0, 1, 240, 55}";
}
);
layerId = UUID0;
name = Regular;
width = 530;
},
{
components = (
{
name = L;
},
{
name = periodcentered;
transform = "{1, 0, 0, 1, 262, 70}";
}
);
layerId = "26DC72AF-247A-4505-B175-40140B6BEEEF";
name = Bold;
width = 540;
}
);
leftKerningGroup = H;
rightKerningGroup = L;
unicode = 013F;
},
{
glyphname = Lslash;
lastChange = "2015-07-10 21:43:38 +0000";
layers = (
{
layerId = UUID0;
name = Regular;
paths = (
{
closed = 1;
nodes = (
"535 0 LINE",
"535 195 LINE",
"465 195 LINE",
"445 80 LINE",
"240 80 LINE",
"240 317 LINE",
"406 397 LINE",
"385 472 LINE",
"240 402 LINE",
"240 620 LINE",
"325 640 LINE",
"325 700 LINE",
"50 695 LINE",
"50 640 LINE",
"135 620 LINE",
"135 358 LINE",
"30 308 LINE",
"51 233 LINE",
"135 273 LINE",
"135 80 LINE",
"50 60 LINE",
"50 0 LINE"
);
}
);
width = 546;
},
{
layerId = "26DC72AF-247A-4505-B175-40140B6BEEEF";
name = Bold;
paths = (
{
closed = 1;
nodes = (
"554 0 LINE",
"554 230 LINE",
"459 230 LINE",
"437 120 LINE",
"284 120 LINE",
"284 317 LINE",
"453 392 LINE",
"421 499 LINE",
"284 438 LINE",
"284 585 LINE",
"359 615 LINE",
"359 705 LINE",
"54 700 LINE",
"54 615 LINE",
"129 585 LINE",
"129 375 LINE",
"20 327 LINE",
"52 220 LINE",
"129 254 LINE",
"129 115 LINE",
"54 85 LINE",
"54 0 LINE"
);
}
);
width = 564;
}
);
leftKerningGroup = H;
rightKerningGroup = L;
unicode = 0141;
},
{
glyphname = M;
lastChange = "2015-07-10 20:21:37 +0000";
layers = (
{
layerId = UUID0;
name = Regular;
paths = (
{
closed = 1;
nodes = (
"310 0 LINE",
"310 60 LINE",
"215 80 LINE",
"215 580 LINE",
"240 510 LINE",
"395 185 LINE",
"475 190 LINE",
"630 505 LINE",
"660 580 LINE",
"660 80 LINE",
"565 60 LINE",
"565 0 LINE",
"845 0 LINE",
"845 60 LINE",
"760 80 LINE",
"760 620 LINE",
"845 640 LINE",
"845 700 LINE",
"635 695 LINE",
"446 300 LINE",
"265 700 LINE",
"40 695 LINE",
"40 640 LINE",
"125 620 LINE",
"125 80 LINE",
"40 60 LINE",
"40 0 LINE"
);
}
);
width = 885;
},
{
layerId = "26DC72AF-247A-4505-B175-40140B6BEEEF";
name = Bold;
paths = (
{
closed = 1;
nodes = (
"320 0 LINE",
"320 85 LINE",
"243 115 LINE",
"243 474 LINE",
"260 422 LINE",
"375 185 LINE",
"483 190 LINE",
"596 425 LINE",
"623 491 LINE",
"623 115 LINE",
"545 85 LINE",
"545 0 LINE",
"843 0 LINE",
"843 85 LINE",
"768 115 LINE",
"768 585 LINE",
"840 615 LINE",
"840 705 LINE",
"600 700 LINE",
"443 372 LINE",
"293 705 LINE",
"35 700 LINE",
"35 615 LINE",
"110 585 LINE",
"110 115 LINE",
"35 85 LINE",
"35 0 LINE"
);
}
);
width = 878;
}
);
leftKerningGroup = H;
rightKerningGroup = H;
unicode = 004D;
},
{
glyphname = N;
lastChange = "2015-07-10 20:21:37 +0000";
layers = (
{
layerId = UUID0;
name = Regular;
paths = (
{
closed = 1;
nodes = (
"310 0 LINE",
"310 60 LINE",
"215 80 LINE",
"215 551 LINE",
"545 0 LINE",
"670 0 LINE",
"670 620 LINE",
"755 640 LINE",
"755 700 LINE",
"495 695 LINE",
"495 640 LINE",
"580 620 LINE",
"580 141 LINE",
"250 700 LINE",
"40 695 LINE",
"40 640 LINE",
"125 620 LINE",
"125 80 LINE",
"40 60 LINE",
"40 0 LINE"
);
}
);
width = 790;
},
{
layerId = "26DC72AF-247A-4505-B175-40140B6BEEEF";
name = Bold;
paths = (
{
closed = 1;
nodes = (
"325 0 LINE",
"325 85 LINE",
"247 115 LINE",
"247 453 LINE",
"515 0 LINE",
"682 0 LINE",
"682 585 LINE",
"757 615 LINE",
"757 705 LINE",
"472 700 LINE",
"472 615 LINE",
"545 585 LINE",
"545 243 LINE",
"275 705 LINE",
"35 700 LINE",
"35 615 LINE",
"110 585 LINE",
"110 115 LINE",
"35 85 LINE",
"35 0 LINE"
);
}
);
width = 787;
}
);
leftKerningGroup = H;
rightKerningGroup = H;
unicode = 004E;
},
{
glyphname = Eng;
lastChange = "2015-07-10 17:16:23 +0000";
layers = (
{
layerId = UUID0;
name = Regular;
paths = (
{
closed = 1;
nodes = (
"495 695 LINE",
"495 640 LINE",
"580 620 LINE",
"580 141 LINE",
"250 700 LINE",
"40 695 LINE",
"40 640 LINE",
"125 620 LINE",
"125 80 LINE",
"40 60 LINE",
"40 0 LINE",
"310 0 LINE",
"310 60 LINE",
"215 80 LINE",
"215 551 LINE",
"561 -10 LINE",
"553 -50 OFFCURVE",
"527 -70 OFFCURVE",
"474 -70 CURVE SMOOTH",
"424 -70 LINE",
"415 -145 LINE",
"415 -145 OFFCURVE",
"454 -150 OFFCURVE",
"479 -150 CURVE SMOOTH",
"599 -150 OFFCURVE",
"670 -75 OFFCURVE",
"670 34 CURVE",
"670 620 LINE",
"755 640 LINE",
"755 700 LINE"
);
}
);
width = 795;
},
{
layerId = "26DC72AF-247A-4505-B175-40140B6BEEEF";
name = Bold;
paths = (
{
closed = 1;
nodes = (
"472 700 LINE",
"472 615 LINE",
"545 585 LINE",
"545 236 LINE",
"275 705 LINE",
"35 700 LINE",
"35 615 LINE",
"110 585 LINE",
"110 115 LINE",
"35 85 LINE",
"35 0 LINE",
"325 0 LINE",
"325 85 LINE",
"247 115 LINE",
"247 453 LINE",
"534 -13 LINE",
"520 -38 OFFCURVE",
"492.688 -50 OFFCURVE",
"446 -50 CURVE SMOOTH",
"391 -50 LINE",
"378 -150 LINE",
"378 -150 OFFCURVE",
"422 -157 OFFCURVE",
"454 -157 CURVE SMOOTH",
"630 -157 OFFCURVE",
"682 -68 OFFCURVE",
"682 106 CURVE SMOOTH",
"682 585 LINE",
"757 615 LINE",
"757 705 LINE"
);
}
);
width = 792;
}
);
leftKerningGroup = H;
rightKerningGroup = J;
unicode = 014A;
},
{
glyphname = Ntilde;
lastChange = "2015-07-10 21:47:30 +0000";
layers = (
{
background = {
paths = (
{
closed = 1;
nodes = (
"495 695 LINE",
"495 640 LINE",
"580 620 LINE",
"580 141 LINE",
"250 700 LINE",
"40 695 LINE",
"40 640 LINE",
"125 620 LINE",
"125 80 LINE",
"40 60 LINE",
"40 0 LINE",
"310 0 LINE",
"310 60 LINE",
"215 80 LINE",
"215 551 LINE",
"545 0 LINE",
"670 0 LINE",
"670 620 LINE",
"755 640 LINE",
"755 700 LINE"
);
}
);
};
components = (
{
name = N;
}
);
layerId = UUID0;
name = Regular;
paths = (
{
closed = 1;
nodes = (
"545 766 OFFCURVE",
"580 856 OFFCURVE",
"580 856 CURVE",
"545 886 LINE",
"545 886 OFFCURVE",
"520 844 OFFCURVE",
"480 844 CURVE SMOOTH",
"420 844 OFFCURVE",
"375 890 OFFCURVE",
"305 890 CURVE SMOOTH",
"235 890 OFFCURVE",
"195 796 OFFCURVE",
"195 796 CURVE",
"230 766 LINE",
"230 766 OFFCURVE",
"260 810 OFFCURVE",
"300 810 CURVE SMOOTH",
"360 810 OFFCURVE",
"405 766 OFFCURVE",
"475 766 CURVE SMOOTH"
);
}
);
width = 790;
},
{
components = (
{
name = N;
}
);
layerId = "26DC72AF-247A-4505-B175-40140B6BEEEF";
name = Bold;
paths = (
{
closed = 1;
nodes = (
"553 776 OFFCURVE",
"605 880 OFFCURVE",
"605 880 CURVE",
"550 922 LINE",
"550 922 OFFCURVE",
"520 880 OFFCURVE",
"481 880 CURVE SMOOTH",
"421 880 OFFCURVE",
"377 926 OFFCURVE",
"307 926 CURVE SMOOTH",
"224 926 OFFCURVE",
"182 816 OFFCURVE",
"182 816 CURVE",
"230 777 LINE",
"230 777 OFFCURVE",
"260 815 OFFCURVE",
"302 815 CURVE SMOOTH",
"362 815 OFFCURVE",
"400 776 OFFCURVE",
"470 776 CURVE SMOOTH"
);
}
);
width = 787;
}
);
leftKerningGroup = N;
leftMetricsKey = N;
rightKerningGroup = N;
rightMetricsKey = N;
unicode = 00D1;
},
{
glyphname = O;
lastChange = "2015-07-10 20:21:37 +0000";
layers = (
{
layerId = UUID0;
name = Regular;
paths = (
{
closed = 1;
nodes = (
"560 -10 OFFCURVE",
"695 140 OFFCURVE",
"695 360 CURVE SMOOTH",
"695 575 OFFCURVE",
"580 710 OFFCURVE",
"385 710 CURVE SMOOTH",
"185 710 OFFCURVE",
"60 565 OFFCURVE",
"60 345 CURVE SMOOTH",
"60 115 OFFCURVE",
"170 -10 OFFCURVE",
"365 -10 CURVE SMOOTH"
);
},
{
closed = 1;
nodes = (
"240 75 OFFCURVE",
"175 170 OFFCURVE",
"175 350 CURVE SMOOTH",
"175 540 OFFCURVE",
"250 625 OFFCURVE",
"380 625 CURVE SMOOTH",
"510 625 OFFCURVE",
"580 535 OFFCURVE",
"580 355 CURVE SMOOTH",
"580 165 OFFCURVE",
"500 75 OFFCURVE",
"370 75 CURVE SMOOTH"
);
}
);
width = 755;
},
{
layerId = "26DC72AF-247A-4505-B175-40140B6BEEEF";
name = Bold;
paths = (
{
closed = 1;
nodes = (
"565 -13 OFFCURVE",
"700 137 OFFCURVE",
"700 362 CURVE SMOOTH",
"700 585 OFFCURVE",
"585 717 OFFCURVE",
"385 717 CURVE SMOOTH",
"182 717 OFFCURVE",
"55 577 OFFCURVE",
"55 347 CURVE SMOOTH",
"55 112 OFFCURVE",
"165 -13 OFFCURVE",
"365 -13 CURVE SMOOTH"
);
},
{
closed = 1;
nodes = (
"270 112 OFFCURVE",
"225 187 OFFCURVE",
"225 352 CURVE SMOOTH",
"225 530 OFFCURVE",
"280 592 OFFCURVE",
"380 592 CURVE SMOOTH",
"480 592 OFFCURVE",
"530 522 OFFCURVE",
"530 357 CURVE SMOOTH",
"530 177 OFFCURVE",
"470 112 OFFCURVE",
"370 112 CURVE SMOOTH"
);
}
);
width = 755;
}
);
leftKerningGroup = O;
rightKerningGroup = O;
unicode = 004F;
},
{
glyphname = Obreve;
lastChange = "2015-07-10 17:16:23 +0000";
layers = (
{
background = {
paths = (
{
closed = 1;
nodes = (
"185 710 OFFCURVE",
"60 565 OFFCURVE",
"60 345 CURVE SMOOTH",
"60 115 OFFCURVE",
"170 -10 OFFCURVE",
"365 -10 CURVE SMOOTH",
"560 -10 OFFCURVE",
"695 140 OFFCURVE",
"695 360 CURVE SMOOTH",
"695 575 OFFCURVE",
"580 710 OFFCURVE",
"385 710 CURVE SMOOTH"
);
},
{
closed = 1;
nodes = (
"510 625 OFFCURVE",
"580 535 OFFCURVE",
"580 355 CURVE SMOOTH",
"580 165 OFFCURVE",
"500 75 OFFCURVE",
"370 75 CURVE SMOOTH",
"240 75 OFFCURVE",
"175 170 OFFCURVE",
"175 350 CURVE SMOOTH",
"175 540 OFFCURVE",
"250 625 OFFCURVE",
"380 625 CURVE SMOOTH"
);
},
{
closed = 1;
nodes = (
"459 905 LINE",
"459 905 OFFCURVE",
"454 835 OFFCURVE",
"379 835 CURVE SMOOTH",
"309 835 OFFCURVE",
"299 910 OFFCURVE",
"299 910 CURVE",
"239 905 LINE",
"239 820 OFFCURVE",
"304 760 OFFCURVE",
"374 760 CURVE SMOOTH",
"454 760 OFFCURVE",
"519 820 OFFCURVE",
"519 910 CURVE"
);
}
);
};
components = (
{
disableAlignment = 1;
name = O;
},
{
disableAlignment = 1;
name = breve;
transform = "{1, 0, 0, 1, 159, 145}";
}
);
layerId = UUID0;
name = Regular;
width = 755;
},
{
components = (
{
name = O;
},
{
name = breve;
transform = "{1, 0, 0, 1, 158, 167}";
}
);
layerId = "26DC72AF-247A-4505-B175-40140B6BEEEF";
name = Bold;
width = 755;
}
);
leftKerningGroup = O;
rightKerningGroup = O;
unicode = 014E;
},
{
glyphname = Ocircumflex;
lastChange = "2015-07-10 21:44:32 +0000";
layers = (
{
background = {
paths = (
{
closed = 1;
nodes = (
"185 710 OFFCURVE",
"60 565 OFFCURVE",
"60 345 CURVE SMOOTH",
"60 115 OFFCURVE",
"170 -10 OFFCURVE",
"365 -10 CURVE SMOOTH",
"560 -10 OFFCURVE",
"695 140 OFFCURVE",
"695 360 CURVE SMOOTH",
"695 575 OFFCURVE",
"580 710 OFFCURVE",
"385 710 CURVE SMOOTH"
);
},
{
closed = 1;
nodes = (
"510 625 OFFCURVE",
"580 535 OFFCURVE",
"580 355 CURVE SMOOTH",
"580 165 OFFCURVE",
"500 75 OFFCURVE",
"370 75 CURVE SMOOTH",
"240 75 OFFCURVE",
"175 170 OFFCURVE",
"175 350 CURVE SMOOTH",
"175 540 OFFCURVE",
"250 625 OFFCURVE",
"380 625 CURVE SMOOTH"
);
},
{
closed = 1;
nodes = (
"344 915 LINE",
"199 795 LINE",
"239 750 LINE",
"376 843 LINE",
"509 750 LINE",
"549 795 LINE",
"404 920 LINE"
);
}
);
};
components = (
{
name = O;
},
{
name = circumflex;
transform = "{1, 0, 0, 1, 114, 100}";
}
);
layerId = UUID0;
name = Regular;
width = 755;
},
{
components = (
{
name = O;
},
{
name = circumflex;
transform = "{1, 0, 0, 1, 109, 107}";
}
);
layerId = "26DC72AF-247A-4505-B175-40140B6BEEEF";
name = Bold;
width = 755;
}
);
leftKerningGroup = O;
rightKerningGroup = O;
unicode = 00D4;
},
{
glyphname = Odieresis;
lastChange = "2015-07-10 21:44:47 +0000";
layers = (
{
background = {
paths = (
{
closed = 1;
nodes = (
"185 710 OFFCURVE",
"60 565 OFFCURVE",
"60 345 CURVE SMOOTH",
"60 115 OFFCURVE",
"170 -10 OFFCURVE",
"365 -10 CURVE SMOOTH",
"560 -10 OFFCURVE",
"695 140 OFFCURVE",
"695 360 CURVE SMOOTH",
"695 575 OFFCURVE",
"580 710 OFFCURVE",
"385 710 CURVE SMOOTH"
);
},
{
closed = 1;
nodes = (
"510 625 OFFCURVE",
"580 535 OFFCURVE",
"580 355 CURVE SMOOTH",
"580 165 OFFCURVE",
"500 75 OFFCURVE",
"370 75 CURVE SMOOTH",
"240 75 OFFCURVE",
"175 170 OFFCURVE",
"175 350 CURVE SMOOTH",
"175 540 OFFCURVE",
"250 625 OFFCURVE",
"380 625 CURVE SMOOTH"
);
},
{
closed = 1;
nodes = (
"245 885 OFFCURVE",
"220 863 OFFCURVE",
"220 825 CURVE SMOOTH",
"220 787 OFFCURVE",
"241 765 OFFCURVE",
"275 765 CURVE SMOOTH",
"305 765 OFFCURVE",
"330 787 OFFCURVE",
"330 825 CURVE SMOOTH",
"330 863 OFFCURVE",
"309 885 OFFCURVE",
"275 885 CURVE SMOOTH"
);
},
{
closed = 1;
nodes = (
"450 885 OFFCURVE",
"425 863 OFFCURVE",
"425 825 CURVE SMOOTH",
"425 787 OFFCURVE",
"446 765 OFFCURVE",
"480 765 CURVE SMOOTH",
"510 765 OFFCURVE",
"535 787 OFFCURVE",
"535 825 CURVE SMOOTH",
"535 863 OFFCURVE",
"514 885 OFFCURVE",
"480 885 CURVE SMOOTH"
);
}
);
};
components = (
{
name = O;
},
{
name = dieresis;
transform = "{1, 0, 0, 1, 120, 125}";
}
);
layerId = UUID0;
name = Regular;
width = 755;
},
{
components = (
{
name = O;
},
{
name = dieresis;
transform = "{1, 0, 0, 1, 104, 135}";
}
);
layerId = "26DC72AF-247A-4505-B175-40140B6BEEEF";
name = Bold;
width = 755;
}
);
leftKerningGroup = O;
rightKerningGroup = O;
unicode = 00D6;
},
{
glyphname = Ohungarumlaut;
lastChange = "2015-07-10 21:47:55 +0000";
layers = (
{
background = {
paths = (
{
closed = 1;
nodes = (
"397 883 LINE",
"331 941 LINE",
"201 775 LINE",
"255 733 LINE"
);
},
{
closed = 1;
nodes = (
"592 883 LINE",
"526 941 LINE",
"396 775 LINE",
"450 733 LINE"
);
},
{
closed = 1;
nodes = (
"185 710 OFFCURVE",
"60 565 OFFCURVE",
"60 345 CURVE SMOOTH",
"60 115 OFFCURVE",
"170 -10 OFFCURVE",
"365 -10 CURVE SMOOTH",
"560 -10 OFFCURVE",
"695 140 OFFCURVE",
"695 360 CURVE SMOOTH",
"695 575 OFFCURVE",
"580 710 OFFCURVE",
"385 710 CURVE SMOOTH"
);
},
{
closed = 1;
nodes = (
"510 625 OFFCURVE",
"580 535 OFFCURVE",
"580 355 CURVE SMOOTH",
"580 165 OFFCURVE",
"500 75 OFFCURVE",
"370 75 CURVE SMOOTH",
"240 75 OFFCURVE",
"175 170 OFFCURVE",
"175 350 CURVE SMOOTH",
"175 540 OFFCURVE",
"250 625 OFFCURVE",
"380 625 CURVE SMOOTH"
);
}
);
};
components = (
{
disableAlignment = 1;
name = O;
}
);
guideLines = (
{
position = "{662, 934}";
}
);
layerId = UUID0;
name = Regular;
paths = (
{
closed = 1;
nodes = (
"592 883 LINE",
"526 941 LINE",
"396 775 LINE",
"450 733 LINE"
);
},
{
closed = 1;
nodes = (
"397 883 LINE",
"331 941 LINE",
"201 775 LINE",
"255 733 LINE"
);
}
);
width = 755;
},
{
components = (
{
name = O;
}
);
guideLines = (
{
position = "{535, 735}";
}
);
layerId = "26DC72AF-247A-4505-B175-40140B6BEEEF";
name = Bold;
paths = (
{
closed = 1;
nodes = (
"666 904 LINE",
"585 987 LINE",
"408 797 LINE",
"471 735 LINE"
);
},
{
closed = 1;
nodes = (
"429 904 LINE",
"348 987 LINE",
"171 797 LINE",
"234 735 LINE"
);
}
);
width = 755;
}
);
leftKerningGroup = O;
leftMetricsKey = O;
rightKerningGroup = O;
rightMetricsKey = O;
unicode = 0150;
},
{
glyphname = Omacron;
lastChange = "2015-07-10 21:45:39 +0000";
layers = (
{
background = {
paths = (
{
closed = 1;
nodes = (
"185 710 OFFCURVE",
"60 565 OFFCURVE",
"60 345 CURVE SMOOTH",
"60 115 OFFCURVE",
"170 -10 OFFCURVE",
"365 -10 CURVE SMOOTH",
"560 -10 OFFCURVE",
"695 140 OFFCURVE",
"695 360 CURVE SMOOTH",
"695 575 OFFCURVE",
"580 710 OFFCURVE",
"385 710 CURVE SMOOTH"
);
},
{
closed = 1;
nodes = (
"510 625 OFFCURVE",
"580 535 OFFCURVE",
"580 355 CURVE SMOOTH",
"580 165 OFFCURVE",
"500 75 OFFCURVE",
"370 75 CURVE SMOOTH",
"240 75 OFFCURVE",
"175 170 OFFCURVE",
"175 350 CURVE SMOOTH",
"175 540 OFFCURVE",
"250 625 OFFCURVE",
"380 625 CURVE SMOOTH"
);
},
{
closed = 1;
nodes = (
"247 865 LINE",
"247 790 LINE",
"517 790 LINE",
"517 865 LINE"
);
}
);
};
components = (
{
name = O;
},
{
name = macron;
transform = "{1, 0, 0, 1, 242, 130}";
}
);
layerId = UUID0;
name = Regular;
width = 755;
},
{
components = (
{
name = O;
},
{
name = macron;
transform = "{1, 0, 0, 1, 233, 160}";
}
);
layerId = "26DC72AF-247A-4505-B175-40140B6BEEEF";
name = Bold;
width = 755;
}
);
leftKerningGroup = O;
rightKerningGroup = O;
unicode = 014C;
},
{
glyphname = Oslash;
lastChange = "2015-07-10 21:46:00 +0000";
layers = (
{
layerId = UUID0;
name = Regular;
paths = (
{
closed = 1;
nodes = (
"225 20 LINE",
"266 0 OFFCURVE",
"314 -10 OFFCURVE",
"370 -10 CURVE SMOOTH",
"565 -10 OFFCURVE",
"700 140 OFFCURVE",
"700 360 CURVE SMOOTH",
"700 481 OFFCURVE",
"663 576 OFFCURVE",
"597 637 CURVE",
"665 750 LINE",
"600 785 LINE",
"536 678 LINE",
"494 699 OFFCURVE",
"445 710 OFFCURVE",
"390 710 CURVE SMOOTH",
"190 710 OFFCURVE",
"65 565 OFFCURVE",
"65 345 CURVE SMOOTH",
"65 216 OFFCURVE",
"99 120 OFFCURVE",
"164 61 CURVE",
"85 -70 LINE",
"150 -105 LINE"
);
},
{
closed = 1;
nodes = (
"194 202 OFFCURVE",
"180 267 OFFCURVE",
"180 350 CURVE SMOOTH",
"180 540 OFFCURVE",
"255 625 OFFCURVE",
"385 625 CURVE SMOOTH",
"425 625 OFFCURVE",
"459 616 OFFCURVE",
"488 599 CURVE",
"221 156 LINE"
);
},
{
closed = 1;
nodes = (
"335 75 OFFCURVE",
"301 84 OFFCURVE",
"274 101 CURVE",
"542 546 LINE",
"570 501 OFFCURVE",
"585 437 OFFCURVE",
"585 355 CURVE SMOOTH",
"585 165 OFFCURVE",
"505 75 OFFCURVE",
"375 75 CURVE SMOOTH"
);
}
);
width = 765;
},
{
layerId = "26DC72AF-247A-4505-B175-40140B6BEEEF";
name = Bold;
paths = (
{
closed = 1;
nodes = (
"235 12 LINE",
"274 -4 OFFCURVE",
"319 -12 OFFCURVE",
"370 -12 CURVE SMOOTH",
"570 -12 OFFCURVE",
"705 137 OFFCURVE",
"705 362 CURVE SMOOTH",
"705 479 OFFCURVE",
"673 572 OFFCURVE",
"613 633 CURVE",
"680 742 LINE",
"591 793 LINE",
"529 690 LINE",
"488 708 OFFCURVE",
"442 717 OFFCURVE",
"390 717 CURVE SMOOTH",
"188 717 OFFCURVE",
"60 577 OFFCURVE",
"60 347 CURVE SMOOTH",
"60 223 OFFCURVE",
"91 129 OFFCURVE",
"150 69 CURVE",
"72 -59 LINE",
"161 -110 LINE"
);
},
{
closed = 1;
nodes = (
"234 264 OFFCURVE",
"228 311 OFFCURVE",
"228 363 CURVE SMOOTH",
"228 530 OFFCURVE",
"286 592 OFFCURVE",
"385 592 CURVE SMOOTH",
"413 592 OFFCURVE",
"437 586 OFFCURVE",
"458 575 CURVE",
"249 231 LINE"
);
},
{
closed = 1;
nodes = (
"348 112 OFFCURVE",
"325 118 OFFCURVE",
"306 129 CURVE",
"516 473 LINE",
"530 444 OFFCURVE",
"538 406 OFFCURVE",
"538 357 CURVE SMOOTH",
"538 181 OFFCURVE",
"475 112 OFFCURVE",
"375 112 CURVE SMOOTH"
);
}
);
width = 765;
}
);
leftKerningGroup = O;
rightKerningGroup = O;
unicode = 00D8;
},
{
glyphname = Otilde;
lastChange = "2015-07-10 21:48:06 +0000";
layers = (
{
components = (
{
name = O;
}
);
layerId = UUID0;
name = Regular;
paths = (
{
closed = 1;
nodes = (
"224 890 OFFCURVE",
"184 796 OFFCURVE",
"184 796 CURVE",
"219 766 LINE",
"219 766 OFFCURVE",
"249 810 OFFCURVE",
"289 810 CURVE SMOOTH",
"349 810 OFFCURVE",
"394 766 OFFCURVE",
"464 766 CURVE SMOOTH",
"534 766 OFFCURVE",
"569 856 OFFCURVE",
"569 856 CURVE",
"534 886 LINE",
"534 886 OFFCURVE",
"509 844 OFFCURVE",
"469 844 CURVE SMOOTH",
"409 844 OFFCURVE",
"364 890 OFFCURVE",
"294 890 CURVE SMOOTH"
);
}
);
width = 755;
},
{
components = (
{
name = O;
}
);
layerId = "26DC72AF-247A-4505-B175-40140B6BEEEF";
name = Bold;
paths = (
{
closed = 1;
nodes = (
"206 926 OFFCURVE",
"164 816 OFFCURVE",
"164 816 CURVE",
"212 777 LINE",
"212 777 OFFCURVE",
"242 815 OFFCURVE",
"284 815 CURVE SMOOTH",
"344 815 OFFCURVE",
"382 776 OFFCURVE",
"452 776 CURVE SMOOTH",
"535 776 OFFCURVE",
"587 880 OFFCURVE",
"587 880 CURVE",
"532 922 LINE",
"532 922 OFFCURVE",
"502 880 OFFCURVE",
"463 880 CURVE SMOOTH",
"403 880 OFFCURVE",
"359 926 OFFCURVE",
"289 926 CURVE SMOOTH"
);
}
);
width = 755;
}
);
leftKerningGroup = O;
leftMetricsKey = O;
rightKerningGroup = O;
rightMetricsKey = O;
unicode = 00D5;
},
{
glyphname = OE;
lastChange = "2015-07-10 21:48:25 +0000";
layers = (
{
layerId = UUID0;
name = Regular;
paths = (
{
closed = 1;
nodes = (
"425 -5 OFFCURVE",
"490 0 OFFCURVE",
"525 0 CURVE SMOOTH",
"875 0 LINE",
"875 180 LINE",
"810 180 LINE",
"790 80 LINE",
"560 80 LINE",
"560 325 LINE",
"790 325 LINE",
"790 405 LINE",
"560 405 LINE",
"560 620 LINE",
"775 620 LINE",
"800 530 LINE",
"865 530 LINE",
"865 700 LINE",
"535 700 LINE",
"495 700 OFFCURVE",
"435 705 OFFCURVE",
"385 705 CURVE SMOOTH",
"185 705 OFFCURVE",
"60 565 OFFCURVE",
"60 345 CURVE SMOOTH",
"60 115 OFFCURVE",
"170 -5 OFFCURVE",
"365 -5 CURVE SMOOTH"
);
},
{
closed = 1;
nodes = (
"240 75 OFFCURVE",
"175 170 OFFCURVE",
"175 350 CURVE SMOOTH",
"175 540 OFFCURVE",
"250 625 OFFCURVE",
"380 625 CURVE SMOOTH",
"410 625 OFFCURVE",
"455 620 OFFCURVE",
"455 620 CURVE",
"455 80 LINE",
"455 80 OFFCURVE",
"405 75 OFFCURVE",
"370 75 CURVE SMOOTH"
);
}
);
width = 935;
},
{
layerId = "26DC72AF-247A-4505-B175-40140B6BEEEF";
name = Bold;
paths = (
{
closed = 1;
nodes = (
"427 -10 OFFCURVE",
"500 0 OFFCURVE",
"549 0 CURVE SMOOTH",
"909 0 LINE",
"909 200 LINE",
"817 200 LINE",
"794 120 LINE",
"617 120 LINE",
"617 310 LINE",
"819 310 LINE",
"819 420 LINE",
"617 420 LINE",
"617 585 LINE",
"779 585 LINE",
"804 510 LINE",
"897 510 LINE",
"897 705 LINE",
"562 705 LINE SMOOTH",
"509 705 OFFCURVE",
"443 715 OFFCURVE",
"385 715 CURVE SMOOTH",
"183 715 OFFCURVE",
"55 577 OFFCURVE",
"55 347 CURVE SMOOTH",
"55 112 OFFCURVE",
"165 -10 OFFCURVE",
"365 -10 CURVE SMOOTH"
);
},
{
closed = 1;
nodes = (
"271 115 OFFCURVE",
"223 187 OFFCURVE",
"223 352 CURVE SMOOTH",
"223 538 OFFCURVE",
"283 589 OFFCURVE",
"391 589 CURVE SMOOTH",
"413 589 OFFCURVE",
"455 586 OFFCURVE",
"462 585 CURVE",
"462 120 LINE",
"449 120 OFFCURVE",
"408 115 OFFCURVE",
"373 115 CURVE SMOOTH"
);
}
);
width = 964;
}
);
leftKerningGroup = O;
leftMetricsKey = O;
rightKerningGroup = E;
rightMetricsKey = E;
unicode = 0152;
},
{
glyphname = P;
lastChange = "2015-07-10 20:21:37 +0000";
layers = (
{
layerId = UUID0;
name = Regular;
paths = (
{
closed = 1;
nodes = (
"315 0 LINE",
"315 60 LINE",
"230 80 LINE",
"230 260 LINE",
"295 260 LINE SMOOTH",
"465 260 OFFCURVE",
"565 340 OFFCURVE",
"565 495 CURVE SMOOTH",
"565 620 OFFCURVE",
"485 700 OFFCURVE",
"335 700 CURVE SMOOTH",
"230 700 LINE",
"40 695 LINE",
"40 640 LINE",
"125 620 LINE",
"125 80 LINE",
"40 60 LINE",
"40 0 LINE"
);
},
{
closed = 1;
nodes = (
"230 620 LINE",
"330 620 LINE",
"415 620 OFFCURVE",
"460 560 OFFCURVE",
"460 480 CURVE SMOOTH",
"460 390 OFFCURVE",
"405 340 OFFCURVE",
"295 340 CURVE SMOOTH",
"230 340 LINE"
);
}
);
width = 590;
},
{
layerId = "26DC72AF-247A-4505-B175-40140B6BEEEF";
name = Bold;
paths = (
{
closed = 1;
nodes = (
"340 0 LINE",
"340 85 LINE",
"265 115 LINE",
"265 245 LINE",
"318 245 LINE SMOOTH",
"500 245 OFFCURVE",
"603 327 OFFCURVE",
"603 495 CURVE SMOOTH",
"603 625 OFFCURVE",
"513 705 OFFCURVE",
"360 705 CURVE SMOOTH",
"265 705 LINE",
"35 700 LINE",
"35 615 LINE",
"110 585 LINE",
"110 115 LINE",
"35 85 LINE",
"35 0 LINE"
);
},
{
closed = 1;
nodes = (
"265 585 LINE",
"345 585 LINE SMOOTH",
"413 585 OFFCURVE",
"448 540 OFFCURVE",
"448 475 CURVE SMOOTH",
"448 401 OFFCURVE",
"401 362 OFFCURVE",
"318 362 CURVE SMOOTH",
"265 362 LINE"
);
}
);
width = 623;
}
);
leftKerningGroup = H;
rightKerningGroup = P;
unicode = 0050;
},
{
glyphname = Thorn;
lastChange = "2015-07-10 21:48:32 +0000";
layers = (
{
layerId = UUID0;
name = Regular;
paths = (
{
closed = 1;
nodes = (
"315 0 LINE",
"315 60 LINE",
"230 80 LINE",
"230 155 LINE",
"300 155 LINE SMOOTH",
"470 155 OFFCURVE",
"565 235 OFFCURVE",
"565 380 CURVE SMOOTH",
"565 495 OFFCURVE",
"480 565 OFFCURVE",
"335 565 CURVE SMOOTH",
"230 565 LINE",
"230 620 LINE",
"315 640 LINE",
"315 700 LINE",
"40 695 LINE",
"40 640 LINE",
"125 620 LINE",
"125 80 LINE",
"40 60 LINE",
"40 0 LINE"
);
},
{
closed = 1;
nodes = (
"230 485 LINE",
"330 485 LINE",
"415 485 OFFCURVE",
"465 435 OFFCURVE",
"465 365 CURVE SMOOTH",
"465 280 OFFCURVE",
"405 235 OFFCURVE",
"300 235 CURVE SMOOTH",
"230 235 LINE"
);
}
);
width = 595;
},
{
layerId = "26DC72AF-247A-4505-B175-40140B6BEEEF";
name = Bold;
paths = (
{
closed = 1;
nodes = (
"350 0 LINE",
"350 85 LINE",
"265 115 LINE",
"265 160 LINE",
"319 160 LINE SMOOTH",
"490 160 OFFCURVE",
"604 221 OFFCURVE",
"604 370 CURVE SMOOTH",
"604 490 OFFCURVE",
"514 555 OFFCURVE",
"364 555 CURVE SMOOTH",
"265 555 LINE",
"265 585 LINE",
"350 615 LINE",
"350 705 LINE",
"35 700 LINE",
"35 615 LINE",
"110 585 LINE",
"110 115 LINE",
"35 85 LINE",
"35 0 LINE"
);
},
{
closed = 1;
nodes = (
"265 445 LINE",
"346 445 LINE",
"409 445 OFFCURVE",
"451 415 OFFCURVE",
"451 360 CURVE SMOOTH",
"451 297 OFFCURVE",
"404 267 OFFCURVE",
"329 267 CURVE SMOOTH",
"265 267 LINE"
);
}
);
width = 629;
}
);
leftKerningGroup = P;
unicode = 00DE;
},
{
glyphname = Q;
lastChange = "2015-07-10 20:22:42 +0000";
layers = (
{
layerId = UUID0;
name = Regular;
paths = (
{
closed = 1;
nodes = (
"725 -185 OFFCURVE",
"825 -125 OFFCURVE",
"825 -125 CURVE",
"785 -65 LINE",
"785 -65 OFFCURVE",
"725 -100 OFFCURVE",
"690 -100 CURVE SMOOTH",
"649 -100 OFFCURVE",
"633 -88 OFFCURVE",
"477 5 CURVE",
"618 47 OFFCURVE",
"705 180 OFFCURVE",
"705 360 CURVE SMOOTH",
"705 575 OFFCURVE",
"595 710 OFFCURVE",
"395 710 CURVE SMOOTH",
"195 710 OFFCURVE",
"60 565 OFFCURVE",
"60 345 CURVE SMOOTH",
"60 128 OFFCURVE",
"162 5 OFFCURVE",
"341 -8 CURVE",
"540 -130 LINE SMOOTH",
"580 -154 OFFCURVE",
"630 -185 OFFCURVE",
"670 -185 CURVE SMOOTH"
);
},
{
closed = 1;
nodes = (
"240 75 OFFCURVE",
"170 175 OFFCURVE",
"170 350 CURVE SMOOTH",
"170 535 OFFCURVE",
"250 625 OFFCURVE",
"390 625 CURVE SMOOTH",
"530 625 OFFCURVE",
"595 530 OFFCURVE",
"595 355 CURVE SMOOTH",
"595 170 OFFCURVE",
"520 75 OFFCURVE",
"380 75 CURVE SMOOTH"
);
}
);
width = 740;
},
{
layerId = "26DC72AF-247A-4505-B175-40140B6BEEEF";
name = Bold;
paths = (
{
closed = 1;
nodes = (
"735 -200 OFFCURVE",
"840 -130 OFFCURVE",
"840 -130 CURVE",
"787 -50 LINE",
"787 -50 OFFCURVE",
"727 -85 OFFCURVE",
"695 -85 CURVE SMOOTH",
"634 -85 OFFCURVE",
"562 -27 OFFCURVE",
"502 11 CURVE",
"631 61 OFFCURVE",
"710 189 OFFCURVE",
"710 362 CURVE SMOOTH",
"710 585 OFFCURVE",
"597 717 OFFCURVE",
"392 717 CURVE SMOOTH",
"185 717 OFFCURVE",
"55 575 OFFCURVE",
"55 347 CURVE SMOOTH",
"55 124 OFFCURVE",
"156 1 OFFCURVE",
"340 -11 CURVE",
"542 -147 LINE SMOOTH",
"586 -177 OFFCURVE",
"627 -200 OFFCURVE",
"670 -200 CURVE SMOOTH"
);
},
{
closed = 1;
nodes = (
"270 112 OFFCURVE",
"220 192 OFFCURVE",
"220 352 CURVE SMOOTH",
"220 520 OFFCURVE",
"275 592 OFFCURVE",
"387 592 CURVE SMOOTH",
"497 592 OFFCURVE",
"545 517 OFFCURVE",
"545 357 CURVE SMOOTH",
"545 190 OFFCURVE",
"490 112 OFFCURVE",
"377 112 CURVE SMOOTH"
);
}
);
width = 742;
}
);
leftKerningGroup = O;
rightKerningGroup = O;
unicode = 0051;
},
{
glyphname = R;
lastChange = "2015-07-10 20:21:37 +0000";
layers = (
{
layerId = UUID0;
name = Regular;
paths = (
{
closed = 1;
nodes = (
"315 0 LINE",
"315 60 LINE",
"230 80 LINE",
"230 305 LINE",
"275 305 LINE SMOOTH",
"341 305 OFFCURVE",
"363 285 OFFCURVE",
"410 185 CURVE SMOOTH",
"495 0 LINE",
"645 0 LINE",
"645 60 LINE",
"574 76 LINE",
"495 235 LINE SMOOTH",
"469 285 OFFCURVE",
"451 311 OFFCURVE",
"435 325 CURVE",
"521 357 OFFCURVE",
"565 423 OFFCURVE",
"565 520 CURVE SMOOTH",
"565 632 OFFCURVE",
"481 700 OFFCURVE",
"340 700 CURVE SMOOTH",
"230 700 LINE",
"40 695 LINE",
"40 640 LINE",
"125 620 LINE",
"125 80 LINE",
"40 60 LINE",
"40 0 LINE"
);
},
{
closed = 1;
nodes = (
"230 620 LINE",
"335 620 LINE",
"408 620 OFFCURVE",
"460 572 OFFCURVE",
"460 505 CURVE SMOOTH",
"460 426 OFFCURVE",
"403 380 OFFCURVE",
"305 380 CURVE SMOOTH",
"230 380 LINE"
);
}
);
width = 650;
},
{
layerId = "26DC72AF-247A-4505-B175-40140B6BEEEF";
name = Bold;
paths = (
{
closed = 1;
nodes = (
"337 0 LINE",
"337 85 LINE",
"265 115 LINE",
"265 277 LINE",
"300 277 LINE SMOOTH",
"353 277 OFFCURVE",
"362 261 OFFCURVE",
"396 185 CURVE SMOOTH",
"480 0 LINE",
"665 0 LINE",
"665 85 LINE",
"597 110 LINE",
"530 247 LINE SMOOTH",
"514 280 OFFCURVE",
"499 299 OFFCURVE",
"488 312 CURVE",
"556 346 OFFCURVE",
"601 407 OFFCURVE",
"601 501 CURVE SMOOTH",
"601 637 OFFCURVE",
"505 705 OFFCURVE",
"341 705 CURVE SMOOTH",
"265 705 LINE",
"35 700 LINE",
"35 615 LINE",
"110 585 LINE",
"110 115 LINE",
"35 85 LINE",
"35 0 LINE"
);
},
{
closed = 1;
nodes = (
"265 585 LINE",
"347 585 LINE SMOOTH",
"409 585 OFFCURVE",
"447 544 OFFCURVE",
"447 487 CURVE SMOOTH",
"447 420 OFFCURVE",
"401 382 OFFCURVE",
"322 382 CURVE SMOOTH",
"265 382 LINE"
);
}
);
width = 675;
}
);
leftKerningGroup = R;
rightKerningGroup = R;
unicode = 0052;
},
{
glyphname = S;
lastChange = "2015-07-10 20:21:37 +0000";
layers = (
{
layerId = UUID0;
name = Regular;
paths = (
{
closed = 1;
nodes = (
"416 -10 OFFCURVE",
"537 59 OFFCURVE",
"537 209 CURVE SMOOTH",
"537 434 OFFCURVE",
"177 376 OFFCURVE",
"177 528 CURVE SMOOTH",
"177 578 OFFCURVE",
"220 625 OFFCURVE",
"310 625 CURVE SMOOTH",
"365 625 OFFCURVE",
"416 607 OFFCURVE",
"416 607 CURVE",
"450 500 LINE",
"515 500 LINE",
"520 670 LINE",
"520 670 OFFCURVE",
"404 710 OFFCURVE",
"309 710 CURVE SMOOTH",
"184 710 OFFCURVE",
"72 651 OFFCURVE",
"72 511 CURVE SMOOTH",
"72 272 OFFCURVE",
"433 336 OFFCURVE",
"433 182 CURVE SMOOTH",
"433 111 OFFCURVE",
"353 75 OFFCURVE",
"280 75 CURVE SMOOTH",
"215 75 OFFCURVE",
"170 100 OFFCURVE",
"170 100 CURVE",
"150 205 LINE",
"70 205 LINE",
"70 30 LINE",
"70 30 OFFCURVE",
"171 -10 OFFCURVE",
"276 -10 CURVE SMOOTH"
);
}
);
width = 597;
},
{
layerId = "26DC72AF-247A-4505-B175-40140B6BEEEF";
name = Bold;
paths = (
{
closed = 1;
nodes = (
"439 -13 OFFCURVE",
"555 69 OFFCURVE",
"555 219 CURVE SMOOTH",
"555 454 OFFCURVE",
"218 408 OFFCURVE",
"218 524 CURVE SMOOTH",
"218 564 OFFCURVE",
"253 595 OFFCURVE",
"324 595 CURVE SMOOTH",
"367 595 OFFCURVE",
"412 580 OFFCURVE",
"412 580 CURVE",
"437 495 LINE",
"529 495 LINE",
"534 677 LINE",
"534 677 OFFCURVE",
"427 717 OFFCURVE",
"314 717 CURVE SMOOTH",
"169 717 OFFCURVE",
"60 643 OFFCURVE",
"60 505 CURVE SMOOTH",
"60 258 OFFCURVE",
"398 310 OFFCURVE",
"398 193 CURVE SMOOTH",
"398 140 OFFCURVE",
"341 112 OFFCURVE",
"277 112 CURVE SMOOTH",
"219 112 OFFCURVE",
"179 133 OFFCURVE",
"179 133 CURVE",
"164 217 LINE",
"62 217 LINE",
"62 25 LINE",
"62 25 OFFCURVE",
"172 -13 OFFCURVE",
"285 -13 CURVE SMOOTH"
);
}
);
width = 605;
}
);
leftKerningGroup = S;
rightKerningGroup = S;
unicode = 0053;
},
{
glyphname = Scedilla;
lastChange = "2015-07-10 21:49:00 +0000";
layers = (
{
background = {
paths = (
{
closed = 1;
nodes = (
"184 710 OFFCURVE",
"72 651 OFFCURVE",
"72 511 CURVE SMOOTH",
"72 272 OFFCURVE",
"433 336 OFFCURVE",
"433 182 CURVE SMOOTH",
"433 111 OFFCURVE",
"353 75 OFFCURVE",
"280 75 CURVE SMOOTH",
"215 75 OFFCURVE",
"170 100 OFFCURVE",
"170 100 CURVE",
"150 205 LINE",
"70 205 LINE",
"70 30 LINE",
"70 30 OFFCURVE",
"160 -5 OFFCURVE",
"259 -9 CURVE",
"259 -79 LINE",
"310 -79 OFFCURVE",
"341 -97 OFFCURVE",
"341 -128 CURVE SMOOTH",
"341 -154 OFFCURVE",
"319 -171 OFFCURVE",
"286 -171 CURVE SMOOTH",
"250 -171 OFFCURVE",
"209 -150 OFFCURVE",
"209 -150 CURVE",
"185 -191 LINE",
"185 -191 OFFCURVE",
"232 -219 OFFCURVE",
"297 -219 CURVE SMOOTH",
"362 -219 OFFCURVE",
"406 -183 OFFCURVE",
"406 -130 CURVE SMOOTH",
"406 -84 OFFCURVE",
"373 -52 OFFCURVE",
"319 -43 CURVE",
"319 -8 LINE",
"440 5 OFFCURVE",
"537 74 OFFCURVE",
"537 209 CURVE SMOOTH",
"537 434 OFFCURVE",
"177 376 OFFCURVE",
"177 528 CURVE SMOOTH",
"177 578 OFFCURVE",
"220 625 OFFCURVE",
"310 625 CURVE SMOOTH",
"365 625 OFFCURVE",
"416 607 OFFCURVE",
"416 607 CURVE",
"450 500 LINE",
"515 500 LINE",
"520 670 LINE",
"520 670 OFFCURVE",
"404 710 OFFCURVE",
"309 710 CURVE SMOOTH"
);
}
);
};
components = (
{
name = S;
},
{
name = cedilla;
transform = "{1, 0, 0, 1, 75, 0}";
}
);
layerId = UUID0;
name = Regular;
width = 597;
},
{
components = (
{
name = S;
},
{
name = cedilla;
transform = "{1, 0, 0, 1, 80, 0}";
}
);
layerId = "26DC72AF-247A-4505-B175-40140B6BEEEF";
name = Bold;
width = 605;
}
);
leftKerningGroup = S;
rightKerningGroup = S;
unicode = 015E;
},
{
glyphname = Scircumflex;
lastChange = "2015-07-10 21:49:20 +0000";
layers = (
{
background = {
paths = (
{
closed = 1;
nodes = (
"184 710 OFFCURVE",
"72 651 OFFCURVE",
"72 511 CURVE SMOOTH",
"72 272 OFFCURVE",
"433 336 OFFCURVE",
"433 182 CURVE SMOOTH",
"433 111 OFFCURVE",
"353 75 OFFCURVE",
"280 75 CURVE SMOOTH",
"215 75 OFFCURVE",
"170 100 OFFCURVE",
"170 100 CURVE",
"150 205 LINE",
"70 205 LINE",
"70 30 LINE",
"70 30 OFFCURVE",
"171 -10 OFFCURVE",
"276 -10 CURVE SMOOTH",
"416 -10 OFFCURVE",
"537 59 OFFCURVE",
"537 209 CURVE SMOOTH",
"537 434 OFFCURVE",
"177 376 OFFCURVE",
"177 528 CURVE SMOOTH",
"177 578 OFFCURVE",
"220 625 OFFCURVE",
"310 625 CURVE SMOOTH",
"365 625 OFFCURVE",
"416 607 OFFCURVE",
"416 607 CURVE",
"450 500 LINE",
"515 500 LINE",
"520 670 LINE",
"520 670 OFFCURVE",
"404 710 OFFCURVE",
"309 710 CURVE SMOOTH"
);
},
{
closed = 1;
nodes = (
"272 915 LINE",
"127 795 LINE",
"167 750 LINE",
"304 843 LINE",
"437 750 LINE",
"477 795 LINE",
"332 920 LINE"
);
}
);
};
components = (
{
name = S;
},
{
name = circumflex;
transform = "{1, 0, 0, 1, 42, 100}";
}
);
layerId = UUID0;
name = Regular;
width = 597;
},
{
components = (
{
name = S;
},
{
name = circumflex;
transform = "{1, 0, 0, 1, 31, 107}";
}
);
layerId = "26DC72AF-247A-4505-B175-40140B6BEEEF";
name = Bold;
width = 605;
}
);
leftKerningGroup = S;
rightKerningGroup = S;
unicode = 015C;
},
{
glyphname = T;
lastChange = "2015-07-10 20:21:37 +0000";
layers = (
{
layerId = UUID0;
name = Regular;
paths = (
{
closed = 1;
nodes = (
"435 0 LINE",
"435 60 LINE",
"335 80 LINE",
"335 620 LINE",
"465 620 LINE",
"490 520 LINE",
"555 520 LINE",
"555 700 LINE",
"10 700 LINE",
"10 520 LINE",
"75 520 LINE",
"100 620 LINE",
"230 620 LINE",
"230 80 LINE",
"130 60 LINE",
"130 0 LINE"
);
}
);
width = 565;
},
{
layerId = "26DC72AF-247A-4505-B175-40140B6BEEEF";
name = Bold;
paths = (
{
closed = 1;
nodes = (
"472 0 LINE",
"472 85 LINE",
"377 115 LINE",
"377 585 LINE",
"472 585 LINE",
"497 490 LINE",
"590 490 LINE",
"590 705 LINE",
"10 705 LINE",
"10 490 LINE",
"102 490 LINE",
"127 585 LINE",
"222 585 LINE",
"222 115 LINE",
"127 85 LINE",
"127 0 LINE"
);
}
);
width = 600;
}
);
leftKerningGroup = T;
rightKerningGroup = T;
unicode = 0054;
},
{
glyphname = Tbar;
lastChange = "2015-07-10 21:49:33 +0000";
layers = (
{
layerId = UUID0;
name = Regular;
paths = (
{
closed = 1;
nodes = (
"435 0 LINE",
"435 60 LINE",
"335 80 LINE",
"335 315 LINE",
"483 315 LINE",
"483 395 LINE",
"335 395 LINE",
"335 620 LINE",
"465 620 LINE",
"490 520 LINE",
"555 520 LINE",
"555 700 LINE",
"10 700 LINE",
"10 520 LINE",
"75 520 LINE",
"100 620 LINE",
"230 620 LINE",
"230 395 LINE",
"83 395 LINE",
"83 315 LINE",
"230 315 LINE",
"230 80 LINE",
"130 60 LINE",
"130 0 LINE"
);
}
);
width = 565;
},
{
guideLines = (
{
position = "{149, 410}";
},
{
position = "{86, 300}";
}
);
layerId = "26DC72AF-247A-4505-B175-40140B6BEEEF";
name = Bold;
paths = (
{
closed = 1;
nodes = (
"472 0 LINE",
"472 85 LINE",
"377 115 LINE",
"377 300 LINE",
"512 300 LINE",
"512 395 LINE",
"377 395 LINE",
"377 585 LINE",
"472 585 LINE",
"497 490 LINE",
"590 490 LINE",
"590 705 LINE",
"10 705 LINE",
"10 490 LINE",
"102 490 LINE",
"127 585 LINE",
"222 585 LINE",
"222 395 LINE",
"87 395 LINE",
"87 300 LINE",
"222 300 LINE",
"222 115 LINE",
"127 85 LINE",
"127 0 LINE"
);
}
);
width = 600;
}
);
leftKerningGroup = T;
rightKerningGroup = T;
unicode = 0166;
},
{
glyphname = U;
lastChange = "2015-07-10 20:21:37 +0000";
layers = (
{
layerId = UUID0;
name = Regular;
paths = (
{
closed = 1;
nodes = (
"600 -10 OFFCURVE",
"665 100 OFFCURVE",
"665 285 CURVE SMOOTH",
"665 620 LINE",
"750 640 LINE",
"750 700 LINE",
"465 695 LINE",
"465 640 LINE",
"560 620 LINE",
"560 285 LINE SMOOTH",
"560 130 OFFCURVE",
"520 75 OFFCURVE",
"395 75 CURVE SMOOTH",
"280 75 OFFCURVE",
"230 120 OFFCURVE",
"230 270 CURVE SMOOTH",
"230 620 LINE",
"325 640 LINE",
"325 700 LINE",
"40 695 LINE",
"40 640 LINE",
"125 620 LINE",
"125 270 LINE SMOOTH",
"125 85 OFFCURVE",
"195 -10 OFFCURVE",
"390 -10 CURVE SMOOTH"
);
}
);
width = 790;
},
{
layerId = "26DC72AF-247A-4505-B175-40140B6BEEEF";
name = Bold;
paths = (
{
closed = 1;
nodes = (
"605 -12 OFFCURVE",
"679 92 OFFCURVE",
"679 285 CURVE SMOOTH",
"679 585 LINE",
"754 615 LINE",
"754 705 LINE",
"446 700 LINE",
"446 615 LINE",
"524 585 LINE",
"524 285 LINE SMOOTH",
"524 167 OFFCURVE",
"501 110 OFFCURVE",
"395 110 CURVE SMOOTH",
"297 110 OFFCURVE",
"264 155 OFFCURVE",
"264 270 CURVE SMOOTH",
"264 585 LINE",
"342 615 LINE",
"342 705 LINE",
"35 700 LINE",
"35 615 LINE",
"109 585 LINE",
"109 270 LINE SMOOTH",
"109 77 OFFCURVE",
"189 -12 OFFCURVE",
"390 -12 CURVE SMOOTH"
);
}
);
width = 789;
}
);
leftKerningGroup = U;
rightKerningGroup = U;
unicode = 0055;
},
{
glyphname = Ubreve;
lastChange = "2015-07-10 17:16:23 +0000";
layers = (
{
background = {
paths = (
{
closed = 1;
nodes = (
"665 620 LINE",
"750 640 LINE",
"750 700 LINE",
"465 695 LINE",
"465 640 LINE",
"560 620 LINE",
"560 285 LINE SMOOTH",
"560 130 OFFCURVE",
"520 75 OFFCURVE",
"395 75 CURVE SMOOTH",
"280 75 OFFCURVE",
"230 120 OFFCURVE",
"230 270 CURVE SMOOTH",
"230 620 LINE",
"325 640 LINE",
"325 700 LINE",
"40 695 LINE",
"40 640 LINE",
"125 620 LINE",
"125 270 LINE SMOOTH",
"125 85 OFFCURVE",
"195 -10 OFFCURVE",
"390 -10 CURVE SMOOTH",
"600 -10 OFFCURVE",
"665 100 OFFCURVE",
"665 285 CURVE SMOOTH"
);
},
{
closed = 1;
nodes = (
"480 905 LINE",
"480 905 OFFCURVE",
"475 835 OFFCURVE",
"400 835 CURVE SMOOTH",
"330 835 OFFCURVE",
"320 910 OFFCURVE",
"320 910 CURVE",
"260 905 LINE",
"260 820 OFFCURVE",
"325 760 OFFCURVE",
"395 760 CURVE SMOOTH",
"475 760 OFFCURVE",
"540 820 OFFCURVE",
"540 910 CURVE"
);
}
);
};
components = (
{
disableAlignment = 1;
name = U;
},
{
disableAlignment = 1;
name = breve;
transform = "{1, 0, 0, 1, 180, 145}";
}
);
layerId = UUID0;
name = Regular;
width = 790;
},
{
components = (
{
name = U;
},
{
name = breve;
transform = "{1, 0, 0, 1, 180, 167}";
}
);
layerId = "26DC72AF-247A-4505-B175-40140B6BEEEF";
name = Bold;
width = 789;
}
);
leftKerningGroup = U;
rightKerningGroup = U;
unicode = 016C;
},
{
glyphname = Ucircumflex;
lastChange = "2015-07-10 21:50:11 +0000";
layers = (
{
background = {
paths = (
{
closed = 1;
nodes = (
"465 695 LINE",
"465 640 LINE",
"560 620 LINE",
"560 285 LINE SMOOTH",
"560 130 OFFCURVE",
"520 75 OFFCURVE",
"395 75 CURVE SMOOTH",
"280 75 OFFCURVE",
"230 120 OFFCURVE",
"230 270 CURVE SMOOTH",
"230 620 LINE",
"325 640 LINE",
"325 700 LINE",
"40 695 LINE",
"40 640 LINE",
"125 620 LINE",
"125 270 LINE SMOOTH",
"125 85 OFFCURVE",
"195 -10 OFFCURVE",
"390 -10 CURVE SMOOTH",
"600 -10 OFFCURVE",
"665 100 OFFCURVE",
"665 285 CURVE SMOOTH",
"665 620 LINE",
"750 640 LINE",
"750 700 LINE"
);
},
{
closed = 1;
nodes = (
"365 915 LINE",
"220 795 LINE",
"260 750 LINE",
"397 843 LINE",
"530 750 LINE",
"570 795 LINE",
"425 920 LINE"
);
}
);
};
components = (
{
name = U;
},
{
name = circumflex;
transform = "{1, 0, 0, 1, 135, 100}";
}
);
layerId = UUID0;
name = Regular;
width = 790;
},
{
components = (
{
name = U;
},
{
name = circumflex;
transform = "{1, 0, 0, 1, 120, 107}";
}
);
layerId = "26DC72AF-247A-4505-B175-40140B6BEEEF";
name = Bold;
width = 789;
}
);
leftKerningGroup = U;
rightKerningGroup = U;
unicode = 00DB;
},
{
glyphname = Udieresis;
lastChange = "2015-07-10 21:50:24 +0000";
layers = (
{
background = {
paths = (
{
closed = 1;
nodes = (
"465 695 LINE",
"465 640 LINE",
"560 620 LINE",
"560 285 LINE SMOOTH",
"560 130 OFFCURVE",
"520 75 OFFCURVE",
"395 75 CURVE SMOOTH",
"280 75 OFFCURVE",
"230 120 OFFCURVE",
"230 270 CURVE SMOOTH",
"230 620 LINE",
"325 640 LINE",
"325 700 LINE",
"40 695 LINE",
"40 640 LINE",
"125 620 LINE",
"125 270 LINE SMOOTH",
"125 85 OFFCURVE",
"195 -10 OFFCURVE",
"390 -10 CURVE SMOOTH",
"600 -10 OFFCURVE",
"665 100 OFFCURVE",
"665 285 CURVE SMOOTH",
"665 620 LINE",
"750 640 LINE",
"750 700 LINE"
);
},
{
closed = 1;
nodes = (
"260 885 OFFCURVE",
"235 863 OFFCURVE",
"235 825 CURVE SMOOTH",
"235 787 OFFCURVE",
"256 765 OFFCURVE",
"290 765 CURVE SMOOTH",
"320 765 OFFCURVE",
"345 787 OFFCURVE",
"345 825 CURVE SMOOTH",
"345 863 OFFCURVE",
"324 885 OFFCURVE",
"290 885 CURVE SMOOTH"
);
},
{
closed = 1;
nodes = (
"465 885 OFFCURVE",
"440 863 OFFCURVE",
"440 825 CURVE SMOOTH",
"440 787 OFFCURVE",
"461 765 OFFCURVE",
"495 765 CURVE SMOOTH",
"525 765 OFFCURVE",
"550 787 OFFCURVE",
"550 825 CURVE SMOOTH",
"550 863 OFFCURVE",
"529 885 OFFCURVE",
"495 885 CURVE SMOOTH"
);
}
);
};
components = (
{
name = U;
},
{
name = dieresis;
transform = "{1, 0, 0, 1, 135, 125}";
}
);
layerId = UUID0;
name = Regular;
width = 790;
},
{
components = (
{
name = U;
},
{
name = dieresis;
transform = "{1, 0, 0, 1, 123, 135}";
}
);
layerId = "26DC72AF-247A-4505-B175-40140B6BEEEF";
name = Bold;
width = 789;
}
);
leftKerningGroup = U;
rightKerningGroup = U;
unicode = 00DC;
},
{
glyphname = Uhungarumlaut;
lastChange = "2015-07-10 21:51:00 +0000";
layers = (
{
components = (
{
name = U;
}
);
layerId = UUID0;
name = Regular;
paths = (
{
closed = 1;
nodes = (
"612 883 LINE",
"546 941 LINE",
"416 775 LINE",
"470 733 LINE"
);
},
{
closed = 1;
nodes = (
"417 883 LINE",
"351 941 LINE",
"221 775 LINE",
"275 733 LINE"
);
}
);
width = 790;
},
{
components = (
{
name = U;
}
);
guideLines = (
{
position = "{484, 735}";
}
);
layerId = "26DC72AF-247A-4505-B175-40140B6BEEEF";
name = Bold;
paths = (
{
closed = 1;
nodes = (
"679 904 LINE",
"598 987 LINE",
"421 797 LINE",
"484 735 LINE"
);
},
{
closed = 1;
nodes = (
"448 904 LINE",
"367 987 LINE",
"190 797 LINE",
"253 735 LINE"
);
}
);
width = 789;
}
);
leftKerningGroup = U;
leftMetricsKey = U;
rightKerningGroup = U;
rightMetricsKey = U;
unicode = 0170;
},
{
glyphname = Uogonek;
lastChange = "2015-07-10 17:16:23 +0000";
layers = (
{
layerId = UUID0;
name = Regular;
paths = (
{
closed = 1;
nodes = (
"465 695 LINE",
"465 640 LINE",
"560 620 LINE",
"560 285 LINE SMOOTH",
"560 130 OFFCURVE",
"520 75 OFFCURVE",
"395 75 CURVE SMOOTH",
"280 75 OFFCURVE",
"230 120 OFFCURVE",
"230 270 CURVE SMOOTH",
"230 620 LINE",
"325 640 LINE",
"325 700 LINE",
"40 695 LINE",
"40 640 LINE",
"125 620 LINE",
"125 270 LINE SMOOTH",
"125 85 OFFCURVE",
"192 -10 OFFCURVE",
"393 -10 CURVE",
"365 -27 OFFCURVE",
"315 -67 OFFCURVE",
"315 -125 CURVE SMOOTH",
"315 -185 OFFCURVE",
"360 -220 OFFCURVE",
"415 -220 CURVE SMOOTH",
"455 -220 OFFCURVE",
"495 -200 OFFCURVE",
"495 -200 CURVE",
"485 -153 LINE",
"485 -153 OFFCURVE",
"460 -160 OFFCURVE",
"440 -160 CURVE SMOOTH",
"415 -160 OFFCURVE",
"395 -145 OFFCURVE",
"395 -115 CURVE SMOOTH",
"395 -54 OFFCURVE",
"499 0 OFFCURVE",
"527 12 CURVE SMOOTH",
"630 55 OFFCURVE",
"665 148 OFFCURVE",
"665 285 CURVE SMOOTH",
"665 620 LINE",
"750 640 LINE",
"750 700 LINE"
);
}
);
width = 790;
},
{
layerId = "26DC72AF-247A-4505-B175-40140B6BEEEF";
name = Bold;
paths = (
{
closed = 1;
nodes = (
"442 700 LINE",
"442 615 LINE",
"520 585 LINE",
"520 285 LINE SMOOTH",
"520 167 OFFCURVE",
"498 110 OFFCURVE",
"392 110 CURVE SMOOTH",
"295 110 OFFCURVE",
"262 155 OFFCURVE",
"262 270 CURVE SMOOTH",
"262 585 LINE",
"340 615 LINE",
"340 705 LINE",
"32 700 LINE",
"32 615 LINE",
"107 585 LINE",
"107 270 LINE SMOOTH",
"107 75 OFFCURVE",
"195 -11 OFFCURVE",
"366 -11 CURVE",
"337 -30 OFFCURVE",
"282 -74 OFFCURVE",
"282 -135 CURVE SMOOTH",
"282 -203 OFFCURVE",
"332 -235 OFFCURVE",
"392 -235 CURVE SMOOTH",
"447 -235 OFFCURVE",
"494 -210 OFFCURVE",
"494 -210 CURVE",
"477 -140 LINE",
"477 -140 OFFCURVE",
"450 -146 OFFCURVE",
"434 -146 CURVE SMOOTH",
"413 -146 OFFCURVE",
"397 -134 OFFCURVE",
"397 -110 CURVE SMOOTH",
"397 -74 OFFCURVE",
"450 -32 OFFCURVE",
"533 12 CURVE SMOOTH",
"637 67 OFFCURVE",
"675 139 OFFCURVE",
"675 285 CURVE SMOOTH",
"675 585 LINE",
"750 615 LINE",
"750 705 LINE"
);
}
);
width = 785;
}
);
leftKerningGroup = U;
rightKerningGroup = U;
unicode = 0172;
},
{
glyphname = Uring;
lastChange = "2015-07-10 17:16:23 +0000";
layers = (
{
background = {
paths = (
{
closed = 1;
nodes = (
"665 620 LINE",
"750 640 LINE",
"750 700 LINE",
"465 695 LINE",
"465 640 LINE",
"560 620 LINE",
"560 285 LINE SMOOTH",
"560 130 OFFCURVE",
"520 75 OFFCURVE",
"395 75 CURVE SMOOTH",
"280 75 OFFCURVE",
"230 120 OFFCURVE",
"230 270 CURVE SMOOTH",
"230 620 LINE",
"325 640 LINE",
"325 700 LINE",
"40 695 LINE",
"40 640 LINE",
"125 620 LINE",
"125 270 LINE SMOOTH",
"125 85 OFFCURVE",
"195 -10 OFFCURVE",
"390 -10 CURVE SMOOTH",
"600 -10 OFFCURVE",
"665 100 OFFCURVE",
"665 285 CURVE SMOOTH"
);
},
{
closed = 1;
nodes = (
"285 774 OFFCURVE",
"343 735 OFFCURVE",
"400 735 CURVE SMOOTH",
"457 735 OFFCURVE",
"515 779 OFFCURVE",
"515 850 CURVE SMOOTH",
"515 921 OFFCURVE",
"457 960 OFFCURVE",
"400 960 CURVE SMOOTH",
"343 960 OFFCURVE",
"285 916 OFFCURVE",
"285 845 CURVE SMOOTH"
);
},
{
closed = 1;
nodes = (
"345 887 OFFCURVE",
"369 910 OFFCURVE",
"400 910 CURVE SMOOTH",
"435 910 OFFCURVE",
"455 888 OFFCURVE",
"455 848 CURVE SMOOTH",
"455 808 OFFCURVE",
"431 785 OFFCURVE",
"400 785 CURVE SMOOTH",
"365 785 OFFCURVE",
"345 807 OFFCURVE",
"345 847 CURVE SMOOTH"
);
}
);
};
components = (
{
disableAlignment = 1;
name = U;
},
{
disableAlignment = 1;
name = ring;
transform = "{1, 0, 0, 1, 205, 140}";
}
);
guideLines = (
{
position = "{558, 735}";
}
);
layerId = UUID0;
name = Regular;
width = 790;
},
{
components = (
{
name = U;
},
{
name = ring;
transform = "{1, 0, 0, 1, 185, 138}";
}
);
guideLines = (
{
position = "{542, 735}";
}
);
layerId = "26DC72AF-247A-4505-B175-40140B6BEEEF";
name = Bold;
width = 789;
}
);
leftKerningGroup = U;
rightKerningGroup = U;
unicode = 016E;
},
{
glyphname = Utilde;
lastChange = "2015-07-10 21:51:44 +0000";
layers = (
{
components = (
{
name = U;
}
);
layerId = UUID0;
name = Regular;
paths = (
{
closed = 1;
nodes = (
"249 890 OFFCURVE",
"209 796 OFFCURVE",
"209 796 CURVE",
"244 766 LINE",
"244 766 OFFCURVE",
"274 810 OFFCURVE",
"314 810 CURVE SMOOTH",
"374 810 OFFCURVE",
"419 766 OFFCURVE",
"489 766 CURVE SMOOTH",
"559 766 OFFCURVE",
"594 856 OFFCURVE",
"594 856 CURVE",
"559 886 LINE",
"559 886 OFFCURVE",
"534 844 OFFCURVE",
"494 844 CURVE SMOOTH",
"434 844 OFFCURVE",
"389 890 OFFCURVE",
"319 890 CURVE SMOOTH"
);
}
);
width = 790;
},
{
components = (
{
name = U;
}
);
layerId = "26DC72AF-247A-4505-B175-40140B6BEEEF";
name = Bold;
paths = (
{
closed = 1;
nodes = (
"224 926 OFFCURVE",
"182 816 OFFCURVE",
"182 816 CURVE",
"230 777 LINE",
"230 777 OFFCURVE",
"260 815 OFFCURVE",
"302 815 CURVE SMOOTH",
"362 815 OFFCURVE",
"400 776 OFFCURVE",
"470 776 CURVE SMOOTH",
"553 776 OFFCURVE",
"605 880 OFFCURVE",
"605 880 CURVE",
"550 922 LINE",
"550 922 OFFCURVE",
"520 880 OFFCURVE",
"481 880 CURVE SMOOTH",
"421 880 OFFCURVE",
"377 926 OFFCURVE",
"307 926 CURVE SMOOTH"
);
}
);
width = 789;
}
);
leftKerningGroup = U;
leftMetricsKey = U;
rightKerningGroup = U;
rightMetricsKey = U;
unicode = 0168;
},
{
glyphname = V;
lastChange = "2015-07-10 20:21:37 +0000";
layers = (
{
layerId = UUID0;
name = Regular;
paths = (
{
closed = 1;
nodes = (
"395 0 LINE",
"617 620 LINE",
"695 640 LINE",
"695 700 LINE",
"425 695 LINE",
"425 640 LINE",
"518 620 LINE",
"379 216 LINE",
"351 135 LINE",
"325 216 LINE",
"194 621 LINE",
"285 640 LINE",
"285 700 LINE",
"5 695 LINE",
"5 640 LINE",
"82 620 LINE",
"295 0 LINE"
);
}
);
width = 700;
},
{
layerId = "26DC72AF-247A-4505-B175-40140B6BEEEF";
name = Bold;
paths = (
{
closed = 1;
nodes = (
"435 0 LINE",
"646 585 LINE",
"719 615 LINE",
"719 705 LINE",
"420 700 LINE",
"420 615 LINE",
"496 585 LINE",
"397 294 LINE",
"365 176 LINE",
"333 299 LINE",
"241 586 LINE",
"315 615 LINE",
"315 705 LINE",
"5 700 LINE",
"5 615 LINE",
"73 587 LINE",
"275 0 LINE"
);
}
);
width = 724;
}
);
leftKerningGroup = V;
rightKerningGroup = V;
unicode = 0056;
},
{
glyphname = W;
lastChange = "2015-07-10 20:23:16 +0000";
layers = (
{
layerId = UUID0;
name = Regular;
paths = (
{
closed = 1;
nodes = (
"350 0 LINE",
"485 455 LINE",
"516 568 LINE",
"545 460 LINE",
"665 0 LINE",
"775 0 LINE",
"951 620 LINE",
"1030 640 LINE",
"1030 700 LINE",
"760 695 LINE",
"760 640 LINE",
"851 620 LINE",
"727 156 LINE",
"565 700 LINE",
"470 695 LINE",
"305 167 LINE",
"198 620 LINE",
"285 640 LINE",
"285 700 LINE",
"5 695 LINE",
"5 640 LINE",
"83 620 LINE",
"250 0 LINE"
);
}
);
width = 1035;
},
{
layerId = "26DC72AF-247A-4505-B175-40140B6BEEEF";
name = Bold;
paths = (
{
closed = 1;
nodes = (
"375 0 LINE",
"490 380 LINE",
"514 475 LINE",
"537 384 LINE",
"645 0 LINE",
"787 0 LINE",
"958 585 LINE",
"1030 615 LINE",
"1030 705 LINE",
"745 700 LINE",
"745 615 LINE",
"820 585 LINE",
"724 226 LINE",
"590 705 LINE",
"455 697 LINE",
"315 225 LINE",
"229 585 LINE",
"302 615 LINE",
"302 705 LINE",
"5 700 LINE",
"5 615 LINE",
"75 586 LINE",
"237 0 LINE"
);
}
);
width = 1035;
}
);
leftKerningGroup = V;
rightKerningGroup = V;
unicode = 0057;
},
{
glyphname = X;
lastChange = "2015-07-10 20:21:37 +0000";
layers = (
{
layerId = UUID0;
name = Regular;
paths = (
{
closed = 1;
nodes = (
"275 0 LINE",
"275 60 LINE",
"190 80 LINE",
"340 280 LINE",
"480 75 LINE",
"420 60 LINE",
"420 0 LINE",
"690 0 LINE",
"690 60 LINE",
"605 80 LINE",
"410 360 LINE",
"590 620 LINE",
"680 640 LINE",
"680 700 LINE",
"415 695 LINE",
"415 640 LINE",
"485 620 LINE",
"355 430 LINE",
"225 620 LINE",
"290 640 LINE",
"290 700 LINE",
"25 695 LINE",
"25 640 LINE",
"100 620 LINE",
"285 355 LINE",
"75 75 LINE",
"10 60 LINE",
"10 0 LINE"
);
}
);
width = 700;
},
{
layerId = "26DC72AF-247A-4505-B175-40140B6BEEEF";
name = Bold;
paths = (
{
closed = 1;
nodes = (
"307 0 LINE",
"307 85 LINE",
"244 109 LINE",
"356 253 LINE",
"466 105 LINE",
"420 85 LINE",
"420 0 LINE",
"730 0 LINE",
"730 85 LINE",
"660 109 LINE",
"465 362 LINE",
"649 595 LINE",
"715 615 LINE",
"715 705 LINE",
"427 700 LINE",
"427 615 LINE",
"481 594 LINE",
"383 461 LINE",
"280 598 LINE",
"330 615 LINE",
"330 705 LINE",
"30 700 LINE",
"30 615 LINE",
"88 596 LINE",
"274 354 LINE",
"72 110 LINE",
"10 85 LINE",
"10 0 LINE"
);
}
);
width = 740;
}
);
leftKerningGroup = X;
rightKerningGroup = X;
unicode = 0058;
},
{
glyphname = Y;
lastChange = "2015-07-10 20:23:29 +0000";
layers = (
{
layerId = UUID0;
name = Regular;
paths = (
{
closed = 1;
nodes = (
"460 0 LINE",
"460 60 LINE",
"375 80 LINE",
"375 261 LINE",
"573 622 LINE",
"635 640 LINE",
"635 700 LINE",
"395 695 LINE",
"395 640 LINE",
"472 620 LINE",
"357 400 LINE",
"325 340 LINE",
"297 398 LINE",
"192 620 LINE",
"260 640 LINE",
"260 700 LINE",
"10 695 LINE",
"10 640 LINE",
"77 621 LINE SMOOTH",
"270 259 LINE",
"270 80 LINE",
"185 60 LINE",
"185 0 LINE"
);
}
);
width = 645;
},
{
layerId = "26DC72AF-247A-4505-B175-40140B6BEEEF";
name = Bold;
paths = (
{
closed = 1;
nodes = (
"485 0 LINE",
"485 85 LINE",
"410 115 LINE",
"410 245 LINE",
"591 588 LINE",
"660 615 LINE",
"660 705 LINE",
"390 700 LINE",
"390 615 LINE",
"445 593 LINE",
"359 419 LINE",
"339 379 LINE",
"320 420 LINE",
"239 594 LINE",
"290 615 LINE",
"290 705 LINE",
"7 700 LINE",
"7 615 LINE",
"72 588 LINE",
"255 244 LINE",
"255 115 LINE",
"180 85 LINE",
"180 0 LINE"
);
}
);
width = 667;
}
);
leftKerningGroup = Y;
rightKerningGroup = Y;
unicode = 0059;
},
{
glyphname = Z;
lastChange = "2015-07-10 20:21:37 +0000";
layers = (
{
layerId = UUID0;
name = Regular;
paths = (
{
closed = 1;
nodes = (
"570 0 LINE",
"570 180 LINE",
"505 180 LINE",
"485 80 LINE",
"175 80 LINE",
"575 630 LINE",
"575 700 LINE",
"70 700 LINE",
"70 520 LINE",
"135 520 LINE",
"160 620 LINE",
"440 620 LINE",
"40 70 LINE",
"40 0 LINE"
);
}
);
width = 615;
},
{
layerId = "26DC72AF-247A-4505-B175-40140B6BEEEF";
name = Bold;
paths = (
{
closed = 1;
nodes = (
"582 0 LINE",
"582 220 LINE",
"487 220 LINE",
"465 120 LINE",
"237 120 LINE",
"585 592 LINE",
"585 705 LINE",
"55 705 LINE",
"55 495 LINE",
"150 495 LINE",
"175 585 LINE",
"385 585 LINE",
"30 105 LINE",
"30 0 LINE"
);
}
);
width = 615;
}
);
leftKerningGroup = Z;
rightKerningGroup = Z;
unicode = 005A;
},
{
glyphname = a;
lastChange = "2015-07-10 20:51:31 +0000";
layers = (
{
layerId = UUID0;
name = Regular;
paths = (
{
closed = 1;
nodes = (
"265 -10 OFFCURVE",
"325 36 OFFCURVE",
"359 70 CURVE",
"380 0 LINE",
"535 5 LINE",
"535 60 LINE",
"455 80 LINE",
"455 385 LINE SMOOTH",
"455 500 OFFCURVE",
"386 540 OFFCURVE",
"270 540 CURVE SMOOTH",
"185 540 OFFCURVE",
"75 500 OFFCURVE",
"75 500 CURVE",
"80 375 LINE",
"145 375 LINE",
"159 450 LINE",
"159 450 OFFCURVE",
"200 465 OFFCURVE",
"260 465 CURVE SMOOTH",
"320 465 OFFCURVE",
"355 435 OFFCURVE",
"355 375 CURVE SMOOTH",
"355 295 LINE",
"275 295 LINE SMOOTH",
"135 295 OFFCURVE",
"45 255 OFFCURVE",
"45 140 CURVE SMOOTH",
"45 45 OFFCURVE",
"100 -10 OFFCURVE",
"195 -10 CURVE SMOOTH"
);
},
{
closed = 1;
nodes = (
"175 70 OFFCURVE",
"147 100 OFFCURVE",
"147 145 CURVE SMOOTH",
"147 205 OFFCURVE",
"185 230 OFFCURVE",
"285 230 CURVE SMOOTH",
"355 230 LINE",
"355 150 LINE",
"355 150 OFFCURVE",
"295 70 OFFCURVE",
"220 70 CURVE SMOOTH"
);
}
);
width = 565;
},
{
layerId = "26DC72AF-247A-4505-B175-40140B6BEEEF";
name = Bold;
paths = (
{
closed = 1;
nodes = (
"281 -10 OFFCURVE",
"358 65 OFFCURVE",
"358 65 CURVE",
"376 0 LINE",
"576 7 LINE",
"576 87 LINE",
"501 105 LINE",
"501 352 LINE SMOOTH",
"501 497 OFFCURVE",
"443 550 OFFCURVE",
"291 550 CURVE SMOOTH",
"195 550 OFFCURVE",
"74 510 OFFCURVE",
"74 510 CURVE",
"81 362 LINE",
"171 362 LINE",
"186 425 LINE",
"186 425 OFFCURVE",
"223 440 OFFCURVE",
"274 440 CURVE SMOOTH",
"324 440 OFFCURVE",
"351 418 OFFCURVE",
"351 367 CURVE SMOOTH",
"351 312 LINE",
"281 312 LINE SMOOTH",
"129 312 OFFCURVE",
"40 265 OFFCURVE",
"40 147 CURVE SMOOTH",
"40 47 OFFCURVE",
"99 -10 OFFCURVE",
"196 -10 CURVE SMOOTH"
);
},
{
closed = 1;
nodes = (
"206 102 OFFCURVE",
"185 124 OFFCURVE",
"185 162 CURVE SMOOTH",
"185 207 OFFCURVE",
"216 227 OFFCURVE",
"294 227 CURVE SMOOTH",
"351 227 LINE",
"351 160 LINE",
"351 160 OFFCURVE",
"297 102 OFFCURVE",
"244 102 CURVE SMOOTH"
);
}
);
width = 601;
}
);
leftKerningGroup = a;
rightKerningGroup = a;
unicode = 0061;
},
{
glyphname = abreve;
lastChange = "2015-07-10 17:16:23 +0000";
layers = (
{
background = {
paths = (
{
closed = 1;
nodes = (
"80 375 LINE",
"145 375 LINE",
"159 450 LINE",
"159 450 OFFCURVE",
"200 465 OFFCURVE",
"260 465 CURVE SMOOTH",
"320 465 OFFCURVE",
"355 435 OFFCURVE",
"355 375 CURVE SMOOTH",
"355 295 LINE",
"275 295 LINE SMOOTH",
"135 295 OFFCURVE",
"45 255 OFFCURVE",
"45 140 CURVE SMOOTH",
"45 45 OFFCURVE",
"100 -10 OFFCURVE",
"195 -10 CURVE SMOOTH",
"265 -10 OFFCURVE",
"325 36 OFFCURVE",
"359 70 CURVE",
"380 0 LINE",
"535 5 LINE",
"535 60 LINE",
"455 80 LINE",
"455 385 LINE SMOOTH",
"455 500 OFFCURVE",
"386 540 OFFCURVE",
"270 540 CURVE SMOOTH",
"185 540 OFFCURVE",
"75 500 OFFCURVE",
"75 500 CURVE"
);
},
{
closed = 1;
nodes = (
"355 230 LINE",
"355 150 LINE",
"355 150 OFFCURVE",
"295 70 OFFCURVE",
"220 70 CURVE SMOOTH",
"175 70 OFFCURVE",
"147 100 OFFCURVE",
"147 145 CURVE SMOOTH",
"147 205 OFFCURVE",
"185 230 OFFCURVE",
"285 230 CURVE SMOOTH"
);
},
{
closed = 1;
nodes = (
"345 760 LINE",
"345 760 OFFCURVE",
"340 690 OFFCURVE",
"265 690 CURVE SMOOTH",
"195 690 OFFCURVE",
"185 765 OFFCURVE",
"185 765 CURVE",
"125 760 LINE",
"125 675 OFFCURVE",
"190 615 OFFCURVE",
"260 615 CURVE SMOOTH",
"340 615 OFFCURVE",
"405 675 OFFCURVE",
"405 765 CURVE"
);
}
);
};
components = (
{
disableAlignment = 1;
name = a;
},
{
disableAlignment = 1;
name = breve;
transform = "{1, 0, 0, 1, 45, 0}";
}
);
guideLines = (
{
position = "{95, 615}";
}
);
layerId = UUID0;
name = Regular;
width = 565;
},
{
components = (
{
name = a;
},
{
name = breve;
transform = "{1, 0, 0, 1, 70, 16}";
}
);
layerId = "26DC72AF-247A-4505-B175-40140B6BEEEF";
name = Bold;
width = 601;
}
);
leftKerningGroup = a;
rightKerningGroup = a;
unicode = 0103;
},
{
glyphname = acircumflex;
lastChange = "2015-07-10 20:49:26 +0000";
layers = (
{
background = {
paths = (
{
closed = 1;
nodes = (
"185 540 OFFCURVE",
"75 500 OFFCURVE",
"75 500 CURVE",
"80 375 LINE",
"145 375 LINE",
"159 450 LINE",
"159 450 OFFCURVE",
"200 465 OFFCURVE",
"260 465 CURVE SMOOTH",
"320 465 OFFCURVE",
"355 435 OFFCURVE",
"355 375 CURVE SMOOTH",
"355 295 LINE",
"275 295 LINE SMOOTH",
"135 295 OFFCURVE",
"45 255 OFFCURVE",
"45 140 CURVE SMOOTH",
"45 45 OFFCURVE",
"100 -10 OFFCURVE",
"195 -10 CURVE SMOOTH",
"265 -10 OFFCURVE",
"325 36 OFFCURVE",
"359 70 CURVE",
"380 0 LINE",
"535 5 LINE",
"535 60 LINE",
"455 80 LINE",
"455 385 LINE SMOOTH",
"455 500 OFFCURVE",
"386 540 OFFCURVE",
"270 540 CURVE SMOOTH"
);
},
{
closed = 1;
nodes = (
"355 150 LINE",
"355 150 OFFCURVE",
"295 70 OFFCURVE",
"220 70 CURVE SMOOTH",
"175 70 OFFCURVE",
"147 100 OFFCURVE",
"147 145 CURVE SMOOTH",
"147 205 OFFCURVE",
"185 230 OFFCURVE",
"285 230 CURVE SMOOTH",
"355 230 LINE"
);
},
{
closed = 1;
nodes = (
"230 780 LINE",
"80 645 LINE",
"120 600 LINE",
"262 708 LINE",
"400 600 LINE",
"440 645 LINE",
"290 785 LINE"
);
}
);
};
components = (
{
name = a;
},
{
name = circumflex.x;
transform = "{1, 0, 0, 1, 0, -35}";
}
);
layerId = UUID0;
name = Regular;
width = 565;
},
{
components = (
{
name = a;
},
{
name = circumflex.x;
transform = "{1, 0, 0, 1, 0, -15}";
}
);
layerId = "26DC72AF-247A-4505-B175-40140B6BEEEF";
name = Bold;
width = 601;
}
);
leftKerningGroup = a;
rightKerningGroup = a;
unicode = 00E2;
},
{
glyphname = adieresis;
lastChange = "2015-07-10 20:49:49 +0000";
layers = (
{
background = {
paths = (
{
closed = 1;
nodes = (
"185 540 OFFCURVE",
"75 500 OFFCURVE",
"75 500 CURVE",
"80 375 LINE",
"145 375 LINE",
"159 450 LINE",
"159 450 OFFCURVE",
"200 465 OFFCURVE",
"260 465 CURVE SMOOTH",
"320 465 OFFCURVE",
"355 435 OFFCURVE",
"355 375 CURVE SMOOTH",
"355 295 LINE",
"275 295 LINE SMOOTH",
"135 295 OFFCURVE",
"45 255 OFFCURVE",
"45 140 CURVE SMOOTH",
"45 45 OFFCURVE",
"100 -10 OFFCURVE",
"195 -10 CURVE SMOOTH",
"265 -10 OFFCURVE",
"325 36 OFFCURVE",
"359 70 CURVE",
"380 0 LINE",
"535 5 LINE",
"535 60 LINE",
"455 80 LINE",
"455 385 LINE SMOOTH",
"455 500 OFFCURVE",
"386 540 OFFCURVE",
"270 540 CURVE SMOOTH"
);
},
{
closed = 1;
nodes = (
"355 150 LINE",
"355 150 OFFCURVE",
"295 70 OFFCURVE",
"220 70 CURVE SMOOTH",
"175 70 OFFCURVE",
"147 100 OFFCURVE",
"147 145 CURVE SMOOTH",
"147 205 OFFCURVE",
"185 230 OFFCURVE",
"285 230 CURVE SMOOTH",
"355 230 LINE"
);
},
{
closed = 1;
nodes = (
"130 760 OFFCURVE",
"105 738 OFFCURVE",
"105 700 CURVE SMOOTH",
"105 662 OFFCURVE",
"126 640 OFFCURVE",
"160 640 CURVE SMOOTH",
"190 640 OFFCURVE",
"215 662 OFFCURVE",
"215 700 CURVE SMOOTH",
"215 738 OFFCURVE",
"194 760 OFFCURVE",
"160 760 CURVE SMOOTH"
);
},
{
closed = 1;
nodes = (
"335 760 OFFCURVE",
"310 738 OFFCURVE",
"310 700 CURVE SMOOTH",
"310 662 OFFCURVE",
"331 640 OFFCURVE",
"365 640 CURVE SMOOTH",
"395 640 OFFCURVE",
"420 662 OFFCURVE",
"420 700 CURVE SMOOTH",
"420 738 OFFCURVE",
"399 760 OFFCURVE",
"365 760 CURVE SMOOTH"
);
}
);
};
components = (
{
name = a;
},
{
name = dieresis;
transform = "{1, 0, 0, 1, 4, -1}";
}
);
layerId = UUID0;
name = Regular;
width = 565;
},
{
components = (
{
name = a;
},
{
name = dieresis;
transform = "{1, 0, 0, 1, 14, -14}";
}
);
layerId = "26DC72AF-247A-4505-B175-40140B6BEEEF";
name = Bold;
width = 601;
}
);
leftKerningGroup = a;
rightKerningGroup = a;
unicode = 00E4;
},
{
glyphname = amacron;
lastChange = "2015-07-10 20:50:12 +0000";
layers = (
{
background = {
paths = (
{
closed = 1;
nodes = (
"185 540 OFFCURVE",
"75 500 OFFCURVE",
"75 500 CURVE",
"80 375 LINE",
"145 375 LINE",
"159 450 LINE",
"159 450 OFFCURVE",
"200 465 OFFCURVE",
"260 465 CURVE SMOOTH",
"320 465 OFFCURVE",
"355 435 OFFCURVE",
"355 375 CURVE SMOOTH",
"355 295 LINE",
"275 295 LINE SMOOTH",
"135 295 OFFCURVE",
"45 255 OFFCURVE",
"45 140 CURVE SMOOTH",
"45 45 OFFCURVE",
"100 -10 OFFCURVE",
"195 -10 CURVE SMOOTH",
"265 -10 OFFCURVE",
"325 36 OFFCURVE",
"359 70 CURVE",
"380 0 LINE",
"535 5 LINE",
"535 60 LINE",
"455 80 LINE",
"455 385 LINE SMOOTH",
"455 500 OFFCURVE",
"386 540 OFFCURVE",
"270 540 CURVE SMOOTH"
);
},
{
closed = 1;
nodes = (
"355 150 LINE",
"355 150 OFFCURVE",
"295 70 OFFCURVE",
"220 70 CURVE SMOOTH",
"175 70 OFFCURVE",
"147 100 OFFCURVE",
"147 145 CURVE SMOOTH",
"147 205 OFFCURVE",
"185 230 OFFCURVE",
"285 230 CURVE SMOOTH",
"355 230 LINE"
);
},
{
closed = 1;
nodes = (
"138 735 LINE",
"138 660 LINE",
"408 660 LINE",
"408 735 LINE"
);
}
);
};
components = (
{
name = a;
},
{
name = macron;
transform = "{1, 0, 0, 1, 133, 1}";
}
);
layerId = UUID0;
name = Regular;
width = 565;
},
{
components = (
{
name = a;
},
{
name = macron;
transform = "{1, 0, 0, 1, 130, 5}";
}
);
layerId = "26DC72AF-247A-4505-B175-40140B6BEEEF";
name = Bold;
width = 601;
}
);
leftKerningGroup = a;
rightKerningGroup = a;
unicode = 0101;
},
{
glyphname = aogonek;
lastChange = "2015-07-10 20:51:31 +0000";
layers = (
{
layerId = UUID0;
name = Regular;
paths = (
{
closed = 1;
nodes = (
"475 -220 OFFCURVE",
"515 -200 OFFCURVE",
"515 -200 CURVE",
"505 -153 LINE",
"505 -153 OFFCURVE",
"480 -160 OFFCURVE",
"460 -160 CURVE SMOOTH",
"435 -160 OFFCURVE",
"415 -145 OFFCURVE",
"415 -115 CURVE SMOOTH",
"415 -50 OFFCURVE",
"535 5 OFFCURVE",
"535 5 CURVE",
"535 60 LINE",
"455 80 LINE",
"455 385 LINE SMOOTH",
"455 500 OFFCURVE",
"386 540 OFFCURVE",
"270 540 CURVE SMOOTH",
"185 540 OFFCURVE",
"75 500 OFFCURVE",
"75 500 CURVE",
"80 375 LINE",
"145 375 LINE",
"159 450 LINE",
"159 450 OFFCURVE",
"200 465 OFFCURVE",
"260 465 CURVE SMOOTH",
"320 465 OFFCURVE",
"355 435 OFFCURVE",
"355 375 CURVE SMOOTH",
"355 295 LINE",
"275 295 LINE SMOOTH",
"135 295 OFFCURVE",
"45 255 OFFCURVE",
"45 140 CURVE SMOOTH",
"45 45 OFFCURVE",
"100 -10 OFFCURVE",
"195 -10 CURVE SMOOTH",
"265 -10 OFFCURVE",
"325 36 OFFCURVE",
"359 70 CURVE",
"380 0 LINE",
"438 2 LINE",
"415 -8 OFFCURVE",
"335 -51 OFFCURVE",
"335 -125 CURVE SMOOTH",
"335 -185 OFFCURVE",
"380 -220 OFFCURVE",
"435 -220 CURVE SMOOTH"
);
},
{
closed = 1;
nodes = (
"175 70 OFFCURVE",
"147 100 OFFCURVE",
"147 145 CURVE SMOOTH",
"147 205 OFFCURVE",
"185 230 OFFCURVE",
"285 230 CURVE SMOOTH",
"355 230 LINE",
"355 150 LINE",
"355 150 OFFCURVE",
"295 70 OFFCURVE",
"220 70 CURVE SMOOTH"
);
}
);
width = 570;
},
{
layerId = "26DC72AF-247A-4505-B175-40140B6BEEEF";
name = Bold;
paths = (
{
closed = 1;
nodes = (
"507 -235 OFFCURVE",
"555 -210 OFFCURVE",
"555 -210 CURVE",
"538 -140 LINE",
"538 -140 OFFCURVE",
"511 -146 OFFCURVE",
"495 -146 CURVE SMOOTH",
"474 -146 OFFCURVE",
"457 -134 OFFCURVE",
"457 -110 CURVE SMOOTH",
"457 -58 OFFCURVE",
"576 7 OFFCURVE",
"576 7 CURVE",
"576 87 LINE",
"501 105 LINE",
"501 352 LINE SMOOTH",
"501 497 OFFCURVE",
"443 550 OFFCURVE",
"291 550 CURVE SMOOTH",
"195 550 OFFCURVE",
"74 510 OFFCURVE",
"74 510 CURVE",
"81 362 LINE",
"171 362 LINE",
"186 425 LINE",
"186 425 OFFCURVE",
"223 440 OFFCURVE",
"274 440 CURVE SMOOTH",
"324 440 OFFCURVE",
"351 418 OFFCURVE",
"351 367 CURVE SMOOTH",
"351 312 LINE",
"281 312 LINE SMOOTH",
"129 312 OFFCURVE",
"40 265 OFFCURVE",
"40 147 CURVE SMOOTH",
"40 47 OFFCURVE",
"99 -10 OFFCURVE",
"196 -10 CURVE SMOOTH",
"281 -10 OFFCURVE",
"358 65 OFFCURVE",
"358 65 CURVE",
"376 0 LINE",
"445 2 LINE",
"424 -7 OFFCURVE",
"342 -58 OFFCURVE",
"342 -135 CURVE SMOOTH",
"342 -203 OFFCURVE",
"393 -235 OFFCURVE",
"452 -235 CURVE SMOOTH"
);
},
{
closed = 1;
nodes = (
"206 102 OFFCURVE",
"185 124 OFFCURVE",
"185 162 CURVE SMOOTH",
"185 207 OFFCURVE",
"216 227 OFFCURVE",
"294 227 CURVE SMOOTH",
"351 227 LINE",
"351 160 LINE",
"351 160 OFFCURVE",
"297 102 OFFCURVE",
"244 102 CURVE SMOOTH"
);
}
);
width = 601;
}
);
leftKerningGroup = a;
rightKerningGroup = a;
unicode = 0105;
},
{
glyphname = aring;
lastChange = "2015-07-10 20:50:43 +0000";
layers = (
{
background = {
paths = (
{
closed = 1;
nodes = (
"185 540 OFFCURVE",
"75 500 OFFCURVE",
"75 500 CURVE",
"80 375 LINE",
"145 375 LINE",
"159 450 LINE",
"159 450 OFFCURVE",
"200 465 OFFCURVE",
"260 465 CURVE SMOOTH",
"320 465 OFFCURVE",
"355 435 OFFCURVE",
"355 375 CURVE SMOOTH",
"355 295 LINE",
"275 295 LINE SMOOTH",
"135 295 OFFCURVE",
"45 255 OFFCURVE",
"45 140 CURVE SMOOTH",
"45 45 OFFCURVE",
"100 -10 OFFCURVE",
"195 -10 CURVE SMOOTH",
"265 -10 OFFCURVE",
"325 36 OFFCURVE",
"359 70 CURVE",
"380 0 LINE",
"535 5 LINE",
"535 60 LINE",
"455 80 LINE",
"455 385 LINE SMOOTH",
"455 500 OFFCURVE",
"386 540 OFFCURVE",
"270 540 CURVE SMOOTH"
);
},
{
closed = 1;
nodes = (
"355 150 LINE",
"355 150 OFFCURVE",
"295 70 OFFCURVE",
"220 70 CURVE SMOOTH",
"175 70 OFFCURVE",
"147 100 OFFCURVE",
"147 145 CURVE SMOOTH",
"147 205 OFFCURVE",
"185 230 OFFCURVE",
"285 230 CURVE SMOOTH",
"355 230 LINE"
);
},
{
closed = 1;
nodes = (
"225 820 OFFCURVE",
"167 776 OFFCURVE",
"167 705 CURVE SMOOTH",
"167 634 OFFCURVE",
"225 595 OFFCURVE",
"282 595 CURVE SMOOTH",
"339 595 OFFCURVE",
"397 639 OFFCURVE",
"397 710 CURVE SMOOTH",
"397 781 OFFCURVE",
"339 820 OFFCURVE",
"282 820 CURVE SMOOTH"
);
},
{
closed = 1;
nodes = (
"317 770 OFFCURVE",
"337 748 OFFCURVE",
"337 708 CURVE SMOOTH",
"337 668 OFFCURVE",
"313 645 OFFCURVE",
"282 645 CURVE SMOOTH",
"247 645 OFFCURVE",
"227 667 OFFCURVE",
"227 707 CURVE SMOOTH",
"227 747 OFFCURVE",
"251 770 OFFCURVE",
"282 770 CURVE SMOOTH"
);
}
);
};
components = (
{
name = a;
},
{
name = ring;
transform = "{1, 0, 0, 1, 87, 0}";
}
);
layerId = UUID0;
name = Regular;
width = 565;
},
{
components = (
{
name = a;
},
{
name = ring;
transform = "{1, 0, 0, 1, 90, 0}";
}
);
guideLines = (
{
position = "{433, 597}";
}
);
layerId = "26DC72AF-247A-4505-B175-40140B6BEEEF";
name = Bold;
width = 601;
}
);
leftKerningGroup = a;
rightKerningGroup = a;
unicode = 00E5;
},
{
glyphname = atilde;
lastChange = "2015-07-10 20:51:08 +0000";
layers = (
{
background = {
paths = (
{
closed = 1;
nodes = (
"185 540 OFFCURVE",
"75 500 OFFCURVE",
"75 500 CURVE",
"80 375 LINE",
"145 375 LINE",
"159 450 LINE",
"159 450 OFFCURVE",
"200 465 OFFCURVE",
"260 465 CURVE SMOOTH",
"320 465 OFFCURVE",
"355 435 OFFCURVE",
"355 375 CURVE SMOOTH",
"355 295 LINE",
"275 295 LINE SMOOTH",
"135 295 OFFCURVE",
"45 255 OFFCURVE",
"45 140 CURVE SMOOTH",
"45 45 OFFCURVE",
"100 -10 OFFCURVE",
"195 -10 CURVE SMOOTH",
"265 -10 OFFCURVE",
"325 36 OFFCURVE",
"359 70 CURVE",
"380 0 LINE",
"535 5 LINE",
"535 60 LINE",
"455 80 LINE",
"455 385 LINE SMOOTH",
"455 500 OFFCURVE",
"386 540 OFFCURVE",
"270 540 CURVE SMOOTH"
);
},
{
closed = 1;
nodes = (
"355 150 LINE",
"355 150 OFFCURVE",
"295 70 OFFCURVE",
"220 70 CURVE SMOOTH",
"175 70 OFFCURVE",
"147 100 OFFCURVE",
"147 145 CURVE SMOOTH",
"147 205 OFFCURVE",
"185 230 OFFCURVE",
"285 230 CURVE SMOOTH",
"355 230 LINE"
);
},
{
closed = 1;
nodes = (
"110 764 OFFCURVE",
"73 671 OFFCURVE",
"73 671 CURVE",
"108 636 LINE",
"108 636 OFFCURVE",
"135 680 OFFCURVE",
"178 680 CURVE SMOOTH",
"238 680 OFFCURVE",
"275 635 OFFCURVE",
"345 635 CURVE SMOOTH",
"418 635 OFFCURVE",
"453 726 OFFCURVE",
"453 726 CURVE",
"418 761 LINE",
"418 761 OFFCURVE",
"387 719 OFFCURVE",
"350 719 CURVE SMOOTH",
"290 719 OFFCURVE",
"253 764 OFFCURVE",
"183 764 CURVE SMOOTH"
);
}
);
};
components = (
{
name = a;
},
{
name = tilde;
transform = "{1, 0, 0, 1, -23, 1}";
}
);
layerId = UUID0;
name = Regular;
width = 565;
},
{
components = (
{
name = a;
},
{
name = tilde;
transform = "{1, 0, 0, 1, -11, 0}";
}
);
layerId = "26DC72AF-247A-4505-B175-40140B6BEEEF";
name = Bold;
width = 601;
}
);
leftKerningGroup = a;
rightKerningGroup = a;
unicode = 00E3;
},
{
glyphname = ae;
lastChange = "2015-07-10 20:51:31 +0000";
layers = (
{
layerId = UUID0;
name = Regular;
paths = (
{
closed = 1;
nodes = (
"297 -10 OFFCURVE",
"369 71 OFFCURVE",
"388 96 CURVE",
"424 28 OFFCURVE",
"488 -10 OFFCURVE",
"585 -10 CURVE SMOOTH",
"705 -10 OFFCURVE",
"798 73 OFFCURVE",
"798 73 CURVE",
"763 125 LINE",
"763 125 OFFCURVE",
"695 70 OFFCURVE",
"595 70 CURVE SMOOTH",
"509 70 OFFCURVE",
"450 140 OFFCURVE",
"450 250 CURVE",
"795 252 LINE",
"795 252 OFFCURVE",
"800 280 OFFCURVE",
"800 305 CURVE SMOOTH",
"800 455 OFFCURVE",
"735 540 OFFCURVE",
"590 540 CURVE SMOOTH",
"522 540 OFFCURVE",
"466 514 OFFCURVE",
"426 470 CURVE",
"400 520 OFFCURVE",
"346 540 OFFCURVE",
"270 540 CURVE SMOOTH",
"185 540 OFFCURVE",
"75 500 OFFCURVE",
"75 500 CURVE",
"80 375 LINE",
"145 375 LINE",
"159 450 LINE",
"159 450 OFFCURVE",
"200 465 OFFCURVE",
"260 465 CURVE SMOOTH",
"320 465 OFFCURVE",
"355 435 OFFCURVE",
"355 375 CURVE SMOOTH",
"355 295 LINE",
"275 295 LINE SMOOTH",
"135 295 OFFCURVE",
"45 255 OFFCURVE",
"45 140 CURVE SMOOTH",
"45 45 OFFCURVE",
"100 -10 OFFCURVE",
"195 -10 CURVE SMOOTH"
);
},
{
closed = 1;
nodes = (
"175 70 OFFCURVE",
"145 100 OFFCURVE",
"145 145 CURVE SMOOTH",
"145 205 OFFCURVE",
"185 230 OFFCURVE",
"285 230 CURVE SMOOTH",
"355 230 LINE",
"355 155 LINE",
"355 155 OFFCURVE",
"295 70 OFFCURVE",
"220 70 CURVE SMOOTH"
);
},
{
closed = 1;
nodes = (
"460 400 OFFCURVE",
"505 462 OFFCURVE",
"585 462 CURVE SMOOTH",
"665 462 OFFCURVE",
"694 400 OFFCURVE",
"694 325 CURVE",
"454 325 LINE"
);
}
);
width = 835;
},
{
layerId = "26DC72AF-247A-4505-B175-40140B6BEEEF";
name = Bold;
paths = (
{
closed = 1;
nodes = (
"287 -10 OFFCURVE",
"353 44 OFFCURVE",
"392 90 CURVE",
"432 25 OFFCURVE",
"500 -10 OFFCURVE",
"600 -10 CURVE SMOOTH",
"723 -10 OFFCURVE",
"830 74 OFFCURVE",
"830 74 CURVE",
"786 157 LINE",
"786 157 OFFCURVE",
"703 110 OFFCURVE",
"620 110 CURVE SMOOTH",
"552 110 OFFCURVE",
"505 155 OFFCURVE",
"499 235 CURVE",
"830 238 LINE",
"830 238 OFFCURVE",
"836 278 OFFCURVE",
"836 316 CURVE SMOOTH",
"836 462 OFFCURVE",
"755 550 OFFCURVE",
"610 550 CURVE SMOOTH",
"543 550 OFFCURVE",
"487 529 OFFCURVE",
"444 491 CURVE",
"413 532 OFFCURVE",
"361 549 OFFCURVE",
"288 549 CURVE SMOOTH",
"195 549 OFFCURVE",
"73 512 OFFCURVE",
"73 510 CURVE SMOOTH",
"80 362 LINE",
"170 362 LINE",
"185 424 LINE",
"185 424 OFFCURVE",
"223 439 OFFCURVE",
"273 439 CURVE SMOOTH",
"323 439 OFFCURVE",
"350 417 OFFCURVE",
"350 367 CURVE SMOOTH",
"350 312 LINE",
"280 312 LINE SMOOTH",
"128 312 OFFCURVE",
"40 265 OFFCURVE",
"40 147 CURVE SMOOTH",
"40 50 OFFCURVE",
"100 -10 OFFCURVE",
"195 -10 CURVE SMOOTH"
);
},
{
closed = 1;
nodes = (
"205 102 OFFCURVE",
"183 124 OFFCURVE",
"183 162 CURVE SMOOTH",
"183 207 OFFCURVE",
"215 227 OFFCURVE",
"293 227 CURVE SMOOTH",
"350 227 LINE",
"350 162 LINE",
"350 162 OFFCURVE",
"295 102 OFFCURVE",
"243 102 CURVE SMOOTH"
);
},
{
closed = 1;
nodes = (
"507 390 OFFCURVE",
"544 430 OFFCURVE",
"600 430 CURVE SMOOTH",
"658 430 OFFCURVE",
"682 387 OFFCURVE",
"682 325 CURVE",
"499 325 LINE"
);
}
);
width = 866;
}
);
leftKerningGroup = a;
rightKerningGroup = a;
unicode = 00E6;
},
{
glyphname = b;
lastChange = "2015-07-10 20:51:31 +0000";
layers = (
{
layerId = UUID0;
name = Regular;
paths = (
{
closed = 1;
nodes = (
"450 -10 OFFCURVE",
"545 110 OFFCURVE",
"545 280 CURVE SMOOTH",
"545 435 OFFCURVE",
"480 540 OFFCURVE",
"335 540 CURVE SMOOTH",
"270 540 OFFCURVE",
"218 508 OFFCURVE",
"185 482 CURVE",
"185 770 LINE",
"5 765 LINE",
"5 710 LINE",
"85 690 LINE",
"85 15 LINE",
"85 15 OFFCURVE",
"160 -10 OFFCURVE",
"270 -10 CURVE SMOOTH"
);
},
{
closed = 1;
nodes = (
"211 70 OFFCURVE",
"185 80 OFFCURVE",
"185 80 CURVE",
"185 395 LINE",
"185 395 OFFCURVE",
"225 460 OFFCURVE",
"315 460 CURVE SMOOTH",
"405 460 OFFCURVE",
"440 380 OFFCURVE",
"440 270 CURVE SMOOTH",
"440 160 OFFCURVE",
"401 70 OFFCURVE",
"285 70 CURVE SMOOTH"
);
}
);
width = 590;
},
{
layerId = "26DC72AF-247A-4505-B175-40140B6BEEEF";
name = Bold;
paths = (
{
closed = 1;
nodes = (
"480 -12 OFFCURVE",
"578 97 OFFCURVE",
"578 285 CURVE SMOOTH",
"578 453 OFFCURVE",
"507 550 OFFCURVE",
"373 550 CURVE SMOOTH",
"297 550 OFFCURVE",
"247 510 OFFCURVE",
"230 497 CURVE",
"230 775 LINE",
"5 767 LINE",
"5 687 LINE",
"80 667 LINE",
"80 10 LINE",
"80 10 OFFCURVE",
"178 -12 OFFCURVE",
"288 -12 CURVE SMOOTH"
);
},
{
closed = 1;
nodes = (
"253 108 OFFCURVE",
"230 116 OFFCURVE",
"230 116 CURVE",
"230 385 LINE",
"230 385 OFFCURVE",
"265 430 OFFCURVE",
"325 430 CURVE SMOOTH",
"395 430 OFFCURVE",
"423 375 OFFCURVE",
"423 275 CURVE SMOOTH",
"423 174 OFFCURVE",
"391 108 OFFCURVE",
"304 108 CURVE SMOOTH"
);
}
);
width = 618;
}
);
leftKerningGroup = l;
rightKerningGroup = b;
unicode = 0062;
},
{
glyphname = c;
lastChange = "2015-07-10 20:51:31 +0000";
layers = (
{
layerId = UUID0;
name = Regular;
paths = (
{
closed = 1;
nodes = (
"400 -10 OFFCURVE",
"490 70 OFFCURVE",
"490 70 CURVE",
"455 130 LINE",
"455 130 OFFCURVE",
"395 70 OFFCURVE",
"300 70 CURVE SMOOTH",
"205 70 OFFCURVE",
"145 140 OFFCURVE",
"145 275 CURVE SMOOTH",
"145 400 OFFCURVE",
"200 460 OFFCURVE",
"295 460 CURVE SMOOTH",
"345 460 OFFCURVE",
"385 450 OFFCURVE",
"385 450 CURVE",
"400 365 LINE",
"465 365 LINE",
"470 500 LINE",
"470 500 OFFCURVE",
"390 540 OFFCURVE",
"300 540 CURVE SMOOTH",
"140 540 OFFCURVE",
"40 425 OFFCURVE",
"40 265 CURVE SMOOTH",
"40 95 OFFCURVE",
"125 -10 OFFCURVE",
"290 -10 CURVE SMOOTH"
);
}
);
width = 510;
},
{
layerId = "26DC72AF-247A-4505-B175-40140B6BEEEF";
name = Bold;
paths = (
{
closed = 1;
nodes = (
"407 -10 OFFCURVE",
"485 53 OFFCURVE",
"510 75 CURVE",
"460 163 LINE",
"429 145 OFFCURVE",
"385 110 OFFCURVE",
"315 110 CURVE SMOOTH",
"232 110 OFFCURVE",
"190 173 OFFCURVE",
"190 282 CURVE SMOOTH",
"190 382 OFFCURVE",
"235 430 OFFCURVE",
"307 430 CURVE SMOOTH",
"347 430 OFFCURVE",
"376 422 OFFCURVE",
"376 422 CURVE",
"390 351 LINE",
"480 351 LINE",
"485 515 LINE",
"485 515 OFFCURVE",
"396 550 OFFCURVE",
"310 550 CURVE SMOOTH",
"135 550 OFFCURVE",
"35 440 OFFCURVE",
"35 262 CURVE SMOOTH",
"35 92 OFFCURVE",
"130 -10 OFFCURVE",
"295 -10 CURVE SMOOTH"
);
}
);
width = 525;
}
);
leftKerningGroup = o;
rightKerningGroup = c;
unicode = 0063;
},
{
glyphname = ccedilla;
lastChange = "2015-07-10 20:51:31 +0000";
layers = (
{
layerId = UUID0;
name = Regular;
paths = (
{
closed = 1;
nodes = (
"360 -219 OFFCURVE",
"407 -185 OFFCURVE",
"407 -133 CURVE SMOOTH",
"407 -86 OFFCURVE",
"373 -54 OFFCURVE",
"320 -44 CURVE",
"320 -8 LINE",
"415 4 OFFCURVE",
"490 70 OFFCURVE",
"490 70 CURVE",
"455 130 LINE",
"455 130 OFFCURVE",
"395 70 OFFCURVE",
"300 70 CURVE SMOOTH",
"205 70 OFFCURVE",
"145 140 OFFCURVE",
"145 275 CURVE SMOOTH",
"145 400 OFFCURVE",
"200 460 OFFCURVE",
"295 460 CURVE SMOOTH",
"345 460 OFFCURVE",
"385 450 OFFCURVE",
"385 450 CURVE",
"400 365 LINE",
"465 365 LINE",
"470 500 LINE",
"470 500 OFFCURVE",
"390 540 OFFCURVE",
"300 540 CURVE SMOOTH",
"140 540 OFFCURVE",
"40 425 OFFCURVE",
"40 265 CURVE SMOOTH",
"40 105 OFFCURVE",
"114 3 OFFCURVE",
"260 -8 CURVE",
"260 -79 LINE",
"310 -79 OFFCURVE",
"342 -99 OFFCURVE",
"342 -130 CURVE SMOOTH",
"342 -156 OFFCURVE",
"321 -171 OFFCURVE",
"295 -171 CURVE SMOOTH",
"255 -171 OFFCURVE",
"210 -150 OFFCURVE",
"210 -150 CURVE",
"186 -191 LINE",
"186 -191 OFFCURVE",
"235 -219 OFFCURVE",
"300 -219 CURVE SMOOTH"
);
}
);
width = 510;
},
{
layerId = "26DC72AF-247A-4505-B175-40140B6BEEEF";
name = Bold;
paths = (
{
closed = 1;
nodes = (
"370 -229 OFFCURVE",
"425 -188 OFFCURVE",
"425 -130 CURVE SMOOTH",
"425 -82 OFFCURVE",
"390 -50 OFFCURVE",
"339 -40 CURVE",
"339 -6 LINE",
"427 6 OFFCURVE",
"488 56 OFFCURVE",
"510 75 CURVE",
"460 163 LINE",
"429 145 OFFCURVE",
"385 110 OFFCURVE",
"315 110 CURVE SMOOTH",
"232 110 OFFCURVE",
"190 173 OFFCURVE",
"190 282 CURVE SMOOTH",
"190 383 OFFCURVE",
"235 430 OFFCURVE",
"307 430 CURVE SMOOTH",
"347 430 OFFCURVE",
"376 422 OFFCURVE",
"376 422 CURVE",
"390 352 LINE",
"480 352 LINE",
"485 515 LINE",
"485 515 OFFCURVE",
"396 550 OFFCURVE",
"310 550 CURVE SMOOTH",
"135 550 OFFCURVE",
"35 440 OFFCURVE",
"35 262 CURVE SMOOTH",
"35 107 OFFCURVE",
"114 8 OFFCURVE",
"253 -7 CURVE",
"253 -82 LINE",
"302 -82 OFFCURVE",
"336 -97 OFFCURVE",
"336 -126 CURVE SMOOTH",
"336 -148 OFFCURVE",
"318 -163 OFFCURVE",
"289 -163 CURVE SMOOTH",
"249 -163 OFFCURVE",
"207 -142 OFFCURVE",
"207 -142 CURVE",
"176 -197 LINE",
"176 -197 OFFCURVE",
"232 -229 OFFCURVE",
"300 -229 CURVE SMOOTH"
);
}
);
width = 525;
}
);
leftKerningGroup = o;
rightKerningGroup = c;
unicode = 00E7;
},
{
glyphname = ccircumflex;
lastChange = "2015-07-10 20:51:54 +0000";
layers = (
{
background = {
paths = (
{
closed = 1;
nodes = (
"400 -10 OFFCURVE",
"490 70 OFFCURVE",
"490 70 CURVE",
"455 130 LINE",
"455 130 OFFCURVE",
"395 70 OFFCURVE",
"300 70 CURVE SMOOTH",
"205 70 OFFCURVE",
"145 140 OFFCURVE",
"145 275 CURVE SMOOTH",
"145 400 OFFCURVE",
"200 460 OFFCURVE",
"295 460 CURVE SMOOTH",
"345 460 OFFCURVE",
"385 450 OFFCURVE",
"385 450 CURVE",
"400 365 LINE",
"465 365 LINE",
"470 500 LINE",
"470 500 OFFCURVE",
"390 540 OFFCURVE",
"300 540 CURVE SMOOTH",
"140 540 OFFCURVE",
"40 425 OFFCURVE",
"40 265 CURVE SMOOTH",
"40 95 OFFCURVE",
"125 -10 OFFCURVE",
"290 -10 CURVE SMOOTH"
);
},
{
closed = 1;
nodes = (
"282 708 LINE",
"420 600 LINE",
"460 645 LINE",
"310 785 LINE",
"250 780 LINE",
"100 645 LINE",
"140 600 LINE"
);
}
);
};
components = (
{
name = c;
},
{
name = circumflex.x;
transform = "{1, 0, 0, 1, 19, -35}";
}
);
layerId = UUID0;
name = Regular;
width = 510;
},
{
components = (
{
name = c;
},
{
name = circumflex.x;
transform = "{1, 0, 0, 1, 0, -15}";
}
);
layerId = "26DC72AF-247A-4505-B175-40140B6BEEEF";
name = Bold;
width = 525;
}
);
leftKerningGroup = o;
rightKerningGroup = c;
unicode = 0109;
},
{
glyphname = cdotaccent;
lastChange = "2015-07-10 20:52:09 +0000";
layers = (
{
background = {
paths = (
{
closed = 1;
nodes = (
"400 -10 OFFCURVE",
"490 70 OFFCURVE",
"490 70 CURVE",
"455 130 LINE",
"455 130 OFFCURVE",
"395 70 OFFCURVE",
"300 70 CURVE SMOOTH",
"205 70 OFFCURVE",
"145 140 OFFCURVE",
"145 275 CURVE SMOOTH",
"145 400 OFFCURVE",
"200 460 OFFCURVE",
"295 460 CURVE SMOOTH",
"345 460 OFFCURVE",
"385 450 OFFCURVE",
"385 450 CURVE",
"400 365 LINE",
"465 365 LINE",
"470 500 LINE",
"470 500 OFFCURVE",
"390 540 OFFCURVE",
"300 540 CURVE SMOOTH",
"140 540 OFFCURVE",
"40 425 OFFCURVE",
"40 265 CURVE SMOOTH",
"40 95 OFFCURVE",
"125 -10 OFFCURVE",
"290 -10 CURVE SMOOTH"
);
},
{
closed = 1;
nodes = (
"325 640 OFFCURVE",
"350 662 OFFCURVE",
"350 700 CURVE SMOOTH",
"350 738 OFFCURVE",
"329 760 OFFCURVE",
"295 760 CURVE SMOOTH",
"265 760 OFFCURVE",
"240 738 OFFCURVE",
"240 700 CURVE SMOOTH",
"240 662 OFFCURVE",
"261 640 OFFCURVE",
"295 640 CURVE SMOOTH"
);
}
);
};
components = (
{
name = c;
},
{
name = dotaccent;
transform = "{1, 0, 0, 1, 150, 0}";
}
);
layerId = UUID0;
name = Regular;
width = 510;
},
{
components = (
{
name = c;
},
{
name = dotaccent;
transform = "{1, 0, 0, 1, 148, -149}";
}
);
layerId = "26DC72AF-247A-4505-B175-40140B6BEEEF";
name = Bold;
width = 525;
}
);
leftKerningGroup = o;
rightKerningGroup = c;
unicode = 010B;
},
{
glyphname = d;
lastChange = "2015-07-10 20:51:31 +0000";
layers = (
{
layerId = UUID0;
name = Regular;
paths = (
{
closed = 1;
nodes = (
"331 -10 OFFCURVE",
"383 28 OFFCURVE",
"412 57 CURVE",
"420 0 LINE",
"590 5 LINE",
"590 60 LINE",
"505 80 LINE",
"505 770 LINE",
"320 765 LINE",
"320 710 LINE",
"405 690 LINE",
"405 524 LINE",
"379 533 OFFCURVE",
"347 540 OFFCURVE",
"310 540 CURVE SMOOTH",
"130 540 OFFCURVE",
"45 420 OFFCURVE",
"45 250 CURVE SMOOTH",
"45 95 OFFCURVE",
"110 -10 OFFCURVE",
"255 -10 CURVE SMOOTH"
);
},
{
closed = 1;
nodes = (
"185 70 OFFCURVE",
"150 150 OFFCURVE",
"150 260 CURVE SMOOTH",
"150 370 OFFCURVE",
"184 460 OFFCURVE",
"300 460 CURVE SMOOTH",
"370 460 OFFCURVE",
"405 440 OFFCURVE",
"405 440 CURVE",
"405 145 LINE",
"405 145 OFFCURVE",
"360 70 OFFCURVE",
"275 70 CURVE SMOOTH"
);
}
);
width = 615;
},
{
layerId = "26DC72AF-247A-4505-B175-40140B6BEEEF";
name = Bold;
paths = (
{
closed = 1;
nodes = (
"331 -10 OFFCURVE",
"382 39 OFFCURVE",
"396 53 CURVE",
"405 0 LINE",
"618 7 LINE",
"618 87 LINE",
"538 107 LINE",
"538 775 LINE",
"308 767 LINE",
"308 687 LINE",
"388 667 LINE",
"388 540 LINE",
"366 545 OFFCURVE",
"337 550 OFFCURVE",
"313 550 CURVE SMOOTH",
"130 550 OFFCURVE",
"40 445 OFFCURVE",
"40 257 CURVE SMOOTH",
"40 92 OFFCURVE",
"105 -10 OFFCURVE",
"245 -10 CURVE SMOOTH"
);
},
{
closed = 1;
nodes = (
"223 110 OFFCURVE",
"195 164 OFFCURVE",
"195 265 CURVE SMOOTH",
"195 365 OFFCURVE",
"225 430 OFFCURVE",
"310 430 CURVE SMOOTH",
"339 430 OFFCURVE",
"369 424 OFFCURVE",
"388 415 CURVE",
"388 167 LINE",
"388 167 OFFCURVE",
"355 110 OFFCURVE",
"291 110 CURVE SMOOTH"
);
}
);
width = 638;
}
);
leftKerningGroup = o;
unicode = 0064;
},
{
glyphname = eth;
lastChange = "2015-07-10 20:51:31 +0000";
layers = (
{
layerId = UUID0;
name = Regular;
paths = (
{
closed = 1;
nodes = (
"430 -10 OFFCURVE",
"530 100 OFFCURVE",
"530 265 CURVE SMOOTH",
"530 457 OFFCURVE",
"466 591 OFFCURVE",
"372 676 CURVE",
"466 727 LINE",
"425 783 LINE",
"313 722 LINE",
"267 751 OFFCURVE",
"217 771 OFFCURVE",
"165 783 CURVE",
"135 720 LINE",
"171 708 OFFCURVE",
"204 694 OFFCURVE",
"233 678 CURVE",
"125 620 LINE",
"165 565 LINE",
"296 635 LINE",
"349 591 OFFCURVE",
"385 536 OFFCURVE",
"408 473 CURVE",
"377 497 OFFCURVE",
"336 515 OFFCURVE",
"285 515 CURVE SMOOTH",
"135 515 OFFCURVE",
"40 415 OFFCURVE",
"40 245 CURVE SMOOTH",
"40 80 OFFCURVE",
"130 -10 OFFCURVE",
"280 -10 CURVE SMOOTH"
);
},
{
closed = 1;
nodes = (
"190 70 OFFCURVE",
"145 140 OFFCURVE",
"145 250 CURVE SMOOTH",
"145 370 OFFCURVE",
"190 435 OFFCURVE",
"290 435 CURVE SMOOTH",
"390 435 OFFCURVE",
"425 365 OFFCURVE",
"425 255 CURVE SMOOTH",
"425 135 OFFCURVE",
"385 70 OFFCURVE",
"285 70 CURVE SMOOTH"
);
}
);
width = 575;
},
{
layerId = "26DC72AF-247A-4505-B175-40140B6BEEEF";
name = Bold;
paths = (
{
closed = 1;
nodes = (
"438 -12 OFFCURVE",
"538 100 OFFCURVE",
"538 272 CURVE SMOOTH",
"538 439 OFFCURVE",
"486 572 OFFCURVE",
"393 664 CURVE",
"474 710 LINE",
"416 789 LINE",
"311 728 LINE",
"267 755 OFFCURVE",
"218 776 OFFCURVE",
"164 789 CURVE",
"118 702 LINE",
"149 691 OFFCURVE",
"178 678 OFFCURVE",
"203 665 CURVE",
"115 615 LINE",
"173 536 LINE",
"290 603 LINE",
"326 569 OFFCURVE",
"351 528 OFFCURVE",
"368 483 CURVE",
"347 495 OFFCURVE",
"321 505 OFFCURVE",
"290 505 CURVE SMOOTH",
"141 505 OFFCURVE",
"35 406 OFFCURVE",
"35 240 CURVE SMOOTH",
"35 71 OFFCURVE",
"131 -12 OFFCURVE",
"280 -12 CURVE SMOOTH"
);
},
{
closed = 1;
nodes = (
"215 103 OFFCURVE",
"190 163 OFFCURVE",
"190 245 CURVE SMOOTH",
"190 338 OFFCURVE",
"218 390 OFFCURVE",
"290 390 CURVE SMOOTH",
"363 390 OFFCURVE",
"383 337 OFFCURVE",
"383 250 CURVE SMOOTH",
"383 158 OFFCURVE",
"358 103 OFFCURVE",
"285 103 CURVE SMOOTH"
);
}
);
width = 578;
}
);
leftKerningGroup = o;
unicode = 00F0;
},
{
glyphname = dcaron;
lastChange = "2015-07-10 17:16:23 +0000";
layers = (
{
components = (
{
disableAlignment = 1;
name = d;
},
{
disableAlignment = 1;
name = caron.x;
transform = "{1, 0, 0, 1, 560, 0}";
}
);
layerId = UUID0;
name = Regular;
paths = (
{
closed = 0;
nodes = (
"454 501 LINE"
);
}
);
width = 691;
},
{
components = (
{
name = d;
},
{
name = caron.x;
transform = "{1, 0, 0, 1, 580, 0}";
}
);
layerId = "26DC72AF-247A-4505-B175-40140B6BEEEF";
name = Bold;
paths = (
{
closed = 0;
nodes = (
"450 528 LINE"
);
}
);
width = 741;
}
);
leftKerningGroup = o;
unicode = 010F;
},
{
glyphname = dcroat;
lastChange = "2015-07-10 20:52:26 +0000";
layers = (
{
layerId = UUID0;
name = Regular;
paths = (
{
closed = 1;
nodes = (
"331 -10 OFFCURVE",
"383 28 OFFCURVE",
"412 57 CURVE",
"420 0 LINE",
"590 5 LINE",
"590 60 LINE",
"505 80 LINE",
"505 575 LINE",
"590 575 LINE",
"590 650 LINE",
"505 650 LINE",
"505 770 LINE",
"320 765 LINE",
"320 710 LINE",
"405 690 LINE",
"405 650 LINE",
"300 650 LINE",
"300 575 LINE",
"405 575 LINE",
"405 524 LINE",
"379 533 OFFCURVE",
"347 540 OFFCURVE",
"310 540 CURVE SMOOTH",
"130 540 OFFCURVE",
"45 420 OFFCURVE",
"45 250 CURVE SMOOTH",
"45 95 OFFCURVE",
"110 -10 OFFCURVE",
"255 -10 CURVE SMOOTH"
);
},
{
closed = 1;
nodes = (
"185 70 OFFCURVE",
"150 150 OFFCURVE",
"150 260 CURVE SMOOTH",
"150 370 OFFCURVE",
"184 460 OFFCURVE",
"300 460 CURVE SMOOTH",
"370 460 OFFCURVE",
"405 440 OFFCURVE",
"405 440 CURVE",
"405 145 LINE",
"405 145 OFFCURVE",
"360 70 OFFCURVE",
"275 70 CURVE SMOOTH"
);
}
);
width = 620;
},
{
guideLines = (
{
angle = 90;
position = "{615, 494}";
},
{
angle = 90;
position = "{308, 718}";
}
);
layerId = "26DC72AF-247A-4505-B175-40140B6BEEEF";
name = Bold;
paths = (
{
closed = 1;
nodes = (
"331 -10 OFFCURVE",
"382 39 OFFCURVE",
"396 53 CURVE",
"405 0 LINE",
"618 7 LINE",
"618 87 LINE",
"538 107 LINE",
"538 577 LINE",
"615 577 LINE",
"615 647 LINE",
"538 647 LINE",
"538 775 LINE",
"308 767 LINE",
"308 687 LINE",
"388 667 LINE",
"388 647 LINE",
"308 647 LINE",
"308 577 LINE",
"388 577 LINE",
"388 540 LINE",
"366 545 OFFCURVE",
"337 550 OFFCURVE",
"313 550 CURVE SMOOTH",
"130 550 OFFCURVE",
"40 445 OFFCURVE",
"40 257 CURVE SMOOTH",
"40 92 OFFCURVE",
"105 -10 OFFCURVE",
"245 -10 CURVE SMOOTH"
);
},
{
closed = 1;
nodes = (
"223 110 OFFCURVE",
"195 164 OFFCURVE",
"195 265 CURVE SMOOTH",
"195 365 OFFCURVE",
"225 430 OFFCURVE",
"310 430 CURVE SMOOTH",
"339 430 OFFCURVE",
"369 424 OFFCURVE",
"388 415 CURVE",
"388 167 LINE",
"388 167 OFFCURVE",
"355 110 OFFCURVE",
"291 110 CURVE SMOOTH"
);
}
);
width = 638;
}
);
leftKerningGroup = o;
unicode = 0111;
},
{
glyphname = e;
lastChange = "2015-07-10 20:51:31 +0000";
layers = (
{
layerId = UUID0;
name = Regular;
paths = (
{
closed = 1;
nodes = (
"400 -10 OFFCURVE",
"493 73 OFFCURVE",
"493 73 CURVE",
"458 125 LINE",
"458 125 OFFCURVE",
"390 70 OFFCURVE",
"290 70 CURVE SMOOTH",
"204 70 OFFCURVE",
"145 140 OFFCURVE",
"145 250 CURVE",
"490 252 LINE",
"490 252 OFFCURVE",
"495 280 OFFCURVE",
"495 305 CURVE",
"495 455 OFFCURVE",
"430 540 OFFCURVE",
"285 540 CURVE SMOOTH",
"140 540 OFFCURVE",
"40 420 OFFCURVE",
"40 260 CURVE SMOOTH",
"40 95 OFFCURVE",
"120 -10 OFFCURVE",
"280 -10 CURVE SMOOTH"
);
},
{
closed = 1;
nodes = (
"155 400 OFFCURVE",
"200 462 OFFCURVE",
"280 462 CURVE SMOOTH",
"360 462 OFFCURVE",
"389 400 OFFCURVE",
"389 325 CURVE",
"149 325 LINE"
);
}
);
width = 540;
},
{
layerId = "26DC72AF-247A-4505-B175-40140B6BEEEF";
name = Bold;
paths = (
{
closed = 1;
nodes = (
"423 -10 OFFCURVE",
"523 74 OFFCURVE",
"523 74 CURVE",
"480 157 LINE",
"480 157 OFFCURVE",
"395 110 OFFCURVE",
"312 110 CURVE SMOOTH",
"243 110 OFFCURVE",
"197 157 OFFCURVE",
"191 237 CURVE",
"523 240 LINE",
"523 240 OFFCURVE",
"529 277 OFFCURVE",
"529 315 CURVE SMOOTH",
"529 458 OFFCURVE",
"451 550 OFFCURVE",
"302 550 CURVE SMOOTH",
"134 550 OFFCURVE",
"35 435 OFFCURVE",
"35 260 CURVE SMOOTH",
"35 90 OFFCURVE",
"123 -10 OFFCURVE",
"295 -10 CURVE SMOOTH"
);
},
{
closed = 1;
nodes = (
"201 389 OFFCURVE",
"236 430 OFFCURVE",
"292 430 CURVE SMOOTH",
"350 430 OFFCURVE",
"374 387 OFFCURVE",
"374 330 CURVE",
"193 330 LINE"
);
}
);
width = 564;
}
);
leftKerningGroup = o;
rightKerningGroup = e;
unicode = 0065;
},
{
glyphname = ebreve;
lastChange = "2015-07-10 20:53:06 +0000";
layers = (
{
background = {
paths = (
{
closed = 1;
nodes = (
"490 252 LINE",
"490 252 OFFCURVE",
"495 280 OFFCURVE",
"495 305 CURVE",
"495 455 OFFCURVE",
"430 540 OFFCURVE",
"285 540 CURVE SMOOTH",
"140 540 OFFCURVE",
"40 420 OFFCURVE",
"40 260 CURVE SMOOTH",
"40 95 OFFCURVE",
"120 -10 OFFCURVE",
"280 -10 CURVE SMOOTH",
"400 -10 OFFCURVE",
"493 73 OFFCURVE",
"493 73 CURVE",
"458 125 LINE",
"458 125 OFFCURVE",
"390 70 OFFCURVE",
"290 70 CURVE SMOOTH",
"204 70 OFFCURVE",
"145 140 OFFCURVE",
"145 250 CURVE"
);
},
{
closed = 1;
nodes = (
"149 325 LINE",
"155 400 OFFCURVE",
"200 462 OFFCURVE",
"280 462 CURVE SMOOTH",
"360 462 OFFCURVE",
"389 400 OFFCURVE",
"389 325 CURVE"
);
},
{
closed = 1;
nodes = (
"355 760 LINE",
"355 760 OFFCURVE",
"350 690 OFFCURVE",
"275 690 CURVE SMOOTH",
"205 690 OFFCURVE",
"195 765 OFFCURVE",
"195 765 CURVE",
"135 760 LINE",
"135 675 OFFCURVE",
"200 615 OFFCURVE",
"270 615 CURVE SMOOTH",
"350 615 OFFCURVE",
"415 675 OFFCURVE",
"415 765 CURVE"
);
}
);
};
components = (
{
disableAlignment = 1;
name = e;
},
{
disableAlignment = 1;
name = breve;
transform = "{1, 0, 0, 1, 56, 0}";
}
);
layerId = UUID0;
name = Regular;
width = 530;
},
{
components = (
{
name = e;
},
{
name = breve;
transform = "{1, 0, 0, 1, 76, 16}";
}
);
layerId = "26DC72AF-247A-4505-B175-40140B6BEEEF";
name = Bold;
width = 564;
}
);
leftKerningGroup = o;
rightKerningGroup = e;
unicode = 0115;
},
{
glyphname = ecircumflex;
lastChange = "2015-07-10 20:53:31 +0000";
layers = (
{
background = {
paths = (
{
closed = 1;
nodes = (
"400 -10 OFFCURVE",
"493 73 OFFCURVE",
"493 73 CURVE",
"458 125 LINE",
"458 125 OFFCURVE",
"390 70 OFFCURVE",
"290 70 CURVE SMOOTH",
"204 70 OFFCURVE",
"145 140 OFFCURVE",
"145 250 CURVE",
"490 252 LINE",
"490 252 OFFCURVE",
"495 280 OFFCURVE",
"495 305 CURVE",
"495 455 OFFCURVE",
"430 540 OFFCURVE",
"285 540 CURVE SMOOTH",
"140 540 OFFCURVE",
"40 420 OFFCURVE",
"40 260 CURVE SMOOTH",
"40 95 OFFCURVE",
"120 -10 OFFCURVE",
"280 -10 CURVE SMOOTH"
);
},
{
closed = 1;
nodes = (
"155 400 OFFCURVE",
"200 462 OFFCURVE",
"280 462 CURVE SMOOTH",
"360 462 OFFCURVE",
"389 400 OFFCURVE",
"389 325 CURVE",
"149 325 LINE"
);
},
{
closed = 1;
nodes = (
"273 708 LINE",
"411 600 LINE",
"451 645 LINE",
"301 785 LINE",
"241 780 LINE",
"91 645 LINE",
"131 600 LINE"
);
}
);
};
components = (
{
name = e;
},
{
name = circumflex.x;
transform = "{1, 0, 0, 1, 11, -35}";
}
);
layerId = UUID0;
name = Regular;
width = 540;
},
{
components = (
{
name = e;
},
{
name = circumflex.x;
transform = "{1, 0, 0, 1, 5, -15}";
}
);
layerId = "26DC72AF-247A-4505-B175-40140B6BEEEF";
name = Bold;
width = 564;
}
);
leftKerningGroup = o;
rightKerningGroup = e;
unicode = 00EA;
},
{
glyphname = edieresis;
lastChange = "2015-07-10 20:53:48 +0000";
layers = (
{
background = {
paths = (
{
closed = 1;
nodes = (
"400 -10 OFFCURVE",
"493 73 OFFCURVE",
"493 73 CURVE",
"458 125 LINE",
"458 125 OFFCURVE",
"390 70 OFFCURVE",
"290 70 CURVE SMOOTH",
"204 70 OFFCURVE",
"145 140 OFFCURVE",
"145 250 CURVE",
"490 252 LINE",
"490 252 OFFCURVE",
"495 280 OFFCURVE",
"495 305 CURVE",
"495 455 OFFCURVE",
"430 540 OFFCURVE",
"285 540 CURVE SMOOTH",
"140 540 OFFCURVE",
"40 420 OFFCURVE",
"40 260 CURVE SMOOTH",
"40 95 OFFCURVE",
"120 -10 OFFCURVE",
"280 -10 CURVE SMOOTH"
);
},
{
closed = 1;
nodes = (
"155 400 OFFCURVE",
"200 462 OFFCURVE",
"280 462 CURVE SMOOTH",
"360 462 OFFCURVE",
"389 400 OFFCURVE",
"389 325 CURVE",
"149 325 LINE"
);
},
{
closed = 1;
nodes = (
"200 640 OFFCURVE",
"225 662 OFFCURVE",
"225 700 CURVE SMOOTH",
"225 738 OFFCURVE",
"204 760 OFFCURVE",
"170 760 CURVE SMOOTH",
"140 760 OFFCURVE",
"115 738 OFFCURVE",
"115 700 CURVE SMOOTH",
"115 662 OFFCURVE",
"136 640 OFFCURVE",
"170 640 CURVE SMOOTH"
);
},
{
closed = 1;
nodes = (
"405 640 OFFCURVE",
"430 662 OFFCURVE",
"430 700 CURVE SMOOTH",
"430 738 OFFCURVE",
"409 760 OFFCURVE",
"375 760 CURVE SMOOTH",
"345 760 OFFCURVE",
"320 738 OFFCURVE",
"320 700 CURVE SMOOTH",
"320 662 OFFCURVE",
"341 640 OFFCURVE",
"375 640 CURVE SMOOTH"
);
}
);
};
components = (
{
name = e;
},
{
name = dieresis;
transform = "{1, 0, 0, 1, 15, 0}";
}
);
layerId = UUID0;
name = Regular;
width = 540;
},
{
components = (
{
name = e;
},
{
name = dieresis;
transform = "{1, 0, 0, 1, 14, -14}";
}
);
layerId = "26DC72AF-247A-4505-B175-40140B6BEEEF";
name = Bold;
width = 564;
}
);
leftKerningGroup = o;
rightKerningGroup = e;
unicode = 00EB;
},
{
glyphname = edotaccent;
lastChange = "2015-07-10 20:54:08 +0000";
layers = (
{
background = {
paths = (
{
closed = 1;
nodes = (
"400 -10 OFFCURVE",
"493 73 OFFCURVE",
"493 73 CURVE",
"458 125 LINE",
"458 125 OFFCURVE",
"390 70 OFFCURVE",
"290 70 CURVE SMOOTH",
"204 70 OFFCURVE",
"145 140 OFFCURVE",
"145 250 CURVE",
"490 252 LINE",
"490 252 OFFCURVE",
"495 280 OFFCURVE",
"495 305 CURVE",
"495 455 OFFCURVE",
"430 540 OFFCURVE",
"285 540 CURVE SMOOTH",
"140 540 OFFCURVE",
"40 420 OFFCURVE",
"40 260 CURVE SMOOTH",
"40 95 OFFCURVE",
"120 -10 OFFCURVE",
"280 -10 CURVE SMOOTH"
);
},
{
closed = 1;
nodes = (
"155 400 OFFCURVE",
"200 462 OFFCURVE",
"280 462 CURVE SMOOTH",
"360 462 OFFCURVE",
"389 400 OFFCURVE",
"389 325 CURVE",
"149 325 LINE"
);
},
{
closed = 1;
nodes = (
"320 640 OFFCURVE",
"345 662 OFFCURVE",
"345 700 CURVE SMOOTH",
"345 738 OFFCURVE",
"324 760 OFFCURVE",
"290 760 CURVE SMOOTH",
"260 760 OFFCURVE",
"235 738 OFFCURVE",
"235 700 CURVE SMOOTH",
"235 662 OFFCURVE",
"256 640 OFFCURVE",
"290 640 CURVE SMOOTH"
);
}
);
};
components = (
{
name = e;
},
{
name = dotaccent;
transform = "{1, 0, 0, 1, 145, 0}";
}
);
layerId = UUID0;
name = Regular;
width = 540;
},
{
components = (
{
name = e;
},
{
name = dotaccent;
transform = "{1, 0, 0, 1, 150, -149}";
}
);
guideLines = (
{
position = "{333, 620}";
},
{
position = "{48, 776}";
}
);
layerId = "26DC72AF-247A-4505-B175-40140B6BEEEF";
name = Bold;
width = 564;
}
);
leftKerningGroup = o;
rightKerningGroup = e;
unicode = 0117;
},
{
glyphname = emacron;
lastChange = "2015-07-10 20:54:23 +0000";
layers = (
{
background = {
paths = (
{
closed = 1;
nodes = (
"400 -10 OFFCURVE",
"493 73 OFFCURVE",
"493 73 CURVE",
"458 125 LINE",
"458 125 OFFCURVE",
"390 70 OFFCURVE",
"290 70 CURVE SMOOTH",
"204 70 OFFCURVE",
"145 140 OFFCURVE",
"145 250 CURVE",
"490 252 LINE",
"490 252 OFFCURVE",
"495 280 OFFCURVE",
"495 305 CURVE",
"495 455 OFFCURVE",
"430 540 OFFCURVE",
"285 540 CURVE SMOOTH",
"140 540 OFFCURVE",
"40 420 OFFCURVE",
"40 260 CURVE SMOOTH",
"40 95 OFFCURVE",
"120 -10 OFFCURVE",
"280 -10 CURVE SMOOTH"
);
},
{
closed = 1;
nodes = (
"155 400 OFFCURVE",
"200 462 OFFCURVE",
"280 462 CURVE SMOOTH",
"360 462 OFFCURVE",
"389 400 OFFCURVE",
"389 325 CURVE",
"149 325 LINE"
);
},
{
closed = 1;
nodes = (
"421 660 LINE",
"421 735 LINE",
"151 735 LINE",
"151 660 LINE"
);
}
);
};
components = (
{
name = e;
},
{
name = macron;
transform = "{1, 0, 0, 1, 146, 0}";
}
);
layerId = UUID0;
name = Regular;
width = 540;
},
{
components = (
{
name = e;
},
{
name = macron;
transform = "{1, 0, 0, 1, 130, 4}";
}
);
layerId = "26DC72AF-247A-4505-B175-40140B6BEEEF";
name = Bold;
width = 564;
}
);
leftKerningGroup = o;
rightKerningGroup = e;
unicode = 0113;
},
{
glyphname = eogonek;
lastChange = "2015-07-10 20:51:31 +0000";
layers = (
{
layerId = UUID0;
name = Regular;
paths = (
{
closed = 1;
nodes = (
"384 -220 OFFCURVE",
"424 -200 OFFCURVE",
"424 -200 CURVE",
"414 -153 LINE",
"414 -153 OFFCURVE",
"389 -160 OFFCURVE",
"369 -160 CURVE SMOOTH",
"344 -160 OFFCURVE",
"324 -145 OFFCURVE",
"324 -115 CURVE SMOOTH",
"324 -44 OFFCURVE",
"458 50 OFFCURVE",
"493 73 CURVE",
"458 125 LINE",
"458 125 OFFCURVE",
"390 70 OFFCURVE",
"290 70 CURVE SMOOTH",
"204 70 OFFCURVE",
"145 140 OFFCURVE",
"145 250 CURVE",
"490 252 LINE",
"490 252 OFFCURVE",
"495 280 OFFCURVE",
"495 305 CURVE SMOOTH",
"495 455 OFFCURVE",
"430 540 OFFCURVE",
"285 540 CURVE SMOOTH",
"140 540 OFFCURVE",
"40 420 OFFCURVE",
"40 260 CURVE SMOOTH",
"40 95 OFFCURVE",
"120 -10 OFFCURVE",
"280 -10 CURVE SMOOTH",
"290 -10 OFFCURVE",
"301 -9 OFFCURVE",
"312 -7 CURVE",
"275 -40 OFFCURVE",
"244 -81 OFFCURVE",
"244 -125 CURVE SMOOTH",
"244 -185 OFFCURVE",
"289 -220 OFFCURVE",
"344 -220 CURVE SMOOTH"
);
},
{
closed = 1;
nodes = (
"155 400 OFFCURVE",
"200 462 OFFCURVE",
"280 462 CURVE SMOOTH",
"360 462 OFFCURVE",
"389 400 OFFCURVE",
"389 325 CURVE",
"149 325 LINE"
);
}
);
width = 530;
},
{
layerId = "26DC72AF-247A-4505-B175-40140B6BEEEF";
name = Bold;
paths = (
{
closed = 1;
nodes = (
"407 -235 OFFCURVE",
"454 -210 OFFCURVE",
"454 -210 CURVE",
"437 -140 LINE",
"437 -140 OFFCURVE",
"411 -146 OFFCURVE",
"395 -146 CURVE SMOOTH",
"373 -146 OFFCURVE",
"357 -132 OFFCURVE",
"357 -107 CURVE SMOOTH",
"357 -49 OFFCURVE",
"492 52 OFFCURVE",
"523 74 CURVE",
"480 157 LINE",
"445 139 OFFCURVE",
"389 110 OFFCURVE",
"312 110 CURVE SMOOTH",
"244 110 OFFCURVE",
"198 157 OFFCURVE",
"192 237 CURVE",
"524 240 LINE",
"524 240 OFFCURVE",
"529 277 OFFCURVE",
"529 315 CURVE SMOOTH",
"529 458 OFFCURVE",
"451 550 OFFCURVE",
"302 550 CURVE SMOOTH",
"134 550 OFFCURVE",
"35 435 OFFCURVE",
"35 260 CURVE SMOOTH",
"35 90 OFFCURVE",
"123 -10 OFFCURVE",
"295 -10 CURVE SMOOTH",
"304 -10 OFFCURVE",
"313 -9 OFFCURVE",
"322 -8 CURVE",
"287 -36 OFFCURVE",
"242 -81 OFFCURVE",
"242 -137 CURVE SMOOTH",
"242 -203 OFFCURVE",
"292 -235 OFFCURVE",
"352 -235 CURVE SMOOTH"
);
},
{
closed = 1;
nodes = (
"202 389 OFFCURVE",
"237 430 OFFCURVE",
"292 430 CURVE SMOOTH",
"350 430 OFFCURVE",
"374 387 OFFCURVE",
"374 330 CURVE",
"194 330 LINE"
);
}
);
width = 559;
}
);
leftKerningGroup = o;
rightKerningGroup = e;
unicode = 0119;
},
{
glyphname = f;
lastChange = "2015-07-10 20:51:31 +0000";
layers = (
{
layerId = UUID0;
name = Regular;
paths = (
{
closed = 1;
nodes = (
"335 0 LINE",
"335 55 LINE",
"235 80 LINE",
"235 450 LINE",
"364 450 LINE",
"367 525 LINE",
"235 525 LINE",
"235 605 LINE SMOOTH",
"235 665 OFFCURVE",
"255 705 OFFCURVE",
"325 705 CURVE SMOOTH",
"360 705 OFFCURVE",
"385 700 OFFCURVE",
"385 700 CURVE",
"400 620 LINE",
"470 620 LINE",
"470 745 LINE",
"470 745 OFFCURVE",
"415 780 OFFCURVE",
"320 780 CURVE SMOOTH",
"200 780 OFFCURVE",
"135 705 OFFCURVE",
"135 585 CURVE SMOOTH",
"135 525 LINE",
"45 515 LINE",
"45 450 LINE",
"135 450 LINE",
"135 80 LINE",
"50 55 LINE",
"50 0 LINE"
);
}
);
width = 415;
},
{
layerId = "26DC72AF-247A-4505-B175-40140B6BEEEF";
name = Bold;
paths = (
{
closed = 1;
nodes = (
"380 0 LINE",
"380 80 LINE",
"280 105 LINE",
"280 430 LINE",
"407 430 LINE",
"410 530 LINE",
"280 530 LINE",
"280 592 LINE SMOOTH",
"280 644 OFFCURVE",
"302 677 OFFCURVE",
"357 677 CURVE SMOOTH",
"390 677 OFFCURVE",
"414 673 OFFCURVE",
"414 673 CURVE",
"429 603 LINE",
"519 603 LINE",
"522 750 LINE",
"522 750 OFFCURVE",
"453 787 OFFCURVE",
"345 787 CURVE SMOOTH",
"203 787 OFFCURVE",
"130 702 OFFCURVE",
"130 575 CURVE SMOOTH",
"130 530 LINE",
"40 515 LINE",
"40 430 LINE",
"130 430 LINE",
"130 105 LINE",
"50 80 LINE",
"50 0 LINE"
);
}
);
width = 462;
}
);
leftKerningGroup = f;
rightKerningGroup = f;
unicode = 0066;
},
{
glyphname = g;
lastChange = "2015-07-10 20:51:31 +0000";
layers = (
{
layerId = UUID0;
name = Regular;
paths = (
{
closed = 1;
nodes = (
"460 -250 OFFCURVE",
"545 -180 OFFCURVE",
"545 -70 CURVE SMOOTH",
"545 25 OFFCURVE",
"475 75 OFFCURVE",
"345 75 CURVE SMOOTH",
"190 75 LINE",
"195 169 LINE",
"195 169 OFFCURVE",
"225 160 OFFCURVE",
"270 160 CURVE",
"400 160 OFFCURVE",
"490 220 OFFCURVE",
"490 355 CURVE",
"490 420 OFFCURVE",
"463 456 OFFCURVE",
"463 456 CURVE",
"560 470 LINE",
"560 525 LINE",
"385 521 LINE",
"385 521 OFFCURVE",
"350 540 OFFCURVE",
"285 540 CURVE",
"155 540 OFFCURVE",
"65 475 OFFCURVE",
"65 345 CURVE",
"65 225 OFFCURVE",
"142 190 OFFCURVE",
"142 190 CURVE",
"142 190 OFFCURVE",
"90 110 OFFCURVE",
"90 77 CURVE",
"90 25 OFFCURVE",
"150 20 OFFCURVE",
"150 20 CURVE",
"150 20 OFFCURVE",
"45 -15 OFFCURVE",
"45 -105 CURVE SMOOTH",
"45 -215 OFFCURVE",
"145 -250 OFFCURVE",
"285 -250 CURVE SMOOTH"
);
},
{
closed = 1;
nodes = (
"205 -175 OFFCURVE",
"145 -160 OFFCURVE",
"145 -90 CURVE SMOOTH",
"145 -30 OFFCURVE",
"210 0 OFFCURVE",
"210 0 CURVE",
"320 0 LINE",
"400 0 OFFCURVE",
"450 -15 OFFCURVE",
"450 -80 CURVE SMOOTH",
"450 -145 OFFCURVE",
"400 -175 OFFCURVE",
"300 -175 CURVE SMOOTH"
);
},
{
closed = 1;
nodes = (
"200 230 OFFCURVE",
"165 280 OFFCURVE",
"165 350 CURVE SMOOTH",
"165 430 OFFCURVE",
"200 470 OFFCURVE",
"280 470 CURVE SMOOTH",
"355 470 OFFCURVE",
"390 425 OFFCURVE",
"390 350 CURVE SMOOTH",
"390 265 OFFCURVE",
"355 230 OFFCURVE",
"275 230 CURVE SMOOTH"
);
}
);
width = 585;
},
{
layerId = "26DC72AF-247A-4505-B175-40140B6BEEEF";
name = Bold;
paths = (
{
closed = 1;
nodes = (
"490 -255 OFFCURVE",
"578 -175 OFFCURVE",
"578 -65 CURVE SMOOTH",
"578 35 OFFCURVE",
"505 90 OFFCURVE",
"378 90 CURVE SMOOTH",
"230 90 LINE",
"234 157 LINE",
"238 157 OFFCURVE",
"258 152 OFFCURVE",
"285 152 CURVE SMOOTH",
"423 152 OFFCURVE",
"525 212 OFFCURVE",
"525 357 CURVE SMOOTH",
"525 400 OFFCURVE",
"510 427 OFFCURVE",
"508 436 CURVE",
"590 450 LINE",
"590 530 LINE",
"418 526 LINE",
"399 535 OFFCURVE",
"358 550 OFFCURVE",
"300 550 CURVE SMOOTH",
"163 550 OFFCURVE",
"60 482 OFFCURVE",
"60 345 CURVE SMOOTH",
"60 248 OFFCURVE",
"113 205 OFFCURVE",
"137 189 CURVE",
"125 170 OFFCURVE",
"85 105 OFFCURVE",
"85 76 CURVE SMOOTH",
"85 19 OFFCURVE",
"145 10 OFFCURVE",
"145 10 CURVE",
"145 10 OFFCURVE",
"40 -24 OFFCURVE",
"40 -110 CURVE SMOOTH",
"40 -220 OFFCURVE",
"141 -255 OFFCURVE",
"298 -255 CURVE SMOOTH"
);
},
{
closed = 1;
nodes = (
"228 -145 OFFCURVE",
"185 -135 OFFCURVE",
"185 -85 CURVE SMOOTH",
"185 -42 OFFCURVE",
"233 -20 OFFCURVE",
"233 -20 CURVE",
"338 -20 LINE",
"405 -20 OFFCURVE",
"438 -32 OFFCURVE",
"438 -77 CURVE SMOOTH",
"438 -125 OFFCURVE",
"400 -145 OFFCURVE",
"310 -145 CURVE SMOOTH"
);
},
{
closed = 1;
nodes = (
"233 252 OFFCURVE",
"210 292 OFFCURVE",
"210 352 CURVE SMOOTH",
"210 415 OFFCURVE",
"235 447 OFFCURVE",
"295 447 CURVE SMOOTH",
"350 447 OFFCURVE",
"375 415 OFFCURVE",
"375 352 CURVE SMOOTH",
"375 285 OFFCURVE",
"353 252 OFFCURVE",
"290 252 CURVE SMOOTH"
);
}
);
width = 610;
}
);
leftKerningGroup = g;
rightKerningGroup = g;
unicode = 0067;
},
{
glyphname = gbreve;
lastChange = "2015-07-10 17:16:23 +0000";
layers = (
{
background = {
paths = (
{
closed = 1;
nodes = (
"560 525 LINE",
"385 521 LINE",
"385 521 OFFCURVE",
"350 540 OFFCURVE",
"285 540 CURVE",
"155 540 OFFCURVE",
"65 475 OFFCURVE",
"65 345 CURVE",
"65 225 OFFCURVE",
"142 190 OFFCURVE",
"142 190 CURVE",
"142 190 OFFCURVE",
"90 110 OFFCURVE",
"90 77 CURVE",
"90 25 OFFCURVE",
"150 20 OFFCURVE",
"150 20 CURVE",
"150 20 OFFCURVE",
"45 -15 OFFCURVE",
"45 -105 CURVE SMOOTH",
"45 -215 OFFCURVE",
"145 -250 OFFCURVE",
"285 -250 CURVE SMOOTH",
"460 -250 OFFCURVE",
"545 -180 OFFCURVE",
"545 -70 CURVE SMOOTH",
"545 25 OFFCURVE",
"475 75 OFFCURVE",
"345 75 CURVE SMOOTH",
"190 75 LINE",
"195 169 LINE",
"195 169 OFFCURVE",
"225 160 OFFCURVE",
"270 160 CURVE",
"400 160 OFFCURVE",
"490 220 OFFCURVE",
"490 355 CURVE",
"490 420 OFFCURVE",
"463 456 OFFCURVE",
"463 456 CURVE",
"560 470 LINE"
);
},
{
closed = 1;
nodes = (
"320 0 LINE",
"400 0 OFFCURVE",
"450 -15 OFFCURVE",
"450 -80 CURVE SMOOTH",
"450 -145 OFFCURVE",
"400 -175 OFFCURVE",
"300 -175 CURVE SMOOTH",
"205 -175 OFFCURVE",
"145 -160 OFFCURVE",
"145 -90 CURVE SMOOTH",
"145 -30 OFFCURVE",
"210 0 OFFCURVE",
"210 0 CURVE"
);
},
{
closed = 1;
nodes = (
"355 470 OFFCURVE",
"390 425 OFFCURVE",
"390 350 CURVE SMOOTH",
"390 265 OFFCURVE",
"355 230 OFFCURVE",
"275 230 CURVE SMOOTH",
"200 230 OFFCURVE",
"165 280 OFFCURVE",
"165 350 CURVE SMOOTH",
"165 430 OFFCURVE",
"200 470 OFFCURVE",
"280 470 CURVE SMOOTH"
);
},
{
closed = 1;
nodes = (
"367 760 LINE",
"367 760 OFFCURVE",
"362 690 OFFCURVE",
"287 690 CURVE SMOOTH",
"217 690 OFFCURVE",
"207 765 OFFCURVE",
"207 765 CURVE",
"147 760 LINE",
"147 675 OFFCURVE",
"212 615 OFFCURVE",
"282 615 CURVE SMOOTH",
"362 615 OFFCURVE",
"427 675 OFFCURVE",
"427 765 CURVE"
);
}
);
};
components = (
{
disableAlignment = 1;
name = g;
},
{
disableAlignment = 1;
name = breve;
transform = "{1, 0, 0, 1, 67, 0}";
}
);
layerId = UUID0;
name = Regular;
width = 585;
},
{
components = (
{
name = g;
},
{
name = breve;
transform = "{1, 0, 0, 1, 85, 16}";
}
);
layerId = "26DC72AF-247A-4505-B175-40140B6BEEEF";
name = Bold;
width = 610;
}
);
leftKerningGroup = g;
rightKerningGroup = g;
unicode = 011F;
},
{
glyphname = gcircumflex;
lastChange = "2015-07-10 20:54:52 +0000";
layers = (
{
background = {
paths = (
{
closed = 1;
nodes = (
"460 -250 OFFCURVE",
"545 -180 OFFCURVE",
"545 -70 CURVE SMOOTH",
"545 25 OFFCURVE",
"475 75 OFFCURVE",
"345 75 CURVE SMOOTH",
"190 75 LINE",
"195 169 LINE",
"195 169 OFFCURVE",
"225 160 OFFCURVE",
"270 160 CURVE",
"400 160 OFFCURVE",
"490 220 OFFCURVE",
"490 355 CURVE",
"490 420 OFFCURVE",
"463 456 OFFCURVE",
"463 456 CURVE",
"560 470 LINE",
"560 525 LINE",
"385 521 LINE",
"385 521 OFFCURVE",
"350 540 OFFCURVE",
"285 540 CURVE",
"155 540 OFFCURVE",
"65 475 OFFCURVE",
"65 345 CURVE",
"65 225 OFFCURVE",
"142 190 OFFCURVE",
"142 190 CURVE",
"142 190 OFFCURVE",
"90 110 OFFCURVE",
"90 77 CURVE",
"90 25 OFFCURVE",
"150 20 OFFCURVE",
"150 20 CURVE",
"150 20 OFFCURVE",
"45 -15 OFFCURVE",
"45 -105 CURVE SMOOTH",
"45 -215 OFFCURVE",
"145 -250 OFFCURVE",
"285 -250 CURVE SMOOTH"
);
},
{
closed = 1;
nodes = (
"205 -175 OFFCURVE",
"145 -160 OFFCURVE",
"145 -90 CURVE SMOOTH",
"145 -30 OFFCURVE",
"210 0 OFFCURVE",
"210 0 CURVE",
"320 0 LINE",
"400 0 OFFCURVE",
"450 -15 OFFCURVE",
"450 -80 CURVE SMOOTH",
"450 -145 OFFCURVE",
"400 -175 OFFCURVE",
"300 -175 CURVE SMOOTH"
);
},
{
closed = 1;
nodes = (
"200 230 OFFCURVE",
"165 280 OFFCURVE",
"165 350 CURVE SMOOTH",
"165 430 OFFCURVE",
"200 470 OFFCURVE",
"280 470 CURVE SMOOTH",
"355 470 OFFCURVE",
"390 425 OFFCURVE",
"390 350 CURVE SMOOTH",
"390 265 OFFCURVE",
"355 230 OFFCURVE",
"275 230 CURVE SMOOTH"
);
},
{
closed = 1;
nodes = (
"302 708 LINE",
"440 600 LINE",
"480 645 LINE",
"330 785 LINE",
"270 780 LINE",
"120 645 LINE",
"160 600 LINE"
);
}
);
};
components = (
{
name = g;
},
{
name = circumflex.x;
transform = "{1, 0, 0, 1, 40, -34}";
}
);
layerId = UUID0;
name = Regular;
width = 585;
},
{
components = (
{
name = g;
},
{
name = circumflex.x;
transform = "{1, 0, 0, 1, 23, -15}";
}
);
layerId = "26DC72AF-247A-4505-B175-40140B6BEEEF";
name = Bold;
width = 610;
}
);
leftKerningGroup = g;
rightKerningGroup = g;
unicode = 011D;
},
{
glyphname = gcommaaccent;
lastChange = "2015-07-10 20:55:24 +0000";
layers = (
{
background = {
paths = (
{
closed = 1;
nodes = (
"460 -250 OFFCURVE",
"545 -180 OFFCURVE",
"545 -70 CURVE SMOOTH",
"545 25 OFFCURVE",
"475 75 OFFCURVE",
"345 75 CURVE SMOOTH",
"190 75 LINE",
"195 169 LINE",
"195 169 OFFCURVE",
"225 160 OFFCURVE",
"270 160 CURVE",
"400 160 OFFCURVE",
"490 220 OFFCURVE",
"490 355 CURVE",
"490 420 OFFCURVE",
"463 456 OFFCURVE",
"463 456 CURVE",
"560 470 LINE",
"560 525 LINE",
"385 521 LINE",
"385 521 OFFCURVE",
"350 540 OFFCURVE",
"285 540 CURVE",
"155 540 OFFCURVE",
"65 475 OFFCURVE",
"65 345 CURVE",
"65 225 OFFCURVE",
"142 190 OFFCURVE",
"142 190 CURVE",
"142 190 OFFCURVE",
"90 110 OFFCURVE",
"90 77 CURVE",
"90 25 OFFCURVE",
"150 20 OFFCURVE",
"150 20 CURVE",
"150 20 OFFCURVE",
"45 -15 OFFCURVE",
"45 -105 CURVE SMOOTH",
"45 -215 OFFCURVE",
"145 -250 OFFCURVE",
"285 -250 CURVE SMOOTH"
);
},
{
closed = 1;
nodes = (
"205 -175 OFFCURVE",
"145 -160 OFFCURVE",
"145 -90 CURVE SMOOTH",
"145 -30 OFFCURVE",
"210 0 OFFCURVE",
"210 0 CURVE",
"320 0 LINE",
"400 0 OFFCURVE",
"450 -15 OFFCURVE",
"450 -80 CURVE SMOOTH",
"450 -145 OFFCURVE",
"400 -175 OFFCURVE",
"300 -175 CURVE SMOOTH"
);
},
{
closed = 1;
nodes = (
"200 230 OFFCURVE",
"165 280 OFFCURVE",
"165 350 CURVE SMOOTH",
"165 430 OFFCURVE",
"200 470 OFFCURVE",
"280 470 CURVE SMOOTH",
"355 470 OFFCURVE",
"390 425 OFFCURVE",
"390 350 CURVE SMOOTH",
"390 265 OFFCURVE",
"355 230 OFFCURVE",
"275 230 CURVE SMOOTH"
);
},
{
closed = 1;
nodes = (
"339 629 OFFCURVE",
"380 685 OFFCURVE",
"380 740 CURVE SMOOTH",
"380 785 OFFCURVE",
"355 805 OFFCURVE",
"320 805 CURVE SMOOTH",
"287 805 OFFCURVE",
"260 783 OFFCURVE",
"260 745 CURVE SMOOTH",
"260 715 OFFCURVE",
"285 700 OFFCURVE",
"285 685 CURVE SMOOTH",
"285 664 OFFCURVE",
"230 619 OFFCURVE",
"230 619 CURVE",
"268 576 LINE"
);
}
);
};
components = (
{
name = g;
},
{
name = commaaccent;
transform = "{1, 0, 0, 1, 201, 860}";
}
);
layerId = UUID0;
name = Regular;
width = 585;
},
{
components = (
{
name = g;
},
{
name = commaaccent;
transform = "{1, 0, 0, 1, 214, 910}";
}
);
layerId = "26DC72AF-247A-4505-B175-40140B6BEEEF";
name = Bold;
width = 610;
}
);
leftKerningGroup = g;
rightKerningGroup = g;
unicode = 0123;
},
{
glyphname = gdotaccent;
lastChange = "2015-07-10 20:55:38 +0000";
layers = (
{
background = {
paths = (
{
closed = 1;
nodes = (
"460 -250 OFFCURVE",
"545 -180 OFFCURVE",
"545 -70 CURVE SMOOTH",
"545 25 OFFCURVE",
"475 75 OFFCURVE",
"345 75 CURVE SMOOTH",
"190 75 LINE",
"195 169 LINE",
"195 169 OFFCURVE",
"225 160 OFFCURVE",
"270 160 CURVE",
"400 160 OFFCURVE",
"490 220 OFFCURVE",
"490 355 CURVE",
"490 420 OFFCURVE",
"463 456 OFFCURVE",
"463 456 CURVE",
"560 470 LINE",
"560 525 LINE",
"385 521 LINE",
"385 521 OFFCURVE",
"350 540 OFFCURVE",
"285 540 CURVE",
"155 540 OFFCURVE",
"65 475 OFFCURVE",
"65 345 CURVE",
"65 225 OFFCURVE",
"142 190 OFFCURVE",
"142 190 CURVE",
"142 190 OFFCURVE",
"90 110 OFFCURVE",
"90 77 CURVE",
"90 25 OFFCURVE",
"150 20 OFFCURVE",
"150 20 CURVE",
"150 20 OFFCURVE",
"45 -15 OFFCURVE",
"45 -105 CURVE SMOOTH",
"45 -215 OFFCURVE",
"145 -250 OFFCURVE",
"285 -250 CURVE SMOOTH"
);
},
{
closed = 1;
nodes = (
"205 -175 OFFCURVE",
"145 -160 OFFCURVE",
"145 -90 CURVE SMOOTH",
"145 -30 OFFCURVE",
"210 0 OFFCURVE",
"210 0 CURVE",
"320 0 LINE",
"400 0 OFFCURVE",
"450 -15 OFFCURVE",
"450 -80 CURVE SMOOTH",
"450 -145 OFFCURVE",
"400 -175 OFFCURVE",
"300 -175 CURVE SMOOTH"
);
},
{
closed = 1;
nodes = (
"200 230 OFFCURVE",
"165 280 OFFCURVE",
"165 350 CURVE SMOOTH",
"165 430 OFFCURVE",
"200 470 OFFCURVE",
"280 470 CURVE SMOOTH",
"355 470 OFFCURVE",
"390 425 OFFCURVE",
"390 350 CURVE SMOOTH",
"390 265 OFFCURVE",
"355 230 OFFCURVE",
"275 230 CURVE SMOOTH"
);
},
{
closed = 1;
nodes = (
"312 640 OFFCURVE",
"337 662 OFFCURVE",
"337 700 CURVE SMOOTH",
"337 738 OFFCURVE",
"316 760 OFFCURVE",
"282 760 CURVE SMOOTH",
"252 760 OFFCURVE",
"227 738 OFFCURVE",
"227 700 CURVE SMOOTH",
"227 662 OFFCURVE",
"248 640 OFFCURVE",
"282 640 CURVE SMOOTH"
);
}
);
};
components = (
{
name = g;
},
{
name = dotaccent;
transform = "{1, 0, 0, 1, 137, 0}";
}
);
layerId = UUID0;
name = Regular;
width = 585;
},
{
components = (
{
name = g;
},
{
name = dotaccent;
transform = "{1, 0, 0, 1, 148, -149}";
}
);
layerId = "26DC72AF-247A-4505-B175-40140B6BEEEF";
name = Bold;
width = 610;
}
);
leftKerningGroup = g;
rightKerningGroup = g;
unicode = 0121;
},
{
glyphname = h;
lastChange = "2015-07-10 20:51:31 +0000";
layers = (
{
layerId = UUID0;
name = Regular;
paths = (
{
closed = 1;
nodes = (
"275 0 LINE",
"275 55 LINE",
"210 80 LINE",
"210 375 LINE",
"210 375 OFFCURVE",
"273 455 OFFCURVE",
"358 455 CURVE SMOOTH",
"423 455 OFFCURVE",
"445 420 OFFCURVE",
"445 350 CURVE SMOOTH",
"445 79 LINE",
"380 55 LINE",
"380 0 LINE",
"620 0 LINE",
"620 55 LINE",
"545 80 LINE",
"545 360 LINE SMOOTH",
"545 470 OFFCURVE",
"495 540 OFFCURVE",
"385 540 CURVE SMOOTH",
"311 540 OFFCURVE",
"241 494 OFFCURVE",
"210 468 CURVE",
"210 770 LINE",
"25 765 LINE",
"25 710 LINE",
"110 690 LINE",
"110 80 LINE",
"25 55 LINE",
"25 0 LINE"
);
}
);
width = 650;
},
{
layerId = "26DC72AF-247A-4505-B175-40140B6BEEEF";
name = Bold;
paths = (
{
closed = 1;
nodes = (
"303 0 LINE",
"303 80 LINE",
"250 105 LINE",
"250 373 LINE",
"250 373 OFFCURVE",
"303 426 OFFCURVE",
"359 426 CURVE SMOOTH",
"405 426 OFFCURVE",
"425 396 OFFCURVE",
"425 346 CURVE SMOOTH",
"425 104 LINE",
"373 80 LINE",
"373 0 LINE",
"645 0 LINE",
"645 80 LINE",
"575 105 LINE",
"575 370 LINE SMOOTH",
"575 482 OFFCURVE",
"520 550 OFFCURVE",
"418 550 CURVE SMOOTH",
"344 550 OFFCURVE",
"279 506 OFFCURVE",
"250 482 CURVE",
"250 775 LINE",
"20 767 LINE",
"20 687 LINE",
"100 667 LINE",
"100 105 LINE",
"20 80 LINE",
"20 0 LINE"
);
}
);
width = 670;
}
);
rightKerningGroup = n;
unicode = 0068;
},
{
glyphname = hbar;
lastChange = "2015-07-10 20:55:48 +0000";
layers = (
{
layerId = UUID0;
name = Regular;
paths = (
{
closed = 1;
nodes = (
"275 0 LINE",
"275 55 LINE",
"210 80 LINE",
"210 375 LINE",
"210 375 OFFCURVE",
"273 455 OFFCURVE",
"358 455 CURVE SMOOTH",
"423 455 OFFCURVE",
"445 420 OFFCURVE",
"445 350 CURVE SMOOTH",
"445 79 LINE",
"380 55 LINE",
"380 0 LINE",
"620 0 LINE",
"620 55 LINE",
"545 80 LINE",
"545 360 LINE SMOOTH",
"545 470 OFFCURVE",
"495 540 OFFCURVE",
"385 540 CURVE SMOOTH",
"311 540 OFFCURVE",
"241 494 OFFCURVE",
"210 468 CURVE",
"210 575 LINE",
"315 575 LINE",
"315 650 LINE",
"210 650 LINE",
"210 770 LINE",
"25 765 LINE",
"25 710 LINE",
"110 690 LINE",
"110 650 LINE",
"25 650 LINE",
"25 575 LINE",
"110 575 LINE",
"110 80 LINE",
"25 55 LINE",
"25 0 LINE"
);
}
);
width = 650;
},
{
guideLines = (
{
angle = 90;
position = "{20, 681}";
}
);
layerId = "26DC72AF-247A-4505-B175-40140B6BEEEF";
name = Bold;
paths = (
{
closed = 1;
nodes = (
"303 0 LINE",
"303 80 LINE",
"250 105 LINE",
"250 373 LINE",
"250 373 OFFCURVE",
"303 426 OFFCURVE",
"359 426 CURVE SMOOTH",
"405 426 OFFCURVE",
"425 396 OFFCURVE",
"425 346 CURVE SMOOTH",
"425 104 LINE",
"373 80 LINE",
"373 0 LINE",
"645 0 LINE",
"645 80 LINE",
"575 105 LINE",
"575 370 LINE SMOOTH",
"575 482 OFFCURVE",
"520 550 OFFCURVE",
"418 550 CURVE SMOOTH",
"344 550 OFFCURVE",
"279 506 OFFCURVE",
"250 482 CURVE",
"250 560 LINE",
"327 560 LINE",
"327 640 LINE",
"250 640 LINE",
"250 775 LINE",
"20 767 LINE",
"20 687 LINE",
"100 667 LINE",
"100 640 LINE",
"20 640 LINE",
"20 560 LINE",
"100 560 LINE",
"100 105 LINE",
"20 80 LINE",
"20 0 LINE"
);
}
);
width = 670;
}
);
rightKerningGroup = n;
unicode = 0127;
},
{
glyphname = hcircumflex;
lastChange = "2015-07-10 20:56:36 +0000";
layers = (
{
background = {
paths = (
{
closed = 1;
nodes = (
"275 0 LINE",
"275 55 LINE",
"210 80 LINE",
"210 375 LINE",
"210 375 OFFCURVE",
"273 455 OFFCURVE",
"358 455 CURVE SMOOTH",
"423 455 OFFCURVE",
"445 420 OFFCURVE",
"445 350 CURVE SMOOTH",
"445 79 LINE",
"380 55 LINE",
"380 0 LINE",
"620 0 LINE",
"620 55 LINE",
"545 80 LINE",
"545 360 LINE SMOOTH",
"545 470 OFFCURVE",
"495 540 OFFCURVE",
"385 540 CURVE SMOOTH",
"311 540 OFFCURVE",
"241 494 OFFCURVE",
"210 468 CURVE",
"210 770 LINE",
"25 765 LINE",
"25 710 LINE",
"110 690 LINE",
"110 80 LINE",
"25 55 LINE",
"25 0 LINE"
);
},
{
closed = 1;
nodes = (
"147 883 LINE",
"273 790 LINE",
"313 835 LINE",
"175 960 LINE",
"115 955 LINE",
"-23 835 LINE",
"17 790 LINE"
);
}
);
};
components = (
{
name = h;
}
);
layerId = UUID0;
name = Regular;
paths = (
{
closed = 1;
nodes = (
"147 883 LINE",
"273 790 LINE",
"313 835 LINE",
"175 960 LINE",
"115 955 LINE",
"-23 835 LINE",
"17 790 LINE"
);
}
);
width = 650;
},
{
components = (
{
name = h;
}
);
layerId = "26DC72AF-247A-4505-B175-40140B6BEEEF";
name = Bold;
paths = (
{
closed = 1;
nodes = (
"163 894 LINE",
"317 779 LINE",
"365 840 LINE",
"200 1001 LINE",
"111 993 LINE",
"-43 840 LINE",
"5 779 LINE"
);
}
);
width = 670;
}
);
rightKerningGroup = n;
unicode = 0125;
},
{
glyphname = i;
lastChange = "2015-07-10 20:51:31 +0000";
layers = (
{
layerId = UUID0;
name = Regular;
paths = (
{
closed = 1;
nodes = (
"300 0 LINE",
"300 55 LINE",
"225 80 LINE",
"225 530 LINE",
"40 525 LINE",
"40 470 LINE",
"125 450 LINE",
"125 80 LINE",
"40 55 LINE",
"40 0 LINE"
);
},
{
closed = 1;
nodes = (
"200 625 OFFCURVE",
"235 650 OFFCURVE",
"235 695 CURVE SMOOTH",
"235 745 OFFCURVE",
"210 765 OFFCURVE",
"170 765 CURVE SMOOTH",
"135 765 OFFCURVE",
"105 740 OFFCURVE",
"105 695 CURVE SMOOTH",
"105 650 OFFCURVE",
"130 625 OFFCURVE",
"170 625 CURVE SMOOTH"
);
}
);
width = 335;
},
{
layerId = "26DC72AF-247A-4505-B175-40140B6BEEEF";
name = Bold;
paths = (
{
closed = 1;
nodes = (
"335 0 LINE",
"335 80 LINE",
"265 105 LINE",
"265 540 LINE",
"35 535 LINE",
"35 455 LINE",
"115 430 LINE",
"115 105 LINE",
"35 80 LINE",
"35 0 LINE"
);
},
{
closed = 1;
nodes = (
"224 614 OFFCURVE",
"267 646 OFFCURVE",
"267 705 CURVE SMOOTH",
"267 768 OFFCURVE",
"235 795 OFFCURVE",
"183 795 CURVE SMOOTH",
"138 795 OFFCURVE",
"97 762 OFFCURVE",
"97 705 CURVE SMOOTH",
"97 646 OFFCURVE",
"129 614 OFFCURVE",
"183 614 CURVE SMOOTH"
);
}
);
width = 365;
}
);
leftKerningGroup = i;
rightKerningGroup = i;
unicode = 0069;
},
{
glyphname = dotlessi;
lastChange = "2015-07-10 20:51:31 +0000";
layers = (
{
layerId = UUID0;
name = Regular;
paths = (
{
closed = 1;
nodes = (
"300 0 LINE",
"300 55 LINE",
"225 80 LINE",
"225 530 LINE",
"40 525 LINE",
"40 470 LINE",
"125 450 LINE",
"125 80 LINE",
"40 55 LINE",
"40 0 LINE"
);
}
);
width = 335;
},
{
layerId = "26DC72AF-247A-4505-B175-40140B6BEEEF";
name = Bold;
paths = (
{
closed = 1;
nodes = (
"332 0 LINE",
"332 80 LINE",
"262 105 LINE",
"262 540 LINE",
"35 532 LINE",
"35 452 LINE",
"115 432 LINE",
"115 105 LINE",
"35 80 LINE",
"35 0 LINE"
);
}
);
width = 362;
}
);
leftKerningGroup = i;
rightKerningGroup = i;
unicode = 0131;
},
{
glyphname = ibreve;
lastChange = "2015-07-10 20:57:16 +0000";
layers = (
{
background = {
paths = (
{
closed = 1;
nodes = (
"222 530 LINE",
"37 525 LINE",
"37 470 LINE",
"122 450 LINE",
"122 80 LINE",
"37 55 LINE",
"37 0 LINE",
"297 0 LINE",
"297 55 LINE",
"222 80 LINE"
);
},
{
closed = 1;
nodes = (
"240 760 LINE",
"240 760 OFFCURVE",
"235 690 OFFCURVE",
"160 690 CURVE SMOOTH",
"90 690 OFFCURVE",
"80 765 OFFCURVE",
"80 765 CURVE",
"20 760 LINE",
"20 675 OFFCURVE",
"85 615 OFFCURVE",
"155 615 CURVE SMOOTH",
"235 615 OFFCURVE",
"300 675 OFFCURVE",
"300 765 CURVE"
);
}
);
};
components = (
{
disableAlignment = 1;
name = dotlessi;
transform = "{1, 0, 0, 1, -3, 0}";
},
{
disableAlignment = 1;
name = breve;
transform = "{1, 0, 0, 1, -60, 0}";
}
);
layerId = UUID0;
name = Regular;
width = 330;
},
{
components = (
{
name = dotlessi;
},
{
name = breve;
transform = "{1, 0, 0, 1, -40, 16}";
}
);
layerId = "26DC72AF-247A-4505-B175-40140B6BEEEF";
name = Bold;
width = 362;
}
);
leftKerningGroup = i;
rightKerningGroup = i;
unicode = 012D;
},
{
glyphname = icircumflex;
lastChange = "2015-07-10 20:57:41 +0000";
layers = (
{
components = (
{
name = dotlessi;
}
);
layerId = UUID0;
name = Regular;
paths = (
{
closed = 1;
nodes = (
"172 708 LINE",
"300 600 LINE",
"340 645 LINE",
"200 785 LINE",
"140 780 LINE",
"0 645 LINE",
"40 600 LINE"
);
}
);
width = 335;
},
{
components = (
{
name = dotlessi;
}
);
layerId = "26DC72AF-247A-4505-B175-40140B6BEEEF";
name = Bold;
paths = (
{
closed = 1;
nodes = (
"180 718 LINE",
"334 598 LINE",
"383 664 LINE",
"217 825 LINE",
"128 817 LINE",
"-28 664 LINE",
"21 598 LINE"
);
}
);
width = 362;
}
);
leftKerningGroup = i;
rightKerningGroup = i;
unicode = 00EE;
},
{
glyphname = idieresis;
lastChange = "2015-07-10 20:51:31 +0000";
layers = (
{
components = (
{
disableAlignment = 1;
name = dotlessi;
}
);
layerId = UUID0;
name = Regular;
paths = (
{
closed = 1;
nodes = (
"295 640 OFFCURVE",
"320 662 OFFCURVE",
"320 700 CURVE SMOOTH",
"320 738 OFFCURVE",
"299 760 OFFCURVE",
"265 760 CURVE SMOOTH",
"235 760 OFFCURVE",
"210 738 OFFCURVE",
"210 700 CURVE SMOOTH",
"210 662 OFFCURVE",
"231 640 OFFCURVE",
"265 640 CURVE SMOOTH"
);
},
{
closed = 1;
nodes = (
"100 640 OFFCURVE",
"125 662 OFFCURVE",
"125 700 CURVE SMOOTH",
"125 738 OFFCURVE",
"104 760 OFFCURVE",
"70 760 CURVE SMOOTH",
"40 760 OFFCURVE",
"15 738 OFFCURVE",
"15 700 CURVE SMOOTH",
"15 662 OFFCURVE",
"36 640 OFFCURVE",
"70 640 CURVE SMOOTH"
);
}
);
width = 335;
},
{
components = (
{
name = dotlessi;
}
);
layerId = "26DC72AF-247A-4505-B175-40140B6BEEEF";
name = Bold;
paths = (
{
closed = 1;
nodes = (
"318 620 OFFCURVE",
"353 648 OFFCURVE",
"353 698 CURVE SMOOTH",
"353 747 OFFCURVE",
"329 776 OFFCURVE",
"281 776 CURVE SMOOTH",
"243 776 OFFCURVE",
"207 747 OFFCURVE",
"207 698 CURVE SMOOTH",
"207 648 OFFCURVE",
"232 620 OFFCURVE",
"279 620 CURVE SMOOTH"
);
},
{
closed = 1;
nodes = (
"110 620 OFFCURVE",
"145 648 OFFCURVE",
"145 698 CURVE SMOOTH",
"145 747 OFFCURVE",
"120 776 OFFCURVE",
"73 776 CURVE SMOOTH",
"34 776 OFFCURVE",
"-1 747 OFFCURVE",
"-1 698 CURVE SMOOTH",
"-1 648 OFFCURVE",
"24 620 OFFCURVE",
"71 620 CURVE SMOOTH"
);
}
);
width = 362;
}
);
leftKerningGroup = i;
rightKerningGroup = i;
unicode = 00EF;
},
{
glyphname = ij;
lastChange = "2015-07-10 20:58:41 +0000";
layers = (
{
background = {
paths = (
{
closed = 1;
nodes = (
"464 -240 OFFCURVE",
"529 -165 OFFCURVE",
"529 -45 CURVE SMOOTH",
"529 530 LINE",
"344 525 LINE",
"344 470 LINE",
"429 450 LINE",
"429 -65 LINE SMOOTH",
"429 -125 OFFCURVE",
"409 -165 OFFCURVE",
"339 -165 CURVE SMOOTH",
"289 -165 LINE",
"280 -235 LINE",
"280 -235 OFFCURVE",
"319 -240 OFFCURVE",
"344 -240 CURVE SMOOTH"
);
},
{
closed = 1;
nodes = (
"300 0 LINE",
"300 55 LINE",
"225 80 LINE",
"225 530 LINE",
"40 525 LINE",
"40 470 LINE",
"125 450 LINE",
"125 80 LINE",
"40 55 LINE",
"40 0 LINE"
);
},
{
closed = 1;
nodes = (
"200 625 OFFCURVE",
"235 650 OFFCURVE",
"235 695 CURVE SMOOTH",
"235 745 OFFCURVE",
"210 765 OFFCURVE",
"170 765 CURVE SMOOTH",
"135 765 OFFCURVE",
"105 740 OFFCURVE",
"105 695 CURVE SMOOTH",
"105 650 OFFCURVE",
"130 625 OFFCURVE",
"170 625 CURVE SMOOTH"
);
},
{
closed = 1;
nodes = (
"499 625 OFFCURVE",
"534 650 OFFCURVE",
"534 695 CURVE SMOOTH",
"534 745 OFFCURVE",
"509 765 OFFCURVE",
"469 765 CURVE SMOOTH",
"434 765 OFFCURVE",
"404 740 OFFCURVE",
"404 695 CURVE SMOOTH",
"404 650 OFFCURVE",
"429 625 OFFCURVE",
"469 625 CURVE SMOOTH"
);
}
);
};
components = (
{
name = i;
},
{
disableAlignment = 1;
name = j;
transform = "{1, 0, 0, 1, 315, 0}";
}
);
layerId = UUID0;
name = Regular;
width = 604;
},
{
components = (
{
name = i;
},
{
disableAlignment = 1;
name = j;
transform = "{1, 0, 0, 1, 345, 0}";
}
);
layerId = "26DC72AF-247A-4505-B175-40140B6BEEEF";
name = Bold;
width = 682;
}
);
leftKerningGroup = i;
rightKerningGroup = j;
rightMetricsKey = j;
unicode = 0133;
},
{
glyphname = imacron;
lastChange = "2015-07-10 21:03:16 +0000";
layers = (
{
background = {
paths = (
{
closed = 1;
nodes = (
"300 0 LINE",
"300 55 LINE",
"225 80 LINE",
"225 530 LINE",
"40 525 LINE",
"40 470 LINE",
"125 450 LINE",
"125 80 LINE",
"40 55 LINE",
"40 0 LINE"
);
},
{
closed = 1;
nodes = (
"290 660 LINE",
"290 735 LINE",
"30 735 LINE",
"30 660 LINE"
);
}
);
};
components = (
{
name = dotlessi;
}
);
layerId = UUID0;
name = Regular;
paths = (
{
closed = 1;
nodes = (
"290 660 LINE",
"290 735 LINE",
"30 735 LINE",
"30 660 LINE"
);
}
);
width = 335;
},
{
background = {
paths = (
{
closed = 1;
nodes = (
"332 0 LINE",
"332 80 LINE",
"262 105 LINE",
"262 540 LINE",
"35 532 LINE",
"35 452 LINE",
"115 432 LINE",
"115 105 LINE",
"35 80 LINE",
"35 0 LINE"
);
}
);
};
components = (
{
name = dotlessi;
}
);
layerId = "26DC72AF-247A-4505-B175-40140B6BEEEF";
name = Bold;
paths = (
{
closed = 1;
nodes = (
"323 647 LINE",
"323 752 LINE",
"28 752 LINE",
"28 647 LINE"
);
}
);
width = 362;
}
);
leftKerningGroup = i;
rightKerningGroup = i;
unicode = 012B;
},
{
glyphname = iogonek;
lastChange = "2015-07-10 21:04:57 +0000";
layers = (
{
layerId = UUID0;
name = Regular;
paths = (
{
closed = 1;
nodes = (
"210 -220 OFFCURVE",
"250 -200 OFFCURVE",
"250 -200 CURVE",
"240 -153 LINE",
"240 -153 OFFCURVE",
"215 -160 OFFCURVE",
"195 -160 CURVE SMOOTH",
"170 -160 OFFCURVE",
"150 -145 OFFCURVE",
"150 -115 CURVE SMOOTH",
"150 -62 OFFCURVE",
"240 -20 OFFCURVE",
"300 0 CURVE",
"300 55 LINE",
"225 80 LINE",
"225 530 LINE",
"40 525 LINE",
"40 470 LINE",
"125 450 LINE",
"125 80 LINE",
"40 55 LINE",
"40 0 LINE",
"180 0 LINE",
"148 -15 OFFCURVE",
"70 -55 OFFCURVE",
"70 -125 CURVE SMOOTH",
"70 -185 OFFCURVE",
"115 -220 OFFCURVE",
"170 -220 CURVE SMOOTH"
);
},
{
closed = 1;
nodes = (
"200 625 OFFCURVE",
"235 650 OFFCURVE",
"235 695 CURVE SMOOTH",
"235 745 OFFCURVE",
"210 765 OFFCURVE",
"170 765 CURVE SMOOTH",
"135 765 OFFCURVE",
"105 740 OFFCURVE",
"105 695 CURVE SMOOTH",
"105 650 OFFCURVE",
"130 625 OFFCURVE",
"170 625 CURVE SMOOTH"
);
}
);
width = 335;
},
{
background = {
paths = (
{
closed = 1;
nodes = (
"192 0 OFFCURVE",
"71 -49 OFFCURVE",
"71 -135 CURVE SMOOTH",
"71 -203 OFFCURVE",
"121 -235 OFFCURVE",
"181 -235 CURVE SMOOTH",
"236 -235 OFFCURVE",
"283 -210 OFFCURVE",
"283 -210 CURVE",
"266 -140 LINE",
"266 -140 OFFCURVE",
"239 -146 OFFCURVE",
"223 -146 CURVE SMOOTH",
"202 -146 OFFCURVE",
"186 -134 OFFCURVE",
"186 -110 CURVE SMOOTH",
"186 -61 OFFCURVE",
"331 0 OFFCURVE",
"332 0 CURVE",
"335 0 LINE",
"335 80 LINE",
"265 105 LINE",
"265 540 LINE",
"35 535 LINE",
"35 455 LINE",
"115 430 LINE",
"115 105 LINE",
"35 80 LINE",
"35 0 LINE",
"192 0 LINE"
);
},
{
closed = 1;
nodes = (
"224 614 OFFCURVE",
"267 646 OFFCURVE",
"267 705 CURVE SMOOTH",
"267 768 OFFCURVE",
"235 795 OFFCURVE",
"183 795 CURVE SMOOTH",
"138 795 OFFCURVE",
"97 762 OFFCURVE",
"97 705 CURVE SMOOTH",
"97 646 OFFCURVE",
"129 614 OFFCURVE",
"183 614 CURVE SMOOTH"
);
}
);
};
layerId = "26DC72AF-247A-4505-B175-40140B6BEEEF";
name = Bold;
paths = (
{
closed = 1;
nodes = (
"236 -235 OFFCURVE",
"283 -210 OFFCURVE",
"283 -210 CURVE",
"266 -140 LINE",
"266 -140 OFFCURVE",
"239 -146 OFFCURVE",
"223 -146 CURVE SMOOTH",
"202 -146 OFFCURVE",
"186 -134 OFFCURVE",
"186 -110 CURVE SMOOTH",
"186 -74 OFFCURVE",
"286 -13 OFFCURVE",
"335 0 CURVE",
"335 80 LINE",
"265 105 LINE",
"265 540 LINE",
"35 535 LINE",
"35 455 LINE",
"115 430 LINE",
"115 105 LINE",
"35 80 LINE",
"35 0 LINE",
"192 0 LINE",
"192 0 OFFCURVE",
"71 -49 OFFCURVE",
"71 -135 CURVE SMOOTH",
"71 -203 OFFCURVE",
"121 -235 OFFCURVE",
"181 -235 CURVE SMOOTH"
);
},
{
closed = 1;
nodes = (
"224 614 OFFCURVE",
"267 646 OFFCURVE",
"267 705 CURVE SMOOTH",
"267 768 OFFCURVE",
"235 795 OFFCURVE",
"183 795 CURVE SMOOTH",
"138 795 OFFCURVE",
"97 762 OFFCURVE",
"97 705 CURVE SMOOTH",
"97 646 OFFCURVE",
"129 614 OFFCURVE",
"183 614 CURVE SMOOTH"
);
}
);
width = 365;
}
);
leftKerningGroup = i;
rightKerningGroup = i;
unicode = 012F;
},
{
glyphname = itilde;
lastChange = "2015-07-10 21:05:18 +0000";
layers = (
{
background = {
paths = (
{
closed = 1;
nodes = (
"300 0 LINE",
"300 55 LINE",
"225 80 LINE",
"225 530 LINE",
"40 525 LINE",
"40 470 LINE",
"125 450 LINE",
"125 80 LINE",
"40 55 LINE",
"40 0 LINE"
);
},
{
closed = 1;
nodes = (
"10 635 OFFCURVE",
"38 679 OFFCURVE",
"77 679 CURVE SMOOTH",
"132 679 OFFCURVE",
"168 635 OFFCURVE",
"228 635 CURVE SMOOTH",
"296 635 OFFCURVE",
"329 725 OFFCURVE",
"329 725 CURVE",
"294 760 LINE",
"294 760 OFFCURVE",
"270 718 OFFCURVE",
"232 718 CURVE SMOOTH",
"177 718 OFFCURVE",
"141 764 OFFCURVE",
"81 764 CURVE SMOOTH",
"13 764 OFFCURVE",
"-25 670 OFFCURVE",
"-25 670 CURVE",
"10 635 LINE"
);
}
);
};
components = (
{
name = dotlessi;
}
);
layerId = UUID0;
name = Regular;
paths = (
{
closed = 1;
nodes = (
"296 635 OFFCURVE",
"329 725 OFFCURVE",
"329 725 CURVE",
"294 760 LINE",
"294 760 OFFCURVE",
"270 718 OFFCURVE",
"232 718 CURVE SMOOTH",
"177 718 OFFCURVE",
"141 764 OFFCURVE",
"81 764 CURVE SMOOTH",
"13 764 OFFCURVE",
"-25 670 OFFCURVE",
"-25 670 CURVE",
"10 635 LINE",
"10 635 OFFCURVE",
"38 679 OFFCURVE",
"77 679 CURVE SMOOTH",
"132 679 OFFCURVE",
"168 635 OFFCURVE",
"228 635 CURVE SMOOTH"
);
}
);
width = 334;
},
{
components = (
{
name = dotlessi;
}
);
layerId = "26DC72AF-247A-4505-B175-40140B6BEEEF";
name = Bold;
paths = (
{
closed = 1;
nodes = (
"318 627 OFFCURVE",
"361 736 OFFCURVE",
"361 736 CURVE",
"308 782 LINE",
"308 782 OFFCURVE",
"278 740 OFFCURVE",
"242 740 CURVE SMOOTH",
"192 740 OFFCURVE",
"155 786 OFFCURVE",
"90 786 CURVE SMOOTH",
"10 786 OFFCURVE",
"-32 676 OFFCURVE",
"-32 676 CURVE",
"15 630 LINE",
"15 630 OFFCURVE",
"46 671 OFFCURVE",
"85 671 CURVE SMOOTH",
"140 671 OFFCURVE",
"179 627 OFFCURVE",
"239 627 CURVE SMOOTH"
);
}
);
width = 361;
}
);
leftKerningGroup = i;
rightKerningGroup = i;
unicode = 0129;
},
{
glyphname = j;
lastChange = "2015-07-10 20:51:31 +0000";
layers = (
{
layerId = UUID0;
name = Regular;
paths = (
{
closed = 1;
nodes = (
"144 -240 OFFCURVE",
"209 -165 OFFCURVE",
"209 -45 CURVE SMOOTH",
"209 530 LINE",
"24 525 LINE",
"24 470 LINE",
"109 450 LINE",
"109 -65 LINE SMOOTH",
"109 -125 OFFCURVE",
"89 -165 OFFCURVE",
"19 -165 CURVE SMOOTH",
"-31 -165 LINE",
"-40 -235 LINE",
"-40 -235 OFFCURVE",
"-1 -240 OFFCURVE",
"24 -240 CURVE SMOOTH"
);
},
{
closed = 1;
nodes = (
"179 625 OFFCURVE",
"214 650 OFFCURVE",
"214 695 CURVE SMOOTH",
"214 745 OFFCURVE",
"189 765 OFFCURVE",
"149 765 CURVE SMOOTH",
"114 765 OFFCURVE",
"84 740 OFFCURVE",
"84 695 CURVE SMOOTH",
"84 650 OFFCURVE",
"109 625 OFFCURVE",
"149 625 CURVE SMOOTH"
);
}
);
width = 289;
},
{
layerId = "26DC72AF-247A-4505-B175-40140B6BEEEF";
name = Bold;
paths = (
{
closed = 1;
nodes = (
"214 -245 OFFCURVE",
"265 -160 OFFCURVE",
"265 13 CURVE SMOOTH",
"265 540 LINE",
"35 535 LINE",
"35 455 LINE",
"115 430 LINE",
"115 -41 LINE SMOOTH",
"115 -105 OFFCURVE",
"93 -140 OFFCURVE",
"33 -140 CURVE SMOOTH",
"-19 -140 LINE",
"-31 -238 LINE",
"-31 -238 OFFCURVE",
"13 -245 OFFCURVE",
"45 -245 CURVE SMOOTH"
);
},
{
closed = 1;
nodes = (
"228 614 OFFCURVE",
"267 650 OFFCURVE",
"267 705 CURVE SMOOTH",
"267 766 OFFCURVE",
"237 795 OFFCURVE",
"183 795 CURVE SMOOTH",
"135 795 OFFCURVE",
"97 759 OFFCURVE",
"97 705 CURVE SMOOTH",
"97 646 OFFCURVE",
"129 614 OFFCURVE",
"183 614 CURVE SMOOTH"
);
}
);
width = 337;
}
);
leftKerningGroup = j;
rightKerningGroup = i;
unicode = 006A;
},
{
glyphname = dotlessj;
lastChange = "2015-07-10 20:51:31 +0000";
layers = (
{
layerId = UUID0;
name = Regular;
paths = (
{
closed = 1;
nodes = (
"144 -240 OFFCURVE",
"209 -165 OFFCURVE",
"209 -45 CURVE SMOOTH",
"209 530 LINE",
"24 525 LINE",
"24 470 LINE",
"109 450 LINE",
"109 -65 LINE SMOOTH",
"109 -125 OFFCURVE",
"89 -165 OFFCURVE",
"19 -165 CURVE SMOOTH",
"-31 -165 LINE",
"-40 -235 LINE",
"-40 -235 OFFCURVE",
"-1 -240 OFFCURVE",
"24 -240 CURVE SMOOTH"
);
}
);
width = 284;
},
{
layerId = "26DC72AF-247A-4505-B175-40140B6BEEEF";
name = Bold;
paths = (
{
closed = 1;
nodes = (
"214 -245 OFFCURVE",
"263 -160 OFFCURVE",
"263 13 CURVE SMOOTH",
"263 540 LINE",
"35 535 LINE",
"35 455 LINE",
"115 430 LINE",
"115 -46 LINE SMOOTH",
"115 -110 OFFCURVE",
"93 -145 OFFCURVE",
"33 -145 CURVE SMOOTH",
"-19 -145 LINE",
"-31 -238 LINE",
"-31 -238 OFFCURVE",
"13 -245 OFFCURVE",
"45 -245 CURVE SMOOTH"
);
}
);
width = 333;
}
);
leftKerningGroup = j;
rightKerningGroup = i;
unicode = 0237;
},
{
glyphname = jcircumflex;
lastChange = "2015-07-10 21:06:08 +0000";
layers = (
{
background = {
paths = (
{
closed = 1;
nodes = (
"144 -240 OFFCURVE",
"209 -165 OFFCURVE",
"209 -45 CURVE SMOOTH",
"209 530 LINE",
"24 525 LINE",
"24 470 LINE",
"109 450 LINE",
"109 -65 LINE SMOOTH",
"109 -125 OFFCURVE",
"89 -165 OFFCURVE",
"19 -165 CURVE SMOOTH",
"-31 -165 LINE",
"-40 -235 LINE",
"-40 -235 OFFCURVE",
"-1 -240 OFFCURVE",
"24 -240 CURVE SMOOTH"
);
},
{
closed = 1;
nodes = (
"146 708 LINE",
"274 600 LINE",
"314 645 LINE",
"174 785 LINE",
"114 780 LINE",
"-26 645 LINE",
"14 600 LINE"
);
}
);
};
components = (
{
name = dotlessj;
}
);
layerId = UUID0;
name = Regular;
paths = (
{
closed = 1;
nodes = (
"146 708 LINE",
"274 600 LINE",
"314 645 LINE",
"174 785 LINE",
"114 780 LINE",
"-26 645 LINE",
"14 600 LINE"
);
}
);
width = 284;
},
{
components = (
{
name = dotlessj;
}
);
layerId = "26DC72AF-247A-4505-B175-40140B6BEEEF";
name = Bold;
paths = (
{
closed = 1;
nodes = (
"166 718 LINE",
"326 603 LINE",
"374 664 LINE",
"203 825 LINE",
"114 817 LINE",
"-45 664 LINE",
"3 603 LINE"
);
}
);
width = 333;
}
);
leftKerningGroup = j;
rightKerningGroup = j;
unicode = 0135;
},
{
glyphname = k;
lastChange = "2015-07-10 20:51:31 +0000";
layers = (
{
background = {
paths = (
{
closed = 1;
nodes = (
"25 710 LINE",
"110 690 LINE",
"110 80 LINE",
"25 55 LINE",
"25 0 LINE",
"275 0 LINE",
"275 55 LINE",
"210 80 LINE",
"210 255 LINE",
"297 255 LINE",
"440 0 LINE",
"575 0 LINE",
"575 55 LINE",
"500 80 LINE",
"499 80 LINE",
"370 305 LINE",
"473 458 LINE",
"474 458 LINE",
"545 470 LINE",
"545 530 LINE",
"325 525 LINE",
"325 470 LINE",
"370 456 LINE",
"295 330 LINE",
"210 330 LINE",
"210 770 LINE",
"25 765 LINE"
);
}
);
};
layerId = UUID0;
name = Regular;
paths = (
{
closed = 1;
nodes = (
"275 0 LINE",
"275 55 LINE",
"210 80 LINE",
"210 255 LINE",
"297 255 LINE",
"448 0 LINE",
"575 0 LINE",
"575 55 LINE",
"499 80 LINE",
"370 305 LINE",
"474 458 LINE",
"545 470 LINE",
"545 530 LINE",
"325 525 LINE",
"325 470 LINE",
"370 456 LINE",
"295 330 LINE",
"210 330 LINE",
"210 770 LINE",
"25 765 LINE",
"25 710 LINE",
"110 690 LINE",
"110 80 LINE",
"25 55 LINE",
"25 0 LINE"
);
}
);
width = 580;
},
{
layerId = "26DC72AF-247A-4505-B175-40140B6BEEEF";
name = Bold;
paths = (
{
closed = 1;
nodes = (
"305 0 LINE",
"305 80 LINE",
"250 105 LINE",
"250 244 LINE",
"314 244 LINE",
"438 0 LINE",
"623 0 LINE",
"623 80 LINE",
"547 104 LINE",
"435 311 LINE",
"528 442 LINE",
"598 455 LINE",
"598 540 LINE",
"340 535 LINE",
"340 455 LINE",
"384 441 LINE",
"316 339 LINE",
"250 339 LINE",
"250 775 LINE",
"20 767 LINE",
"20 687 LINE",
"100 667 LINE",
"100 105 LINE",
"20 80 LINE",
"20 0 LINE"
);
}
);
width = 633;
}
);
leftKerningGroup = l;
rightKerningGroup = k;
unicode = 006B;
},
{
glyphname = kgreenlandic;
lastChange = "2015-07-10 21:11:27 +0000";
layers = (
{
background = {
paths = (
{
closed = 1;
nodes = (
"290 0 LINE",
"290 55 LINE",
"225 80 LINE",
"225 250 LINE",
"317 250 LINE",
"460 0 LINE",
"595 0 LINE",
"595 55 LINE",
"519 80 LINE",
"390 300 LINE",
"493 458 LINE",
"494 458 LINE",
"565 470 LINE",
"565 530 LINE",
"345 525 LINE",
"345 470 LINE",
"390 456 LINE",
"315 325 LINE",
"225 325 LINE",
"225 530 LINE",
"40 525 LINE",
"40 470 LINE",
"125 450 LINE",
"125 80 LINE",
"40 55 LINE",
"40 0 LINE"
);
}
);
};
layerId = UUID0;
name = Regular;
paths = (
{
closed = 1;
nodes = (
"291 0 LINE",
"290 55 LINE",
"225 80 LINE",
"225 250 LINE",
"317 250 LINE",
"460 0 LINE",
"595 0 LINE",
"595 55 LINE",
"519 80 LINE",
"390 300 LINE",
"493 458 LINE",
"565 470 LINE",
"565 530 LINE",
"345 525 LINE",
"345 470 LINE",
"390 456 LINE",
"315 325 LINE",
"225 325 LINE",
"225 530 LINE",
"40 525 LINE",
"40 470 LINE",
"125 450 LINE",
"125 80 LINE",
"40 55 LINE",
"40 0 LINE"
);
}
);
width = 600;
},
{
layerId = "26DC72AF-247A-4505-B175-40140B6BEEEF";
name = Bold;
paths = (
{
closed = 1;
nodes = (
"320 0 LINE",
"320 80 LINE",
"265 105 LINE",
"265 244 LINE",
"329 244 LINE",
"453 0 LINE",
"638 0 LINE",
"638 80 LINE",
"562 104 LINE",
"450 311 LINE",
"543 441 LINE",
"613 457 LINE",
"613 542 LINE",
"355 535 LINE",
"355 455 LINE",
"399 440 LINE",
"330 339 LINE",
"265 339 LINE",
"265 542 LINE",
"35 535 LINE",
"35 455 LINE",
"115 430 LINE",
"115 105 LINE",
"35 80 LINE",
"35 0 LINE"
);
}
);
width = 648;
}
);
leftKerningGroup = l;
rightKerningGroup = k;
unicode = 0138;
},
{
glyphname = l;
lastChange = "2015-07-10 20:51:31 +0000";
layers = (
{
layerId = UUID0;
name = Regular;
paths = (
{
closed = 1;
nodes = (
"302 0 LINE",
"302 55 LINE",
"212 80 LINE",
"212 770 LINE",
"25 765 LINE",
"25 710 LINE",
"110 690 LINE",
"110 80 LINE",
"25 55 LINE",
"25 0 LINE"
);
}
);
width = 307;
},
{
layerId = "26DC72AF-247A-4505-B175-40140B6BEEEF";
name = Bold;
paths = (
{
closed = 1;
nodes = (
"341 0 LINE",
"341 80 LINE",
"251 105 LINE",
"251 775 LINE",
"20 767 LINE",
"20 687 LINE",
"100 667 LINE",
"100 105 LINE",
"20 80 LINE",
"20 0 LINE"
);
}
);
width = 346;
}
);
leftKerningGroup = l;
rightKerningGroup = l;
unicode = 006C;
},
{
glyphname = lcaron;
lastChange = "2015-07-10 17:16:23 +0000";
layers = (
{
components = (
{
disableAlignment = 1;
name = l;
},
{
disableAlignment = 1;
name = caron.x;
transform = "{1, 0, 0, 1, 267, 0}";
}
);
layerId = UUID0;
name = Regular;
paths = (
{
closed = 0;
nodes = (
"162 678 LINE"
);
}
);
width = 398;
},
{
components = (
{
name = l;
},
{
name = caron.x;
transform = "{1, 0, 0, 1, 308, 0}";
}
);
layerId = "26DC72AF-247A-4505-B175-40140B6BEEEF";
name = Bold;
paths = (
{
closed = 0;
nodes = (
"189 568 LINE"
);
}
);
width = 464;
}
);
leftKerningGroup = l;
unicode = 013E;
},
{
glyphname = lcommaaccent;
lastChange = "2015-07-10 21:11:48 +0000";
layers = (
{
background = {
paths = (
{
closed = 1;
nodes = (
"312 0 LINE",
"312 55 LINE",
"212 80 LINE",
"212 770 LINE",
"25 765 LINE",
"25 710 LINE",
"110 690 LINE",
"110 80 LINE",
"25 55 LINE",
"25 0 LINE"
);
},
{
closed = 1;
nodes = (
"172 -231 OFFCURVE",
"215 -168 OFFCURVE",
"215 -115 CURVE SMOOTH",
"215 -75 OFFCURVE",
"190 -50 OFFCURVE",
"155 -50 CURVE SMOOTH",
"120 -50 OFFCURVE",
"95 -75 OFFCURVE",
"95 -112 CURVE SMOOTH",
"95 -140 OFFCURVE",
"115 -160 OFFCURVE",
"115 -175 CURVE SMOOTH",
"115 -195 OFFCURVE",
"65 -245 OFFCURVE",
"65 -245 CURVE",
"105 -285 LINE"
);
}
);
};
components = (
{
name = l;
},
{
name = commaaccent;
transform = "{1, 0, 0, 1, 36, 0}";
}
);
layerId = UUID0;
name = Regular;
width = 307;
},
{
components = (
{
name = l;
},
{
name = commaaccent;
transform = "{1, 0, 0, 1, 50, 0}";
}
);
layerId = "26DC72AF-247A-4505-B175-40140B6BEEEF";
name = Bold;
width = 346;
}
);
leftKerningGroup = l;
rightKerningGroup = l;
unicode = 013C;
},
{
glyphname = ldot;
lastChange = "2015-07-10 21:13:43 +0000";
layers = (
{
background = {
paths = (
{
closed = 1;
nodes = (
"312 0 LINE",
"312 55 LINE",
"212 80 LINE",
"212 770 LINE",
"25 765 LINE",
"25 710 LINE",
"110 690 LINE",
"110 80 LINE",
"25 55 LINE",
"25 0 LINE"
);
},
{
closed = 1;
nodes = (
"383 243 OFFCURVE",
"413 268 OFFCURVE",
"413 315 CURVE SMOOTH",
"413 362 OFFCURVE",
"388 387 OFFCURVE",
"346 387 CURVE SMOOTH",
"309 387 OFFCURVE",
"279 362 OFFCURVE",
"279 315 CURVE SMOOTH",
"279 268 OFFCURVE",
"304 243 OFFCURVE",
"346 243 CURVE SMOOTH"
);
}
);
};
components = (
{
disableAlignment = 1;
name = l;
},
{
disableAlignment = 1;
name = periodcentered;
transform = "{1, 0, 0, 1, 214, 10}";
}
);
layerId = UUID0;
name = Regular;
width = 423;
},
{
components = (
{
disableAlignment = 1;
name = l;
},
{
disableAlignment = 1;
name = periodcentered;
transform = "{1, 0, 0, 1, 265, 7}";
}
);
layerId = "26DC72AF-247A-4505-B175-40140B6BEEEF";
name = Bold;
width = 507;
}
);
leftKerningGroup = l;
leftMetricsKey = l;
unicode = 0140;
},
{
glyphname = lslash;
lastChange = "2015-07-10 20:51:31 +0000";
layers = (
{
layerId = UUID0;
name = Regular;
paths = (
{
closed = 1;
nodes = (
"337 0 LINE",
"337 55 LINE",
"237 80 LINE",
"237 348 LINE",
"356 405 LINE",
"336 480 LINE",
"237 433 LINE",
"237 770 LINE",
"50 765 LINE",
"50 710 LINE",
"135 690 LINE",
"135 391 LINE",
"20 336 LINE",
"41 262 LINE",
"135 307 LINE",
"135 80 LINE",
"50 55 LINE",
"50 0 LINE"
);
}
);
width = 361;
},
{
layerId = "26DC72AF-247A-4505-B175-40140B6BEEEF";
name = Bold;
paths = (
{
closed = 1;
nodes = (
"393 0 LINE",
"393 80 LINE",
"298 105 LINE",
"298 347 LINE",
"421 401 LINE",
"398 512 LINE",
"298 468 LINE",
"298 775 LINE",
"67 767 LINE",
"67 687 LINE",
"147 667 LINE",
"147 406 LINE",
"25 352 LINE",
"56 246 LINE",
"147 286 LINE",
"147 105 LINE",
"67 80 LINE",
"67 0 LINE"
);
}
);
width = 431;
}
);
unicode = 0142;
},
{
glyphname = m;
lastChange = "2015-07-10 20:51:31 +0000";
layers = (
{
layerId = UUID0;
name = Regular;
paths = (
{
closed = 1;
nodes = (
"290 0 LINE",
"290 55 LINE",
"225 80 LINE",
"225 375 LINE",
"225 375 OFFCURVE",
"280 455 OFFCURVE",
"365 455 CURVE SMOOTH",
"430 455 OFFCURVE",
"450 420 OFFCURVE",
"450 350 CURVE SMOOTH",
"450 80 LINE",
"385 55 LINE",
"385 0 LINE",
"615 0 LINE",
"615 55 LINE",
"550 80 LINE",
"550 375 LINE",
"550 375 OFFCURVE",
"605 455 OFFCURVE",
"690 455 CURVE SMOOTH",
"755 455 OFFCURVE",
"775 420 OFFCURVE",
"775 350 CURVE SMOOTH",
"775 80 LINE",
"710 55 LINE",
"710 0 LINE",
"950 0 LINE",
"950 55 LINE",
"875 80 LINE",
"875 360 LINE SMOOTH",
"875 470 OFFCURVE",
"830 540 OFFCURVE",
"720 540 CURVE SMOOTH",
"628 540 OFFCURVE",
"547 467 OFFCURVE",
"534 454 CURVE",
"511 506 OFFCURVE",
"467 540 OFFCURVE",
"395 540 CURVE SMOOTH",
"313 540 OFFCURVE",
"237 481 OFFCURVE",
"214 459 CURVE",
"205 530 LINE",
"40 525 LINE",
"40 470 LINE",
"125 450 LINE",
"125 80 LINE",
"40 55 LINE",
"40 0 LINE"
);
}
);
width = 980;
},
{
layerId = "26DC72AF-247A-4505-B175-40140B6BEEEF";
name = Bold;
paths = (
{
closed = 1;
nodes = (
"315 0 LINE",
"315 80 LINE",
"262 105 LINE",
"262 373 LINE",
"262 373 OFFCURVE",
"309 425 OFFCURVE",
"374 425 CURVE SMOOTH",
"417 425 OFFCURVE",
"431 398 OFFCURVE",
"431 343 CURVE SMOOTH",
"431 105 LINE",
"379 80 LINE",
"379 0 LINE",
"633 0 LINE",
"633 80 LINE",
"581 105 LINE",
"581 373 LINE",
"581 373 OFFCURVE",
"627 425 OFFCURVE",
"692 425 CURVE SMOOTH",
"734 425 OFFCURVE",
"750 398 OFFCURVE",
"750 343 CURVE SMOOTH",
"750 105 LINE",
"697 80 LINE",
"697 0 LINE",
"968 0 LINE",
"968 80 LINE",
"900 105 LINE",
"900 370 LINE",
"900 482 OFFCURVE",
"851 550 OFFCURVE",
"746 550 CURVE SMOOTH",
"657 550 OFFCURVE",
"582 481 OFFCURVE",
"565 464 CURVE",
"542 517 OFFCURVE",
"498 550 OFFCURVE",
"427 550 CURVE SMOOTH",
"339 550 OFFCURVE",
"252 469 OFFCURVE",
"252 469 CURVE",
"245 540 LINE",
"36 535 LINE",
"36 455 LINE",
"112 430 LINE",
"112 105 LINE",
"35 80 LINE",
"35 0 LINE"
);
}
);
width = 993;
}
);
leftKerningGroup = n;
rightKerningGroup = n;
unicode = 006D;
},
{
glyphname = n;
lastChange = "2015-07-10 20:51:31 +0000";
layers = (
{
guideLines = (
{
angle = 90;
position = "{40, 398}";
}
);
layerId = UUID0;
name = Regular;
paths = (
{
closed = 1;
nodes = (
"290 0 LINE",
"290 55 LINE",
"225 80 LINE",
"225 375 LINE",
"225 375 OFFCURVE",
"285 455 OFFCURVE",
"370 455 CURVE SMOOTH",
"435 455 OFFCURVE",
"460 420 OFFCURVE",
"460 350 CURVE SMOOTH",
"460 80 LINE",
"395 55 LINE",
"395 0 LINE",
"635 0 LINE",
"635 55 LINE",
"560 80 LINE",
"560 360 LINE",
"560 470 OFFCURVE",
"510 540 OFFCURVE",
"400 540 CURVE SMOOTH",
"317 540 OFFCURVE",
"238 480 OFFCURVE",
"214 459 CURVE",
"205 530 LINE",
"40 525 LINE",
"40 470 LINE",
"125 450 LINE",
"125 80 LINE",
"40 55 LINE",
"40 0 LINE"
);
}
);
width = 665;
},
{
layerId = "26DC72AF-247A-4505-B175-40140B6BEEEF";
name = Bold;
paths = (
{
closed = 1;
nodes = (
"320 0 LINE",
"320 80 LINE",
"265 105 LINE",
"265 366 LINE",
"265 366 OFFCURVE",
"310 423 OFFCURVE",
"372 423 CURVE SMOOTH",
"414 423 OFFCURVE",
"440 389 OFFCURVE",
"440 343 CURVE SMOOTH",
"440 105 LINE",
"385 80 LINE",
"385 0 LINE",
"660 0 LINE",
"660 80 LINE",
"590 105 LINE",
"590 370 LINE SMOOTH",
"590 479 OFFCURVE",
"535 548 OFFCURVE",
"438 548 CURVE SMOOTH",
"349 548 OFFCURVE",
"254 471 OFFCURVE",
"254 471 CURVE",
"247 540 LINE",
"35 535 LINE",
"35 455 LINE",
"115 430 LINE",
"115 105 LINE",
"35 80 LINE",
"35 0 LINE"
);
}
);
width = 685;
}
);
leftKerningGroup = n;
rightKerningGroup = n;
unicode = 006E;
},
{
glyphname = napostrophe;
lastChange = "2015-07-10 21:14:33 +0000";
layers = (
{
components = (
{
disableAlignment = 1;
name = n;
}
);
layerId = UUID0;
name = Regular;
paths = (
{
closed = 1;
nodes = (
"94 629 OFFCURVE",
"135 685 OFFCURVE",
"135 740 CURVE SMOOTH",
"135 785 OFFCURVE",
"110 805 OFFCURVE",
"75 805 CURVE SMOOTH",
"42 805 OFFCURVE",
"15 783 OFFCURVE",
"15 745 CURVE SMOOTH",
"15 715 OFFCURVE",
"40 700 OFFCURVE",
"40 685 CURVE SMOOTH",
"40 664 OFFCURVE",
"-15 619 OFFCURVE",
"-15 619 CURVE",
"23 576 LINE"
);
}
);
width = 665;
},
{
components = (
{
disableAlignment = 1;
name = n;
}
);
guideLines = (
{
position = "{218, 576}";
}
);
layerId = "26DC72AF-247A-4505-B175-40140B6BEEEF";
name = Bold;
paths = (
{
closed = 1;
nodes = (
"87 617 OFFCURVE",
"146 680 OFFCURVE",
"146 750 CURVE SMOOTH",
"146 794 OFFCURVE",
"115 829 OFFCURVE",
"70 829 CURVE SMOOTH",
"25 829 OFFCURVE",
"-9 799 OFFCURVE",
"-9 759 CURVE SMOOTH",
"-9 730 OFFCURVE",
"12 709 OFFCURVE",
"12 691 CURVE SMOOTH",
"12 673 OFFCURVE",
"-20 639 OFFCURVE",
"-33 618 CURVE",
"31 570 LINE"
);
}
);
width = 685;
}
);
leftKerningGroup = n;
rightKerningGroup = n;
rightMetricsKey = n;
unicode = 0149;
},
